solid 
 facet normal  9.990212e-01  4.423335e-02  0.000000e+00
   outer loop
     vertex  3.984347e+02  3.535204e+01  1.024000e+03
     vertex  4.000000e+02 -9.797174e-14  1.024000e+03
     vertex  4.000000e+02 -9.797174e-14  7.240000e+02
   endloop
 endfacet
 facet normal  9.990212e-01  4.423335e-02  0.000000e+00
   outer loop
     vertex  3.984347e+02  3.535204e+01  1.024000e+03
     vertex  4.000000e+02 -9.797174e-14  7.240000e+02
     vertex  3.984347e+02  3.535204e+01  7.240000e+02
   endloop
 endfacet
 facet normal  9.912025e-01  1.323539e-01  0.000000e+00
   outer loop
     vertex  3.937512e+02  7.042741e+01  1.024000e+03
     vertex  3.984347e+02  3.535204e+01  1.024000e+03
     vertex  3.984347e+02  3.535204e+01  7.240000e+02
   endloop
 endfacet
 facet normal  9.912025e-01  1.323539e-01  0.000000e+00
   outer loop
     vertex  3.937512e+02  7.042741e+01  1.024000e+03
     vertex  3.984347e+02  3.535204e+01  7.240000e+02
     vertex  3.937512e+02  7.042741e+01  7.240000e+02
   endloop
 endfacet
 facet normal  9.756263e-01  2.194385e-01  0.000000e+00
   outer loop
     vertex  3.859860e+02  1.049516e+02  1.024000e+03
     vertex  3.937512e+02  7.042741e+01  1.024000e+03
     vertex  3.937512e+02  7.042741e+01  7.240000e+02
   endloop
 endfacet
 facet normal  9.756263e-01  2.194385e-01  0.000000e+00
   outer loop
     vertex  3.859860e+02  1.049516e+02  1.024000e+03
     vertex  3.937512e+02  7.042741e+01  7.240000e+02
     vertex  3.859860e+02  1.049516e+02  7.240000e+02
   endloop
 endfacet
 facet normal  9.524145e-01  3.048058e-01  0.000000e+00
   outer loop
     vertex  3.751999e+02  1.386544e+02  1.024000e+03
     vertex  3.859860e+02  1.049516e+02  1.024000e+03
     vertex  3.859860e+02  1.049516e+02  7.240000e+02
   endloop
 endfacet
 facet normal  9.524145e-01  3.048058e-01  0.000000e+00
   outer loop
     vertex  3.751999e+02  1.386544e+02  1.024000e+03
     vertex  3.859860e+02  1.049516e+02  7.240000e+02
     vertex  3.751999e+02  1.386544e+02  7.240000e+02
   endloop
 endfacet
 facet normal  9.217488e-01  3.877875e-01  0.000000e+00
   outer loop
     vertex  3.614774e+02  1.712720e+02  1.024000e+03
     vertex  3.751999e+02  1.386544e+02  1.024000e+03
     vertex  3.751999e+02  1.386544e+02  7.240000e+02
   endloop
 endfacet
 facet normal  9.217488e-01  3.877875e-01  0.000000e+00
   outer loop
     vertex  3.614774e+02  1.712720e+02  1.024000e+03
     vertex  3.751999e+02  1.386544e+02  7.240000e+02
     vertex  3.614774e+02  1.712720e+02  7.240000e+02
   endloop
 endfacet
 facet normal  8.838691e-01  4.677343e-01  0.000000e+00
   outer loop
     vertex  3.614774e+02  1.712720e+02  1.024000e+03
     vertex  3.614774e+02  1.712720e+02  7.240000e+02
     vertex  3.449258e+02  2.025492e+02  7.240000e+02
   endloop
 endfacet
 facet normal  8.838691e-01  4.677343e-01  0.000000e+00
   outer loop
     vertex  3.449258e+02  2.025492e+02  1.024000e+03
     vertex  3.614774e+02  1.712720e+02  1.024000e+03
     vertex  3.449258e+02  2.025492e+02  7.240000e+02
   endloop
 endfacet
 facet normal  8.390720e-01  5.440204e-01  0.000000e+00
   outer loop
     vertex  3.449258e+02  2.025492e+02  1.024000e+03
     vertex  3.449258e+02  2.025492e+02  7.240000e+02
     vertex  3.256748e+02  2.322412e+02  7.240000e+02
   endloop
 endfacet
 facet normal  8.390720e-01  5.440204e-01  0.000000e+00
   outer loop
     vertex  3.256748e+02  2.322412e+02  1.024000e+03
     vertex  3.449258e+02  2.025492e+02  1.024000e+03
     vertex  3.256748e+02  2.322412e+02  7.240000e+02
   endloop
 endfacet
 facet normal  7.877080e-01  6.160488e-01  0.000000e+00
   outer loop
     vertex  3.256748e+02  2.322412e+02  1.024000e+03
     vertex  3.256748e+02  2.322412e+02  7.240000e+02
     vertex  3.038748e+02  2.601155e+02  7.240000e+02
   endloop
 endfacet
 facet normal  7.877080e-01  6.160488e-01  0.000000e+00
   outer loop
     vertex  3.038748e+02  2.601155e+02  1.024000e+03
     vertex  3.256748e+02  2.322412e+02  1.024000e+03
     vertex  3.038748e+02  2.601155e+02  7.240000e+02
   endloop
 endfacet
 facet normal  7.301791e-01  6.832558e-01  0.000000e+00
   outer loop
     vertex  2.796967e+02  2.859541e+02  1.024000e+03
     vertex  3.038748e+02  2.601155e+02  7.240000e+02
     vertex  2.796967e+02  2.859541e+02  7.240000e+02
   endloop
 endfacet
 facet normal  7.301791e-01  6.832558e-01  0.000000e+00
   outer loop
     vertex  2.796967e+02  2.859541e+02  1.024000e+03
     vertex  3.038748e+02  2.601155e+02  1.024000e+03
     vertex  3.038748e+02  2.601155e+02  7.240000e+02
   endloop
 endfacet
 facet normal  6.669355e-01  7.451154e-01  0.000000e+00
   outer loop
     vertex  2.533295e+02  3.095548e+02  1.024000e+03
     vertex  2.796967e+02  2.859541e+02  7.240000e+02
     vertex  2.533295e+02  3.095548e+02  7.240000e+02
   endloop
 endfacet
 facet normal  6.669355e-01  7.451154e-01  0.000000e+00
   outer loop
     vertex  2.533295e+02  3.095548e+02  1.024000e+03
     vertex  2.796967e+02  2.859541e+02  1.024000e+03
     vertex  2.796967e+02  2.859541e+02  7.240000e+02
   endloop
 endfacet
 facet normal  5.984723e-01  8.011435e-01  0.000000e+00
   outer loop
     vertex  2.249797e+02  3.307327e+02  1.024000e+03
     vertex  2.533295e+02  3.095548e+02  7.240000e+02
     vertex  2.249797e+02  3.307327e+02  7.240000e+02
   endloop
 endfacet
 facet normal  5.984723e-01  8.011435e-01  0.000000e+00
   outer loop
     vertex  2.249797e+02  3.307327e+02  1.024000e+03
     vertex  2.533295e+02  3.095548e+02  1.024000e+03
     vertex  2.533295e+02  3.095548e+02  7.240000e+02
   endloop
 endfacet
 facet normal  5.253252e-01  8.509015e-01  0.000000e+00
   outer loop
     vertex  1.948691e+02  3.493222e+02  1.024000e+03
     vertex  2.249797e+02  3.307327e+02  7.240000e+02
     vertex  1.948691e+02  3.493222e+02  7.240000e+02
   endloop
 endfacet
 facet normal  5.253252e-01  8.509015e-01  0.000000e+00
   outer loop
     vertex  1.948691e+02  3.493222e+02  1.024000e+03
     vertex  2.249797e+02  3.307327e+02  1.024000e+03
     vertex  2.249797e+02  3.307327e+02  7.240000e+02
   endloop
 endfacet
 facet normal  4.480668e-01  8.940001e-01  0.000000e+00
   outer loop
     vertex  1.632334e+02  3.651778e+02  1.024000e+03
     vertex  1.948691e+02  3.493222e+02  7.240000e+02
     vertex  1.632334e+02  3.651778e+02  7.240000e+02
   endloop
 endfacet
 facet normal  4.480668e-01  8.940001e-01  0.000000e+00
   outer loop
     vertex  1.632334e+02  3.651778e+02  1.024000e+03
     vertex  1.948691e+02  3.493222e+02  1.024000e+03
     vertex  1.948691e+02  3.493222e+02  7.240000e+02
   endloop
 endfacet
 facet normal  3.673016e-01  9.301019e-01  0.000000e+00
   outer loop
     vertex  1.303202e+02  3.781754e+02  1.024000e+03
     vertex  1.632334e+02  3.651778e+02  1.024000e+03
     vertex  1.632334e+02  3.651778e+02  7.240000e+02
   endloop
 endfacet
 facet normal  3.673016e-01  9.301019e-01  0.000000e+00
   outer loop
     vertex  1.303202e+02  3.781754e+02  1.024000e+03
     vertex  1.632334e+02  3.651778e+02  7.240000e+02
     vertex  1.303202e+02  3.781754e+02  7.240000e+02
   endloop
 endfacet
 facet normal  2.836618e-01  9.589244e-01  0.000000e+00
   outer loop
     vertex  9.638708e+01  3.882133e+02  1.024000e+03
     vertex  1.303202e+02  3.781754e+02  1.024000e+03
     vertex  1.303202e+02  3.781754e+02  7.240000e+02
   endloop
 endfacet
 facet normal  2.836618e-01  9.589244e-01  0.000000e+00
   outer loop
     vertex  9.638708e+01  3.882133e+02  1.024000e+03
     vertex  1.303202e+02  3.781754e+02  7.240000e+02
     vertex  9.638708e+01  3.882133e+02  7.240000e+02
   endloop
 endfacet
 facet normal  1.978019e-01  9.802420e-01  0.000000e+00
   outer loop
     vertex  6.169957e+01  3.952128e+02  1.024000e+03
     vertex  9.638708e+01  3.882133e+02  1.024000e+03
     vertex  9.638708e+01  3.882133e+02  7.240000e+02
   endloop
 endfacet
 facet normal  1.978019e-01  9.802420e-01  0.000000e+00
   outer loop
     vertex  6.169957e+01  3.952128e+02  1.024000e+03
     vertex  9.638708e+01  3.882133e+02  7.240000e+02
     vertex  6.169957e+01  3.952128e+02  7.240000e+02
   endloop
 endfacet
 facet normal  1.103940e-01  9.938879e-01  0.000000e+00
   outer loop
     vertex  2.652918e+01  3.991193e+02  1.024000e+03
     vertex  6.169957e+01  3.952128e+02  1.024000e+03
     vertex  6.169957e+01  3.952128e+02  7.240000e+02
   endloop
 endfacet
 facet normal  1.103940e-01  9.938879e-01  0.000000e+00
   outer loop
     vertex  2.652918e+01  3.991193e+02  1.024000e+03
     vertex  6.169957e+01  3.952128e+02  7.240000e+02
     vertex  2.652918e+01  3.991193e+02  7.240000e+02
   endloop
 endfacet
 facet normal  2.212209e-02  9.997553e-01  0.000000e+00
   outer loop
     vertex -8.848835e+00  3.999021e+02  1.024000e+03
     vertex  2.652918e+01  3.991193e+02  1.024000e+03
     vertex  2.652918e+01  3.991193e+02  7.240000e+02
   endloop
 endfacet
 facet normal  2.212209e-02  9.997553e-01  0.000000e+00
   outer loop
     vertex -8.848835e+00  3.999021e+02  1.024000e+03
     vertex  2.652918e+01  3.991193e+02  7.240000e+02
     vertex -8.848835e+00  3.999021e+02  7.240000e+02
   endloop
 endfacet
 facet normal -6.632296e-02  9.977982e-01  0.000000e+00
   outer loop
     vertex -8.848835e+00  3.999021e+02  1.024000e+03
     vertex -8.848835e+00  3.999021e+02  7.240000e+02
     vertex -4.415760e+01  3.975552e+02  7.240000e+02
   endloop
 endfacet
 facet normal -6.632296e-02  9.977982e-01  0.000000e+00
   outer loop
     vertex -4.415760e+01  3.975552e+02  1.024000e+03
     vertex -8.848835e+00  3.999021e+02  1.024000e+03
     vertex -4.415760e+01  3.975552e+02  7.240000e+02
   endloop
 endfacet
 facet normal -1.542489e-01  9.880320e-01  0.000000e+00
   outer loop
     vertex -7.912077e+01  3.920968e+02  1.024000e+03
     vertex -4.415760e+01  3.975552e+02  1.024000e+03
     vertex -4.415760e+01  3.975552e+02  7.240000e+02
   endloop
 endfacet
 facet normal -1.542489e-01  9.880320e-01  0.000000e+00
   outer loop
     vertex -7.912077e+01  3.920968e+02  1.024000e+03
     vertex -4.415760e+01  3.975552e+02  7.240000e+02
     vertex -7.912077e+01  3.920968e+02  7.240000e+02
   endloop
 endfacet
 facet normal -2.409677e-01  9.705331e-01  0.000000e+00
   outer loop
     vertex -1.134647e+02  3.835698e+02  1.024000e+03
     vertex -7.912077e+01  3.920968e+02  1.024000e+03
     vertex -7.912077e+01  3.920968e+02  7.240000e+02
   endloop
 endfacet
 facet normal -2.409677e-01  9.705331e-01  0.000000e+00
   outer loop
     vertex -1.134647e+02  3.835698e+02  1.024000e+03
     vertex -7.912077e+01  3.920968e+02  7.240000e+02
     vertex -1.134647e+02  3.835698e+02  7.240000e+02
   endloop
 endfacet
 facet normal -3.258006e-01  9.454385e-01  0.000000e+00
   outer loop
     vertex -1.469206e+02  3.720408e+02  1.024000e+03
     vertex -1.134647e+02  3.835698e+02  1.024000e+03
     vertex -1.134647e+02  3.835698e+02  7.240000e+02
   endloop
 endfacet
 facet normal -3.258006e-01  9.454385e-01  0.000000e+00
   outer loop
     vertex -1.469206e+02  3.720408e+02  1.024000e+03
     vertex -1.134647e+02  3.835698e+02  7.240000e+02
     vertex -1.469206e+02  3.720408e+02  7.240000e+02
   endloop
 endfacet
 facet normal -4.080836e-01  9.129446e-01  0.000000e+00
   outer loop
     vertex -1.469206e+02  3.720408e+02  1.024000e+03
     vertex -1.469206e+02  3.720408e+02  7.240000e+02
     vertex -1.792267e+02  3.576000e+02  7.240000e+02
   endloop
 endfacet
 facet normal -4.080836e-01  9.129446e-01  0.000000e+00
   outer loop
     vertex -1.792267e+02  3.576000e+02  1.024000e+03
     vertex -1.469206e+02  3.720408e+02  1.024000e+03
     vertex -1.792267e+02  3.576000e+02  7.240000e+02
   endloop
 endfacet
 facet normal -4.871728e-01  8.733056e-01  0.000000e+00
   outer loop
     vertex -2.101301e+02  3.403606e+02  1.024000e+03
     vertex -1.792267e+02  3.576000e+02  1.024000e+03
     vertex -1.792267e+02  3.576000e+02  7.240000e+02
   endloop
 endfacet
 facet normal -4.871728e-01  8.733056e-01  0.000000e+00
   outer loop
     vertex -2.101301e+02  3.403606e+02  1.024000e+03
     vertex -1.792267e+02  3.576000e+02  7.240000e+02
     vertex -2.101301e+02  3.403606e+02  7.240000e+02
   endloop
 endfacet
 facet normal -5.624493e-01  8.268318e-01  0.000000e+00
   outer loop
     vertex -2.393889e+02  3.204574e+02  1.024000e+03
     vertex -2.101301e+02  3.403606e+02  1.024000e+03
     vertex -2.101301e+02  3.403606e+02  7.240000e+02
   endloop
 endfacet
 facet normal -5.624493e-01  8.268318e-01  0.000000e+00
   outer loop
     vertex -2.393889e+02  3.204574e+02  1.024000e+03
     vertex -2.101301e+02  3.403606e+02  7.240000e+02
     vertex -2.393889e+02  3.204574e+02  7.240000e+02
   endloop
 endfacet
 facet normal -6.333238e-01  7.738869e-01  0.000000e+00
   outer loop
     vertex -2.667742e+02  2.980462e+02  1.024000e+03
     vertex -2.393889e+02  3.204574e+02  1.024000e+03
     vertex -2.393889e+02  3.204574e+02  7.240000e+02
   endloop
 endfacet
 facet normal -6.333238e-01  7.738869e-01  0.000000e+00
   outer loop
     vertex -2.667742e+02  2.980462e+02  1.024000e+03
     vertex -2.393889e+02  3.204574e+02  7.240000e+02
     vertex -2.667742e+02  2.980462e+02  7.240000e+02
   endloop
 endfacet
 facet normal -6.992417e-01  7.148853e-01  0.000000e+00
   outer loop
     vertex -2.920716e+02  2.733023e+02  1.024000e+03
     vertex -2.667742e+02  2.980462e+02  1.024000e+03
     vertex -2.667742e+02  2.980462e+02  7.240000e+02
   endloop
 endfacet
 facet normal -6.992417e-01  7.148853e-01  0.000000e+00
   outer loop
     vertex -2.920716e+02  2.733023e+02  1.024000e+03
     vertex -2.667742e+02  2.980462e+02  7.240000e+02
     vertex -2.920716e+02  2.733023e+02  7.240000e+02
   endloop
 endfacet
 facet normal -8.141869e-01  5.806029e-01  0.000000e+00
   outer loop
     vertex -3.150832e+02  2.464195e+02  1.024000e+03
     vertex -3.150832e+02  2.464195e+02  7.240000e+02
     vertex -3.356288e+02  2.176082e+02  7.240000e+02
   endloop
 endfacet
 facet normal -7.596871e-01  6.502888e-01  0.000000e+00
   outer loop
     vertex -3.150832e+02  2.464195e+02  1.024000e+03
     vertex -2.920716e+02  2.733023e+02  1.024000e+03
     vertex -2.920716e+02  2.733023e+02  7.240000e+02
   endloop
 endfacet
 facet normal -7.596871e-01  6.502888e-01  0.000000e+00
   outer loop
     vertex -3.150832e+02  2.464195e+02  1.024000e+03
     vertex -2.920716e+02  2.733023e+02  7.240000e+02
     vertex -3.150832e+02  2.464195e+02  7.240000e+02
   endloop
 endfacet
 facet normal -8.141869e-01  5.806029e-01  0.000000e+00
   outer loop
     vertex -3.356288e+02  2.176082e+02  1.024000e+03
     vertex -3.150832e+02  2.464195e+02  1.024000e+03
     vertex -3.356288e+02  2.176082e+02  7.240000e+02
   endloop
 endfacet
 facet normal -8.623146e-01  5.063730e-01  0.000000e+00
   outer loop
     vertex -3.535477e+02  1.870937e+02  1.024000e+03
     vertex -3.356288e+02  2.176082e+02  7.240000e+02
     vertex -3.535477e+02  1.870937e+02  7.240000e+02
   endloop
 endfacet
 facet normal -8.623146e-01  5.063730e-01  0.000000e+00
   outer loop
     vertex -3.535477e+02  1.870937e+02  1.024000e+03
     vertex -3.356288e+02  2.176082e+02  1.024000e+03
     vertex -3.356288e+02  2.176082e+02  7.240000e+02
   endloop
 endfacet
 facet normal -9.036935e-01  4.281800e-01  0.000000e+00
   outer loop
     vertex -3.686995e+02  1.551150e+02  1.024000e+03
     vertex -3.535477e+02  1.870937e+02  7.240000e+02
     vertex -3.686995e+02  1.551150e+02  7.240000e+02
   endloop
 endfacet
 facet normal -9.379998e-01  3.466359e-01  0.000000e+00
   outer loop
     vertex -3.686995e+02  1.551150e+02  1.024000e+03
     vertex -3.686995e+02  1.551150e+02  7.240000e+02
     vertex -3.809658e+02  1.219223e+02  7.240000e+02
   endloop
 endfacet
 facet normal -9.036935e-01  4.281800e-01  0.000000e+00
   outer loop
     vertex -3.686995e+02  1.551150e+02  1.024000e+03
     vertex -3.535477e+02  1.870937e+02  1.024000e+03
     vertex -3.535477e+02  1.870937e+02  7.240000e+02
   endloop
 endfacet
 facet normal -9.379998e-01  3.466359e-01  0.000000e+00
   outer loop
     vertex -3.809658e+02  1.219223e+02  1.024000e+03
     vertex -3.686995e+02  1.551150e+02  1.024000e+03
     vertex -3.809658e+02  1.219223e+02  7.240000e+02
   endloop
 endfacet
 facet normal -9.649649e-01  2.623790e-01  0.000000e+00
   outer loop
     vertex -3.902505e+02  8.777541e+01  1.024000e+03
     vertex -3.809658e+02  1.219223e+02  7.240000e+02
     vertex -3.902505e+02  8.777541e+01  7.240000e+02
   endloop
 endfacet
 facet normal -9.843779e-01  1.760685e-01  0.000000e+00
   outer loop
     vertex -3.902505e+02  8.777541e+01  1.024000e+03
     vertex -3.902505e+02  8.777541e+01  7.240000e+02
     vertex -3.964810e+02  5.294154e+01  7.240000e+02
   endloop
 endfacet
 facet normal -9.649649e-01  2.623790e-01  0.000000e+00
   outer loop
     vertex -3.902505e+02  8.777541e+01  1.024000e+03
     vertex -3.809658e+02  1.219223e+02  1.024000e+03
     vertex -3.809658e+02  1.219223e+02  7.240000e+02
   endloop
 endfacet
 facet normal -9.843779e-01  1.760685e-01  0.000000e+00
   outer loop
     vertex -3.964810e+02  5.294154e+01  1.024000e+03
     vertex -3.902505e+02  8.777541e+01  1.024000e+03
     vertex -3.964810e+02  5.294154e+01  7.240000e+02
   endloop
 endfacet
 facet normal -9.960868e-01  8.838010e-02  0.000000e+00
   outer loop
     vertex -3.996085e+02  1.769334e+01  1.024000e+03
     vertex -3.964810e+02  5.294154e+01  7.240000e+02
     vertex -3.996085e+02  1.769334e+01  7.240000e+02
   endloop
 endfacet
 facet normal -1.000000e+00 -3.212702e-15 -0.000000e+00
   outer loop
     vertex -3.996085e+02  1.769334e+01  1.024000e+03
     vertex -3.996085e+02  1.769334e+01  7.240000e+02
     vertex -3.996085e+02 -1.769334e+01  7.240000e+02
   endloop
 endfacet
 facet normal -9.960868e-01  8.838010e-02  0.000000e+00
   outer loop
     vertex -3.996085e+02  1.769334e+01  1.024000e+03
     vertex -3.964810e+02  5.294154e+01  1.024000e+03
     vertex -3.964810e+02  5.294154e+01  7.240000e+02
   endloop
 endfacet
 facet normal -1.000000e+00 -3.212702e-15 -0.000000e+00
   outer loop
     vertex -3.996085e+02 -1.769334e+01  1.024000e+03
     vertex -3.996085e+02  1.769334e+01  1.024000e+03
     vertex -3.996085e+02 -1.769334e+01  7.240000e+02
   endloop
 endfacet
 facet normal -9.960868e-01 -8.838010e-02 -0.000000e+00
   outer loop
     vertex -3.964810e+02 -5.294154e+01  1.024000e+03
     vertex -3.996085e+02 -1.769334e+01  7.240000e+02
     vertex -3.964810e+02 -5.294154e+01  7.240000e+02
   endloop
 endfacet
 facet normal -9.843779e-01 -1.760685e-01 -0.000000e+00
   outer loop
     vertex -3.964810e+02 -5.294154e+01  1.024000e+03
     vertex -3.964810e+02 -5.294154e+01  7.240000e+02
     vertex -3.902505e+02 -8.777541e+01  7.240000e+02
   endloop
 endfacet
 facet normal -9.960868e-01 -8.838010e-02  0.000000e+00
   outer loop
     vertex -3.964810e+02 -5.294154e+01  1.024000e+03
     vertex -3.996085e+02 -1.769334e+01  1.024000e+03
     vertex -3.996085e+02 -1.769334e+01  7.240000e+02
   endloop
 endfacet
 facet normal -9.843779e-01 -1.760685e-01 -0.000000e+00
   outer loop
     vertex -3.902505e+02 -8.777541e+01  1.024000e+03
     vertex -3.964810e+02 -5.294154e+01  1.024000e+03
     vertex -3.902505e+02 -8.777541e+01  7.240000e+02
   endloop
 endfacet
 facet normal -9.649649e-01 -2.623790e-01  0.000000e+00
   outer loop
     vertex -3.809658e+02 -1.219223e+02  1.024000e+03
     vertex -3.902505e+02 -8.777541e+01  1.024000e+03
     vertex -3.902505e+02 -8.777541e+01  7.240000e+02
   endloop
 endfacet
 facet normal -9.649649e-01 -2.623790e-01 -0.000000e+00
   outer loop
     vertex -3.809658e+02 -1.219223e+02  1.024000e+03
     vertex -3.902505e+02 -8.777541e+01  7.240000e+02
     vertex -3.809658e+02 -1.219223e+02  7.240000e+02
   endloop
 endfacet
 facet normal -9.379998e-01 -3.466359e-01  0.000000e+00
   outer loop
     vertex -3.686995e+02 -1.551150e+02  1.024000e+03
     vertex -3.809658e+02 -1.219223e+02  1.024000e+03
     vertex -3.809658e+02 -1.219223e+02  7.240000e+02
   endloop
 endfacet
 facet normal -9.379998e-01 -3.466359e-01 -0.000000e+00
   outer loop
     vertex -3.686995e+02 -1.551150e+02  1.024000e+03
     vertex -3.809658e+02 -1.219223e+02  7.240000e+02
     vertex -3.686995e+02 -1.551150e+02  7.240000e+02
   endloop
 endfacet
 facet normal -9.036935e-01 -4.281800e-01  0.000000e+00
   outer loop
     vertex -3.535477e+02 -1.870937e+02  1.024000e+03
     vertex -3.686995e+02 -1.551150e+02  1.024000e+03
     vertex -3.686995e+02 -1.551150e+02  7.240000e+02
   endloop
 endfacet
 facet normal -9.036935e-01 -4.281800e-01 -0.000000e+00
   outer loop
     vertex -3.535477e+02 -1.870937e+02  1.024000e+03
     vertex -3.686995e+02 -1.551150e+02  7.240000e+02
     vertex -3.535477e+02 -1.870937e+02  7.240000e+02
   endloop
 endfacet
 facet normal -8.623146e-01 -5.063730e-01 -0.000000e+00
   outer loop
     vertex -3.535477e+02 -1.870937e+02  1.024000e+03
     vertex -3.535477e+02 -1.870937e+02  7.240000e+02
     vertex -3.356288e+02 -2.176082e+02  7.240000e+02
   endloop
 endfacet
 facet normal -8.623146e-01 -5.063730e-01 -0.000000e+00
   outer loop
     vertex -3.356288e+02 -2.176082e+02  1.024000e+03
     vertex -3.535477e+02 -1.870937e+02  1.024000e+03
     vertex -3.356288e+02 -2.176082e+02  7.240000e+02
   endloop
 endfacet
 facet normal -8.141869e-01 -5.806029e-01 -0.000000e+00
   outer loop
     vertex -3.150832e+02 -2.464195e+02  1.024000e+03
     vertex -3.356288e+02 -2.176082e+02  7.240000e+02
     vertex -3.150832e+02 -2.464195e+02  7.240000e+02
   endloop
 endfacet
 facet normal -8.141869e-01 -5.806029e-01  0.000000e+00
   outer loop
     vertex -3.150832e+02 -2.464195e+02  1.024000e+03
     vertex -3.356288e+02 -2.176082e+02  1.024000e+03
     vertex -3.356288e+02 -2.176082e+02  7.240000e+02
   endloop
 endfacet
 facet normal -7.596871e-01 -6.502888e-01 -0.000000e+00
   outer loop
     vertex -2.920716e+02 -2.733023e+02  1.024000e+03
     vertex -3.150832e+02 -2.464195e+02  7.240000e+02
     vertex -2.920716e+02 -2.733023e+02  7.240000e+02
   endloop
 endfacet
 facet normal -7.596871e-01 -6.502888e-01  0.000000e+00
   outer loop
     vertex -2.920716e+02 -2.733023e+02  1.024000e+03
     vertex -3.150832e+02 -2.464195e+02  1.024000e+03
     vertex -3.150832e+02 -2.464195e+02  7.240000e+02
   endloop
 endfacet
 facet normal -6.992417e-01 -7.148853e-01 -0.000000e+00
   outer loop
     vertex -2.667742e+02 -2.980462e+02  1.024000e+03
     vertex -2.920716e+02 -2.733023e+02  7.240000e+02
     vertex -2.667742e+02 -2.980462e+02  7.240000e+02
   endloop
 endfacet
 facet normal -6.333238e-01 -7.738869e-01 -0.000000e+00
   outer loop
     vertex -2.667742e+02 -2.980462e+02  1.024000e+03
     vertex -2.667742e+02 -2.980462e+02  7.240000e+02
     vertex -2.393889e+02 -3.204574e+02  7.240000e+02
   endloop
 endfacet
 facet normal -6.992417e-01 -7.148853e-01  0.000000e+00
   outer loop
     vertex -2.667742e+02 -2.980462e+02  1.024000e+03
     vertex -2.920716e+02 -2.733023e+02  1.024000e+03
     vertex -2.920716e+02 -2.733023e+02  7.240000e+02
   endloop
 endfacet
 facet normal -5.624493e-01 -8.268318e-01 -0.000000e+00
   outer loop
     vertex -2.393889e+02 -3.204574e+02  1.024000e+03
     vertex -2.393889e+02 -3.204574e+02  7.240000e+02
     vertex -2.101301e+02 -3.403606e+02  7.240000e+02
   endloop
 endfacet
 facet normal -6.333238e-01 -7.738869e-01 -0.000000e+00
   outer loop
     vertex -2.393889e+02 -3.204574e+02  1.024000e+03
     vertex -2.667742e+02 -2.980462e+02  1.024000e+03
     vertex -2.393889e+02 -3.204574e+02  7.240000e+02
   endloop
 endfacet
 facet normal -5.624493e-01 -8.268318e-01 -0.000000e+00
   outer loop
     vertex -2.101301e+02 -3.403606e+02  1.024000e+03
     vertex -2.393889e+02 -3.204574e+02  1.024000e+03
     vertex -2.101301e+02 -3.403606e+02  7.240000e+02
   endloop
 endfacet
 facet normal -4.871728e-01 -8.733056e-01 -0.000000e+00
   outer loop
     vertex -1.792267e+02 -3.576000e+02  1.024000e+03
     vertex -2.101301e+02 -3.403606e+02  7.240000e+02
     vertex -1.792267e+02 -3.576000e+02  7.240000e+02
   endloop
 endfacet
 facet normal -4.871728e-01 -8.733056e-01  0.000000e+00
   outer loop
     vertex -1.792267e+02 -3.576000e+02  1.024000e+03
     vertex -2.101301e+02 -3.403606e+02  1.024000e+03
     vertex -2.101301e+02 -3.403606e+02  7.240000e+02
   endloop
 endfacet
 facet normal -4.080836e-01 -9.129446e-01 -0.000000e+00
   outer loop
     vertex -1.469206e+02 -3.720408e+02  1.024000e+03
     vertex -1.792267e+02 -3.576000e+02  7.240000e+02
     vertex -1.469206e+02 -3.720408e+02  7.240000e+02
   endloop
 endfacet
 facet normal -4.080836e-01 -9.129446e-01  0.000000e+00
   outer loop
     vertex -1.469206e+02 -3.720408e+02  1.024000e+03
     vertex -1.792267e+02 -3.576000e+02  1.024000e+03
     vertex -1.792267e+02 -3.576000e+02  7.240000e+02
   endloop
 endfacet
 facet normal -3.258006e-01 -9.454385e-01 -0.000000e+00
   outer loop
     vertex -1.134647e+02 -3.835698e+02  1.024000e+03
     vertex -1.469206e+02 -3.720408e+02  7.240000e+02
     vertex -1.134647e+02 -3.835698e+02  7.240000e+02
   endloop
 endfacet
 facet normal -2.409677e-01 -9.705331e-01 -0.000000e+00
   outer loop
     vertex -1.134647e+02 -3.835698e+02  1.024000e+03
     vertex -1.134647e+02 -3.835698e+02  7.240000e+02
     vertex -7.912077e+01 -3.920968e+02  7.240000e+02
   endloop
 endfacet
 facet normal -3.258006e-01 -9.454385e-01  0.000000e+00
   outer loop
     vertex -1.134647e+02 -3.835698e+02  1.024000e+03
     vertex -1.469206e+02 -3.720408e+02  1.024000e+03
     vertex -1.469206e+02 -3.720408e+02  7.240000e+02
   endloop
 endfacet
 facet normal -1.542489e-01 -9.880320e-01 -0.000000e+00
   outer loop
     vertex -7.912077e+01 -3.920968e+02  1.024000e+03
     vertex -7.912077e+01 -3.920968e+02  7.240000e+02
     vertex -4.415760e+01 -3.975552e+02  7.240000e+02
   endloop
 endfacet
 facet normal -2.409677e-01 -9.705331e-01 -0.000000e+00
   outer loop
     vertex -7.912077e+01 -3.920968e+02  1.024000e+03
     vertex -1.134647e+02 -3.835698e+02  1.024000e+03
     vertex -7.912077e+01 -3.920968e+02  7.240000e+02
   endloop
 endfacet
 facet normal -1.542489e-01 -9.880320e-01 -0.000000e+00
   outer loop
     vertex -4.415760e+01 -3.975552e+02  1.024000e+03
     vertex -7.912077e+01 -3.920968e+02  1.024000e+03
     vertex -4.415760e+01 -3.975552e+02  7.240000e+02
   endloop
 endfacet
 facet normal -6.632296e-02 -9.977982e-01 -0.000000e+00
   outer loop
     vertex -8.848835e+00 -3.999021e+02  1.024000e+03
     vertex -4.415760e+01 -3.975552e+02  7.240000e+02
     vertex -8.848835e+00 -3.999021e+02  7.240000e+02
   endloop
 endfacet
 facet normal -6.632296e-02 -9.977982e-01  0.000000e+00
   outer loop
     vertex -8.848835e+00 -3.999021e+02  1.024000e+03
     vertex -4.415760e+01 -3.975552e+02  1.024000e+03
     vertex -4.415760e+01 -3.975552e+02  7.240000e+02
   endloop
 endfacet
 facet normal  2.212209e-02 -9.997553e-01  0.000000e+00
   outer loop
     vertex  2.652918e+01 -3.991193e+02  1.024000e+03
     vertex -8.848835e+00 -3.999021e+02  7.240000e+02
     vertex  2.652918e+01 -3.991193e+02  7.240000e+02
   endloop
 endfacet
 facet normal  2.212209e-02 -9.997553e-01  0.000000e+00
   outer loop
     vertex  2.652918e+01 -3.991193e+02  1.024000e+03
     vertex -8.848835e+00 -3.999021e+02  1.024000e+03
     vertex -8.848835e+00 -3.999021e+02  7.240000e+02
   endloop
 endfacet
 facet normal  1.103940e-01 -9.938879e-01  0.000000e+00
   outer loop
     vertex  6.169957e+01 -3.952128e+02  1.024000e+03
     vertex  2.652918e+01 -3.991193e+02  7.240000e+02
     vertex  6.169957e+01 -3.952128e+02  7.240000e+02
   endloop
 endfacet
 facet normal  1.978019e-01 -9.802420e-01  0.000000e+00
   outer loop
     vertex  6.169957e+01 -3.952128e+02  1.024000e+03
     vertex  6.169957e+01 -3.952128e+02  7.240000e+02
     vertex  9.638708e+01 -3.882133e+02  7.240000e+02
   endloop
 endfacet
 facet normal  1.103940e-01 -9.938879e-01  0.000000e+00
   outer loop
     vertex  6.169957e+01 -3.952128e+02  1.024000e+03
     vertex  2.652918e+01 -3.991193e+02  1.024000e+03
     vertex  2.652918e+01 -3.991193e+02  7.240000e+02
   endloop
 endfacet
 facet normal  1.978019e-01 -9.802420e-01  0.000000e+00
   outer loop
     vertex  9.638708e+01 -3.882133e+02  1.024000e+03
     vertex  6.169957e+01 -3.952128e+02  1.024000e+03
     vertex  9.638708e+01 -3.882133e+02  7.240000e+02
   endloop
 endfacet
 facet normal  2.836618e-01 -9.589244e-01  0.000000e+00
   outer loop
     vertex  1.303202e+02 -3.781754e+02  1.024000e+03
     vertex  9.638708e+01 -3.882133e+02  7.240000e+02
     vertex  1.303202e+02 -3.781754e+02  7.240000e+02
   endloop
 endfacet
 facet normal  2.836618e-01 -9.589244e-01  0.000000e+00
   outer loop
     vertex  1.303202e+02 -3.781754e+02  1.024000e+03
     vertex  9.638708e+01 -3.882133e+02  1.024000e+03
     vertex  9.638708e+01 -3.882133e+02  7.240000e+02
   endloop
 endfacet
 facet normal  3.673016e-01 -9.301019e-01  0.000000e+00
   outer loop
     vertex  1.632334e+02 -3.651778e+02  1.024000e+03
     vertex  1.303202e+02 -3.781754e+02  7.240000e+02
     vertex  1.632334e+02 -3.651778e+02  7.240000e+02
   endloop
 endfacet
 facet normal  3.673016e-01 -9.301019e-01  0.000000e+00
   outer loop
     vertex  1.632334e+02 -3.651778e+02  1.024000e+03
     vertex  1.303202e+02 -3.781754e+02  1.024000e+03
     vertex  1.303202e+02 -3.781754e+02  7.240000e+02
   endloop
 endfacet
 facet normal  4.480668e-01 -8.940001e-01  0.000000e+00
   outer loop
     vertex  1.948691e+02 -3.493222e+02  1.024000e+03
     vertex  1.632334e+02 -3.651778e+02  7.240000e+02
     vertex  1.948691e+02 -3.493222e+02  7.240000e+02
   endloop
 endfacet
 facet normal  5.253252e-01 -8.509015e-01  0.000000e+00
   outer loop
     vertex  1.948691e+02 -3.493222e+02  1.024000e+03
     vertex  1.948691e+02 -3.493222e+02  7.240000e+02
     vertex  2.249797e+02 -3.307327e+02  7.240000e+02
   endloop
 endfacet
 facet normal  4.480668e-01 -8.940001e-01  0.000000e+00
   outer loop
     vertex  1.948691e+02 -3.493222e+02  1.024000e+03
     vertex  1.632334e+02 -3.651778e+02  1.024000e+03
     vertex  1.632334e+02 -3.651778e+02  7.240000e+02
   endloop
 endfacet
 facet normal  5.984723e-01 -8.011435e-01  0.000000e+00
   outer loop
     vertex  2.249797e+02 -3.307327e+02  1.024000e+03
     vertex  2.249797e+02 -3.307327e+02  7.240000e+02
     vertex  2.533295e+02 -3.095548e+02  7.240000e+02
   endloop
 endfacet
 facet normal  5.253252e-01 -8.509015e-01  0.000000e+00
   outer loop
     vertex  2.249797e+02 -3.307327e+02  1.024000e+03
     vertex  1.948691e+02 -3.493222e+02  1.024000e+03
     vertex  2.249797e+02 -3.307327e+02  7.240000e+02
   endloop
 endfacet
 facet normal  6.669355e-01 -7.451154e-01  0.000000e+00
   outer loop
     vertex  2.533295e+02 -3.095548e+02  1.024000e+03
     vertex  2.533295e+02 -3.095548e+02  7.240000e+02
     vertex  2.796967e+02 -2.859541e+02  7.240000e+02
   endloop
 endfacet
 facet normal  5.984723e-01 -8.011435e-01  0.000000e+00
   outer loop
     vertex  2.533295e+02 -3.095548e+02  1.024000e+03
     vertex  2.249797e+02 -3.307327e+02  1.024000e+03
     vertex  2.533295e+02 -3.095548e+02  7.240000e+02
   endloop
 endfacet
 facet normal  6.669355e-01 -7.451154e-01  0.000000e+00
   outer loop
     vertex  2.796967e+02 -2.859541e+02  1.024000e+03
     vertex  2.533295e+02 -3.095548e+02  1.024000e+03
     vertex  2.796967e+02 -2.859541e+02  7.240000e+02
   endloop
 endfacet
 facet normal  7.301791e-01 -6.832558e-01  0.000000e+00
   outer loop
     vertex  3.038748e+02 -2.601155e+02  1.024000e+03
     vertex  2.796967e+02 -2.859541e+02  7.240000e+02
     vertex  3.038748e+02 -2.601155e+02  7.240000e+02
   endloop
 endfacet
 facet normal  7.877080e-01 -6.160488e-01  0.000000e+00
   outer loop
     vertex  3.038748e+02 -2.601155e+02  1.024000e+03
     vertex  3.038748e+02 -2.601155e+02  7.240000e+02
     vertex  3.256748e+02 -2.322412e+02  7.240000e+02
   endloop
 endfacet
 facet normal  7.301791e-01 -6.832558e-01  0.000000e+00
   outer loop
     vertex  3.038748e+02 -2.601155e+02  1.024000e+03
     vertex  2.796967e+02 -2.859541e+02  1.024000e+03
     vertex  2.796967e+02 -2.859541e+02  7.240000e+02
   endloop
 endfacet
 facet normal  7.877080e-01 -6.160488e-01  0.000000e+00
   outer loop
     vertex  3.256748e+02 -2.322412e+02  1.024000e+03
     vertex  3.038748e+02 -2.601155e+02  1.024000e+03
     vertex  3.256748e+02 -2.322412e+02  7.240000e+02
   endloop
 endfacet
 facet normal  8.390720e-01 -5.440204e-01  0.000000e+00
   outer loop
     vertex  3.449258e+02 -2.025492e+02  1.024000e+03
     vertex  3.256748e+02 -2.322412e+02  1.024000e+03
     vertex  3.256748e+02 -2.322412e+02  7.240000e+02
   endloop
 endfacet
 facet normal  8.390720e-01 -5.440204e-01  0.000000e+00
   outer loop
     vertex  3.449258e+02 -2.025492e+02  1.024000e+03
     vertex  3.256748e+02 -2.322412e+02  7.240000e+02
     vertex  3.449258e+02 -2.025492e+02  7.240000e+02
   endloop
 endfacet
 facet normal  8.838691e-01 -4.677343e-01  0.000000e+00
   outer loop
     vertex  3.614774e+02 -1.712720e+02  1.024000e+03
     vertex  3.449258e+02 -2.025492e+02  1.024000e+03
     vertex  3.449258e+02 -2.025492e+02  7.240000e+02
   endloop
 endfacet
 facet normal  8.838691e-01 -4.677343e-01  0.000000e+00
   outer loop
     vertex  3.614774e+02 -1.712720e+02  1.024000e+03
     vertex  3.449258e+02 -2.025492e+02  7.240000e+02
     vertex  3.614774e+02 -1.712720e+02  7.240000e+02
   endloop
 endfacet
 facet normal  9.217488e-01 -3.877875e-01  0.000000e+00
   outer loop
     vertex  3.614774e+02 -1.712720e+02  1.024000e+03
     vertex  3.614774e+02 -1.712720e+02  7.240000e+02
     vertex  3.751999e+02 -1.386544e+02  7.240000e+02
   endloop
 endfacet
 facet normal  9.217488e-01 -3.877875e-01  0.000000e+00
   outer loop
     vertex  3.751999e+02 -1.386544e+02  1.024000e+03
     vertex  3.614774e+02 -1.712720e+02  1.024000e+03
     vertex  3.751999e+02 -1.386544e+02  7.240000e+02
   endloop
 endfacet
 facet normal  9.524145e-01 -3.048058e-01  0.000000e+00
   outer loop
     vertex  3.859860e+02 -1.049516e+02  1.024000e+03
     vertex  3.751999e+02 -1.386544e+02  1.024000e+03
     vertex  3.751999e+02 -1.386544e+02  7.240000e+02
   endloop
 endfacet
 facet normal  9.524145e-01 -3.048058e-01  0.000000e+00
   outer loop
     vertex  3.859860e+02 -1.049516e+02  1.024000e+03
     vertex  3.751999e+02 -1.386544e+02  7.240000e+02
     vertex  3.859860e+02 -1.049516e+02  7.240000e+02
   endloop
 endfacet
 facet normal  9.756263e-01 -2.194385e-01  0.000000e+00
   outer loop
     vertex  3.859860e+02 -1.049516e+02  1.024000e+03
     vertex  3.859860e+02 -1.049516e+02  7.240000e+02
     vertex  3.937512e+02 -7.042741e+01  7.240000e+02
   endloop
 endfacet
 facet normal  9.756263e-01 -2.194385e-01  0.000000e+00
   outer loop
     vertex  3.937512e+02 -7.042741e+01  1.024000e+03
     vertex  3.859860e+02 -1.049516e+02  1.024000e+03
     vertex  3.937512e+02 -7.042741e+01  7.240000e+02
   endloop
 endfacet
 facet normal  9.912025e-01 -1.323539e-01  0.000000e+00
   outer loop
     vertex  3.937512e+02 -7.042741e+01  1.024000e+03
     vertex  3.937512e+02 -7.042741e+01  7.240000e+02
     vertex  3.984347e+02 -3.535204e+01  7.240000e+02
   endloop
 endfacet
 facet normal  9.912025e-01 -1.323539e-01  0.000000e+00
   outer loop
     vertex  3.984347e+02 -3.535204e+01  1.024000e+03
     vertex  3.937512e+02 -7.042741e+01  1.024000e+03
     vertex  3.984347e+02 -3.535204e+01  7.240000e+02
   endloop
 endfacet
 facet normal  9.990212e-01 -4.423335e-02  0.000000e+00
   outer loop
     vertex  4.000000e+02 -9.797174e-14  1.024000e+03
     vertex  3.984347e+02 -3.535204e+01  1.024000e+03
     vertex  3.984347e+02 -3.535204e+01  7.240000e+02
   endloop
 endfacet
 facet normal  9.990212e-01 -4.423335e-02  0.000000e+00
   outer loop
     vertex  4.000000e+02 -9.797174e-14  1.024000e+03
     vertex  3.984347e+02 -3.535204e+01  7.240000e+02
     vertex  4.000000e+02 -9.797174e-14  7.240000e+02
   endloop
 endfacet
 facet normal  0.000000e+00  0.000000e+00  1.000000e+00
   outer loop
     vertex -2.393889e+02 -3.204574e+02  1.024000e+03
     vertex -3.150832e+02 -2.464195e+02  1.024000e+03
     vertex -2.920716e+02 -2.733023e+02  1.024000e+03
   endloop
 endfacet
 facet normal  0.000000e+00  0.000000e+00  1.000000e+00
   outer loop
     vertex -2.393889e+02 -3.204574e+02  1.024000e+03
     vertex -2.920716e+02 -2.733023e+02  1.024000e+03
     vertex -2.667742e+02 -2.980462e+02  1.024000e+03
   endloop
 endfacet
 facet normal  0.000000e+00  0.000000e+00  1.000000e+00
   outer loop
     vertex -1.792267e+02 -3.576000e+02  1.024000e+03
     vertex -2.393889e+02 -3.204574e+02  1.024000e+03
     vertex -2.101301e+02 -3.403606e+02  1.024000e+03
   endloop
 endfacet
 facet normal  0.000000e+00  0.000000e+00  1.000000e+00
   outer loop
     vertex -1.469206e+02 -3.720408e+02  1.024000e+03
     vertex -3.150832e+02 -2.464195e+02  1.024000e+03
     vertex -2.393889e+02 -3.204574e+02  1.024000e+03
   endloop
 endfacet
 facet normal  0.000000e+00  0.000000e+00  1.000000e+00
   outer loop
     vertex -1.469206e+02 -3.720408e+02  1.024000e+03
     vertex -2.393889e+02 -3.204574e+02  1.024000e+03
     vertex -1.792267e+02 -3.576000e+02  1.024000e+03
   endloop
 endfacet
 facet normal  0.000000e+00  0.000000e+00  1.000000e+00
   outer loop
     vertex -3.809658e+02 -1.219223e+02  1.024000e+03
     vertex -3.686995e+02 -1.551150e+02  1.024000e+03
     vertex -3.535477e+02 -1.870937e+02  1.024000e+03
   endloop
 endfacet
 facet normal  0.000000e+00  0.000000e+00  1.000000e+00
   outer loop
     vertex -3.809658e+02 -1.219223e+02  1.024000e+03
     vertex -3.535477e+02 -1.870937e+02  1.024000e+03
     vertex -3.356288e+02 -2.176082e+02  1.024000e+03
   endloop
 endfacet
 facet normal  0.000000e+00  0.000000e+00  1.000000e+00
   outer loop
     vertex -3.809658e+02 -1.219223e+02  1.024000e+03
     vertex -3.356288e+02 -2.176082e+02  1.024000e+03
     vertex -3.150832e+02 -2.464195e+02  1.024000e+03
   endloop
 endfacet
 facet normal  0.000000e+00  0.000000e+00  1.000000e+00
   outer loop
     vertex -3.964810e+02 -5.294154e+01  1.024000e+03
     vertex -3.902505e+02 -8.777541e+01  1.024000e+03
     vertex -3.809658e+02 -1.219223e+02  1.024000e+03
   endloop
 endfacet
 facet normal  0.000000e+00  0.000000e+00  1.000000e+00
   outer loop
     vertex -4.415760e+01 -3.975552e+02  1.024000e+03
     vertex -1.134647e+02 -3.835698e+02  1.024000e+03
     vertex -7.912077e+01 -3.920968e+02  1.024000e+03
   endloop
 endfacet
 facet normal  0.000000e+00  0.000000e+00  1.000000e+00
   outer loop
     vertex -3.996085e+02 -1.769334e+01  1.024000e+03
     vertex -3.964810e+02 -5.294154e+01  1.024000e+03
     vertex -3.809658e+02 -1.219223e+02  1.024000e+03
   endloop
 endfacet
 facet normal  0.000000e+00  0.000000e+00  1.000000e+00
   outer loop
     vertex -8.848835e+00 -3.999021e+02  1.024000e+03
     vertex -1.469206e+02 -3.720408e+02  1.024000e+03
     vertex -1.134647e+02 -3.835698e+02  1.024000e+03
   endloop
 endfacet
 facet normal  0.000000e+00  0.000000e+00  1.000000e+00
   outer loop
     vertex -8.848835e+00 -3.999021e+02  1.024000e+03
     vertex -1.134647e+02 -3.835698e+02  1.024000e+03
     vertex -4.415760e+01 -3.975552e+02  1.024000e+03
   endloop
 endfacet
 facet normal  0.000000e+00  0.000000e+00  1.000000e+00
   outer loop
     vertex -8.848835e+00 -3.999021e+02  1.024000e+03
     vertex -3.150832e+02 -2.464195e+02  1.024000e+03
     vertex -1.469206e+02 -3.720408e+02  1.024000e+03
   endloop
 endfacet
 facet normal  0.000000e+00  0.000000e+00  1.000000e+00
   outer loop
     vertex -3.964810e+02  5.294154e+01  1.024000e+03
     vertex -3.996085e+02  1.769334e+01  1.024000e+03
     vertex -3.996085e+02 -1.769334e+01  1.024000e+03
   endloop
 endfacet
 facet normal  0.000000e+00  0.000000e+00  1.000000e+00
   outer loop
     vertex -3.902505e+02  8.777541e+01  1.024000e+03
     vertex -3.964810e+02  5.294154e+01  1.024000e+03
     vertex -3.996085e+02 -1.769334e+01  1.024000e+03
   endloop
 endfacet
 facet normal  0.000000e+00  0.000000e+00  1.000000e+00
   outer loop
     vertex  9.638708e+01 -3.882133e+02  1.024000e+03
     vertex -8.848835e+00 -3.999021e+02  1.024000e+03
     vertex  2.652918e+01 -3.991193e+02  1.024000e+03
   endloop
 endfacet
 facet normal  0.000000e+00  0.000000e+00  1.000000e+00
   outer loop
     vertex  9.638708e+01 -3.882133e+02  1.024000e+03
     vertex  2.652918e+01 -3.991193e+02  1.024000e+03
     vertex  6.169957e+01 -3.952128e+02  1.024000e+03
   endloop
 endfacet
 facet normal  0.000000e+00  0.000000e+00  1.000000e+00
   outer loop
     vertex  1.632334e+02 -3.651778e+02  1.024000e+03
     vertex  9.638708e+01 -3.882133e+02  1.024000e+03
     vertex  1.303202e+02 -3.781754e+02  1.024000e+03
   endloop
 endfacet
 facet normal  0.000000e+00  0.000000e+00  1.000000e+00
   outer loop
     vertex  1.948691e+02 -3.493222e+02  1.024000e+03
     vertex  9.638708e+01 -3.882133e+02  1.024000e+03
     vertex  1.632334e+02 -3.651778e+02  1.024000e+03
   endloop
 endfacet
 facet normal  0.000000e+00  0.000000e+00  1.000000e+00
   outer loop
     vertex -3.356288e+02  2.176082e+02  1.024000e+03
     vertex -3.535477e+02  1.870937e+02  1.024000e+03
     vertex -3.686995e+02  1.551150e+02  1.024000e+03
   endloop
 endfacet
 facet normal  0.000000e+00  0.000000e+00  1.000000e+00
   outer loop
     vertex -3.356288e+02  2.176082e+02  1.024000e+03
     vertex -3.686995e+02  1.551150e+02  1.024000e+03
     vertex -3.809658e+02  1.219223e+02  1.024000e+03
   endloop
 endfacet
 facet normal  0.000000e+00  0.000000e+00  1.000000e+00
   outer loop
     vertex  2.249797e+02 -3.307327e+02  1.024000e+03
     vertex  9.638708e+01 -3.882133e+02  1.024000e+03
     vertex  1.948691e+02 -3.493222e+02  1.024000e+03
   endloop
 endfacet
 facet normal  0.000000e+00  0.000000e+00  1.000000e+00
   outer loop
     vertex  2.533295e+02 -3.095548e+02  1.024000e+03
     vertex  9.638708e+01 -3.882133e+02  1.024000e+03
     vertex  2.249797e+02 -3.307327e+02  1.024000e+03
   endloop
 endfacet
 facet normal  0.000000e+00  0.000000e+00  1.000000e+00
   outer loop
     vertex -2.920716e+02  2.733023e+02  1.024000e+03
     vertex -3.996085e+02 -1.769334e+01  1.024000e+03
     vertex -3.809658e+02 -1.219223e+02  1.024000e+03
   endloop
 endfacet
 facet normal  0.000000e+00  0.000000e+00  1.000000e+00
   outer loop
     vertex -2.920716e+02  2.733023e+02  1.024000e+03
     vertex -3.150832e+02 -2.464195e+02  1.024000e+03
     vertex -8.848835e+00 -3.999021e+02  1.024000e+03
   endloop
 endfacet
 facet normal  0.000000e+00  0.000000e+00  1.000000e+00
   outer loop
     vertex -2.920716e+02  2.733023e+02  1.024000e+03
     vertex -3.902505e+02  8.777541e+01  1.024000e+03
     vertex -3.996085e+02 -1.769334e+01  1.024000e+03
   endloop
 endfacet
 facet normal  0.000000e+00  0.000000e+00  1.000000e+00
   outer loop
     vertex -2.920716e+02  2.733023e+02  1.024000e+03
     vertex -3.150832e+02  2.464195e+02  1.024000e+03
     vertex -3.356288e+02  2.176082e+02  1.024000e+03
   endloop
 endfacet
 facet normal  0.000000e+00  0.000000e+00  1.000000e+00
   outer loop
     vertex -2.920716e+02  2.733023e+02  1.024000e+03
     vertex -3.809658e+02  1.219223e+02  1.024000e+03
     vertex -3.902505e+02  8.777541e+01  1.024000e+03
   endloop
 endfacet
 facet normal  0.000000e+00  0.000000e+00  1.000000e+00
   outer loop
     vertex -2.920716e+02  2.733023e+02  1.024000e+03
     vertex -3.356288e+02  2.176082e+02  1.024000e+03
     vertex -3.809658e+02  1.219223e+02  1.024000e+03
   endloop
 endfacet
 facet normal  0.000000e+00  0.000000e+00  1.000000e+00
   outer loop
     vertex -2.920716e+02  2.733023e+02  1.024000e+03
     vertex -3.809658e+02 -1.219223e+02  1.024000e+03
     vertex -3.150832e+02 -2.464195e+02  1.024000e+03
   endloop
 endfacet
 facet normal  0.000000e+00  0.000000e+00  1.000000e+00
   outer loop
     vertex  2.796967e+02 -2.859541e+02  1.024000e+03
     vertex  9.638708e+01 -3.882133e+02  1.024000e+03
     vertex  2.533295e+02 -3.095548e+02  1.024000e+03
   endloop
 endfacet
 facet normal  0.000000e+00  0.000000e+00  1.000000e+00
   outer loop
     vertex  3.038748e+02 -2.601155e+02  1.024000e+03
     vertex -2.920716e+02  2.733023e+02  1.024000e+03
     vertex -8.848835e+00 -3.999021e+02  1.024000e+03
   endloop
 endfacet
 facet normal  0.000000e+00  0.000000e+00  1.000000e+00
   outer loop
     vertex  3.038748e+02 -2.601155e+02  1.024000e+03
     vertex -8.848835e+00 -3.999021e+02  1.024000e+03
     vertex  9.638708e+01 -3.882133e+02  1.024000e+03
   endloop
 endfacet
 facet normal  0.000000e+00  0.000000e+00  1.000000e+00
   outer loop
     vertex  3.038748e+02 -2.601155e+02  1.024000e+03
     vertex -2.667742e+02  2.980462e+02  1.024000e+03
     vertex -2.920716e+02  2.733023e+02  1.024000e+03
   endloop
 endfacet
 facet normal  0.000000e+00  0.000000e+00  1.000000e+00
   outer loop
     vertex  3.038748e+02 -2.601155e+02  1.024000e+03
     vertex  9.638708e+01 -3.882133e+02  1.024000e+03
     vertex  2.796967e+02 -2.859541e+02  1.024000e+03
   endloop
 endfacet
 facet normal  0.000000e+00  0.000000e+00  1.000000e+00
   outer loop
     vertex -1.792267e+02  3.576000e+02  1.024000e+03
     vertex -2.101301e+02  3.403606e+02  1.024000e+03
     vertex -2.393889e+02  3.204574e+02  1.024000e+03
   endloop
 endfacet
 facet normal  0.000000e+00  0.000000e+00  1.000000e+00
   outer loop
     vertex -1.792267e+02  3.576000e+02  1.024000e+03
     vertex -2.393889e+02  3.204574e+02  1.024000e+03
     vertex -2.667742e+02  2.980462e+02  1.024000e+03
   endloop
 endfacet
 facet normal  0.000000e+00  0.000000e+00  1.000000e+00
   outer loop
     vertex -1.792267e+02  3.576000e+02  1.024000e+03
     vertex -2.667742e+02  2.980462e+02  1.024000e+03
     vertex  3.038748e+02 -2.601155e+02  1.024000e+03
   endloop
 endfacet
 facet normal  0.000000e+00  0.000000e+00  1.000000e+00
   outer loop
     vertex  3.751999e+02 -1.386544e+02  1.024000e+03
     vertex  3.256748e+02 -2.322412e+02  1.024000e+03
     vertex  3.449258e+02 -2.025492e+02  1.024000e+03
   endloop
 endfacet
 facet normal  0.000000e+00  0.000000e+00  1.000000e+00
   outer loop
     vertex  3.751999e+02 -1.386544e+02  1.024000e+03
     vertex  3.449258e+02 -2.025492e+02  1.024000e+03
     vertex  3.614774e+02 -1.712720e+02  1.024000e+03
   endloop
 endfacet
 facet normal  0.000000e+00  0.000000e+00  1.000000e+00
   outer loop
     vertex -1.134647e+02  3.835698e+02  1.024000e+03
     vertex -1.469206e+02  3.720408e+02  1.024000e+03
     vertex -1.792267e+02  3.576000e+02  1.024000e+03
   endloop
 endfacet
 facet normal  0.000000e+00  0.000000e+00  1.000000e+00
   outer loop
     vertex  3.859860e+02 -1.049516e+02  1.024000e+03
     vertex -1.792267e+02  3.576000e+02  1.024000e+03
     vertex  3.038748e+02 -2.601155e+02  1.024000e+03
   endloop
 endfacet
 facet normal  0.000000e+00  0.000000e+00  1.000000e+00
   outer loop
     vertex  3.859860e+02 -1.049516e+02  1.024000e+03
     vertex  3.038748e+02 -2.601155e+02  1.024000e+03
     vertex  3.256748e+02 -2.322412e+02  1.024000e+03
   endloop
 endfacet
 facet normal  0.000000e+00  0.000000e+00  1.000000e+00
   outer loop
     vertex  3.859860e+02 -1.049516e+02  1.024000e+03
     vertex  3.256748e+02 -2.322412e+02  1.024000e+03
     vertex  3.751999e+02 -1.386544e+02  1.024000e+03
   endloop
 endfacet
 facet normal  0.000000e+00  0.000000e+00  1.000000e+00
   outer loop
     vertex  3.984347e+02 -3.535204e+01  1.024000e+03
     vertex  3.859860e+02 -1.049516e+02  1.024000e+03
     vertex  3.937512e+02 -7.042741e+01  1.024000e+03
   endloop
 endfacet
 facet normal  0.000000e+00  0.000000e+00  1.000000e+00
   outer loop
     vertex -8.848835e+00  3.999021e+02  1.024000e+03
     vertex -4.415760e+01  3.975552e+02  1.024000e+03
     vertex -7.912077e+01  3.920968e+02  1.024000e+03
   endloop
 endfacet
 facet normal  0.000000e+00  0.000000e+00  1.000000e+00
   outer loop
     vertex -8.848835e+00  3.999021e+02  1.024000e+03
     vertex -7.912077e+01  3.920968e+02  1.024000e+03
     vertex -1.134647e+02  3.835698e+02  1.024000e+03
   endloop
 endfacet
 facet normal  0.000000e+00  0.000000e+00  1.000000e+00
   outer loop
     vertex -8.848835e+00  3.999021e+02  1.024000e+03
     vertex -1.134647e+02  3.835698e+02  1.024000e+03
     vertex -1.792267e+02  3.576000e+02  1.024000e+03
   endloop
 endfacet
 facet normal  0.000000e+00  0.000000e+00  1.000000e+00
   outer loop
     vertex  6.169957e+01  3.952128e+02  1.024000e+03
     vertex  2.652918e+01  3.991193e+02  1.024000e+03
     vertex -8.848835e+00  3.999021e+02  1.024000e+03
   endloop
 endfacet
 facet normal  0.000000e+00  0.000000e+00  1.000000e+00
   outer loop
     vertex  6.169957e+01  3.952128e+02  1.024000e+03
     vertex -8.848835e+00  3.999021e+02  1.024000e+03
     vertex -1.792267e+02  3.576000e+02  1.024000e+03
   endloop
 endfacet
 facet normal  0.000000e+00  0.000000e+00  1.000000e+00
   outer loop
     vertex  3.937512e+02  7.042741e+01  1.024000e+03
     vertex  4.000000e+02 -9.797174e-14  1.024000e+03
     vertex  3.984347e+02  3.535204e+01  1.024000e+03
   endloop
 endfacet
 facet normal  0.000000e+00  0.000000e+00  1.000000e+00
   outer loop
     vertex  3.859860e+02  1.049516e+02  1.024000e+03
     vertex  3.984347e+02 -3.535204e+01  1.024000e+03
     vertex  4.000000e+02 -9.797174e-14  1.024000e+03
   endloop
 endfacet
 facet normal  0.000000e+00  0.000000e+00  1.000000e+00
   outer loop
     vertex  3.859860e+02  1.049516e+02  1.024000e+03
     vertex  4.000000e+02 -9.797174e-14  1.024000e+03
     vertex  3.937512e+02  7.042741e+01  1.024000e+03
   endloop
 endfacet
 facet normal  0.000000e+00  0.000000e+00  1.000000e+00
   outer loop
     vertex  1.632334e+02  3.651778e+02  1.024000e+03
     vertex  1.303202e+02  3.781754e+02  1.024000e+03
     vertex  9.638708e+01  3.882133e+02  1.024000e+03
   endloop
 endfacet
 facet normal  0.000000e+00  0.000000e+00  1.000000e+00
   outer loop
     vertex  1.632334e+02  3.651778e+02  1.024000e+03
     vertex  9.638708e+01  3.882133e+02  1.024000e+03
     vertex  6.169957e+01  3.952128e+02  1.024000e+03
   endloop
 endfacet
 facet normal  0.000000e+00  0.000000e+00  1.000000e+00
   outer loop
     vertex  3.614774e+02  1.712720e+02  1.024000e+03
     vertex  3.859860e+02  1.049516e+02  1.024000e+03
     vertex  3.751999e+02  1.386544e+02  1.024000e+03
   endloop
 endfacet
 facet normal  0.000000e+00  0.000000e+00  1.000000e+00
   outer loop
     vertex  3.614774e+02  1.712720e+02  1.024000e+03
     vertex  3.984347e+02 -3.535204e+01  1.024000e+03
     vertex  3.859860e+02  1.049516e+02  1.024000e+03
   endloop
 endfacet
 facet normal  0.000000e+00  0.000000e+00  1.000000e+00
   outer loop
     vertex  2.249797e+02  3.307327e+02  1.024000e+03
     vertex  1.948691e+02  3.493222e+02  1.024000e+03
     vertex  1.632334e+02  3.651778e+02  1.024000e+03
   endloop
 endfacet
 facet normal  0.000000e+00  0.000000e+00  1.000000e+00
   outer loop
     vertex  2.249797e+02  3.307327e+02  1.024000e+03
     vertex -1.792267e+02  3.576000e+02  1.024000e+03
     vertex  3.859860e+02 -1.049516e+02  1.024000e+03
   endloop
 endfacet
 facet normal  0.000000e+00  0.000000e+00  1.000000e+00
   outer loop
     vertex  2.249797e+02  3.307327e+02  1.024000e+03
     vertex  3.859860e+02 -1.049516e+02  1.024000e+03
     vertex  3.984347e+02 -3.535204e+01  1.024000e+03
   endloop
 endfacet
 facet normal  0.000000e+00  0.000000e+00  1.000000e+00
   outer loop
     vertex  2.249797e+02  3.307327e+02  1.024000e+03
     vertex  6.169957e+01  3.952128e+02  1.024000e+03
     vertex -1.792267e+02  3.576000e+02  1.024000e+03
   endloop
 endfacet
 facet normal  0.000000e+00  0.000000e+00  1.000000e+00
   outer loop
     vertex  2.249797e+02  3.307327e+02  1.024000e+03
     vertex  1.632334e+02  3.651778e+02  1.024000e+03
     vertex  6.169957e+01  3.952128e+02  1.024000e+03
   endloop
 endfacet
 facet normal  0.000000e+00  0.000000e+00  1.000000e+00
   outer loop
     vertex  3.256748e+02  2.322412e+02  1.024000e+03
     vertex  3.614774e+02  1.712720e+02  1.024000e+03
     vertex  3.449258e+02  2.025492e+02  1.024000e+03
   endloop
 endfacet
 facet normal  0.000000e+00  0.000000e+00  1.000000e+00
   outer loop
     vertex  3.038748e+02  2.601155e+02  1.024000e+03
     vertex  3.984347e+02 -3.535204e+01  1.024000e+03
     vertex  3.614774e+02  1.712720e+02  1.024000e+03
   endloop
 endfacet
 facet normal  0.000000e+00  0.000000e+00  1.000000e+00
   outer loop
     vertex  3.038748e+02  2.601155e+02  1.024000e+03
     vertex  2.533295e+02  3.095548e+02  1.024000e+03
     vertex  2.249797e+02  3.307327e+02  1.024000e+03
   endloop
 endfacet
 facet normal  0.000000e+00  0.000000e+00  1.000000e+00
   outer loop
     vertex  3.038748e+02  2.601155e+02  1.024000e+03
     vertex  2.249797e+02  3.307327e+02  1.024000e+03
     vertex  3.984347e+02 -3.535204e+01  1.024000e+03
   endloop
 endfacet
 facet normal  0.000000e+00  0.000000e+00  1.000000e+00
   outer loop
     vertex  3.038748e+02  2.601155e+02  1.024000e+03
     vertex  3.614774e+02  1.712720e+02  1.024000e+03
     vertex  3.256748e+02  2.322412e+02  1.024000e+03
   endloop
 endfacet
 facet normal  0.000000e+00  0.000000e+00  1.000000e+00
   outer loop
     vertex  2.796967e+02  2.859541e+02  1.024000e+03
     vertex  2.533295e+02  3.095548e+02  1.024000e+03
     vertex  3.038748e+02  2.601155e+02  1.024000e+03
   endloop
 endfacet
 facet normal  0.000000e+00  0.000000e+00 -1.000000e+00
   outer loop
     vertex -2.393889e+02 -3.204574e+02  7.240000e+02
     vertex -2.920716e+02 -2.733023e+02  7.240000e+02
     vertex -3.150832e+02 -2.464195e+02  7.240000e+02
   endloop
 endfacet
 facet normal  0.000000e+00  0.000000e+00 -1.000000e+00
   outer loop
     vertex -2.393889e+02 -3.204574e+02  7.240000e+02
     vertex -2.667742e+02 -2.980462e+02  7.240000e+02
     vertex -2.920716e+02 -2.733023e+02  7.240000e+02
   endloop
 endfacet
 facet normal  0.000000e+00  0.000000e+00 -1.000000e+00
   outer loop
     vertex -1.792267e+02 -3.576000e+02  7.240000e+02
     vertex -2.101301e+02 -3.403606e+02  7.240000e+02
     vertex -2.393889e+02 -3.204574e+02  7.240000e+02
   endloop
 endfacet
 facet normal  0.000000e+00  0.000000e+00 -1.000000e+00
   outer loop
     vertex -1.469206e+02 -3.720408e+02  7.240000e+02
     vertex -2.393889e+02 -3.204574e+02  7.240000e+02
     vertex -3.150832e+02 -2.464195e+02  7.240000e+02
   endloop
 endfacet
 facet normal  0.000000e+00  0.000000e+00 -1.000000e+00
   outer loop
     vertex -1.469206e+02 -3.720408e+02  7.240000e+02
     vertex -1.792267e+02 -3.576000e+02  7.240000e+02
     vertex -2.393889e+02 -3.204574e+02  7.240000e+02
   endloop
 endfacet
 facet normal  0.000000e+00  0.000000e+00 -1.000000e+00
   outer loop
     vertex -3.809658e+02 -1.219223e+02  7.240000e+02
     vertex -3.535477e+02 -1.870937e+02  7.240000e+02
     vertex -3.686995e+02 -1.551150e+02  7.240000e+02
   endloop
 endfacet
 facet normal  0.000000e+00  0.000000e+00 -1.000000e+00
   outer loop
     vertex -3.809658e+02 -1.219223e+02  7.240000e+02
     vertex -3.356288e+02 -2.176082e+02  7.240000e+02
     vertex -3.535477e+02 -1.870937e+02  7.240000e+02
   endloop
 endfacet
 facet normal  0.000000e+00  0.000000e+00 -1.000000e+00
   outer loop
     vertex -3.809658e+02 -1.219223e+02  7.240000e+02
     vertex -3.150832e+02 -2.464195e+02  7.240000e+02
     vertex -3.356288e+02 -2.176082e+02  7.240000e+02
   endloop
 endfacet
 facet normal  0.000000e+00  0.000000e+00 -1.000000e+00
   outer loop
     vertex -3.964810e+02 -5.294154e+01  7.240000e+02
     vertex -3.809658e+02 -1.219223e+02  7.240000e+02
     vertex -3.902505e+02 -8.777541e+01  7.240000e+02
   endloop
 endfacet
 facet normal  0.000000e+00  0.000000e+00 -1.000000e+00
   outer loop
     vertex -4.415760e+01 -3.975552e+02  7.240000e+02
     vertex -7.912077e+01 -3.920968e+02  7.240000e+02
     vertex -1.134647e+02 -3.835698e+02  7.240000e+02
   endloop
 endfacet
 facet normal  0.000000e+00  0.000000e+00 -1.000000e+00
   outer loop
     vertex -3.996085e+02 -1.769334e+01  7.240000e+02
     vertex -3.809658e+02 -1.219223e+02  7.240000e+02
     vertex -3.964810e+02 -5.294154e+01  7.240000e+02
   endloop
 endfacet
 facet normal  0.000000e+00  0.000000e+00 -1.000000e+00
   outer loop
     vertex -8.848835e+00 -3.999021e+02  7.240000e+02
     vertex -1.134647e+02 -3.835698e+02  7.240000e+02
     vertex -1.469206e+02 -3.720408e+02  7.240000e+02
   endloop
 endfacet
 facet normal  0.000000e+00  0.000000e+00 -1.000000e+00
   outer loop
     vertex -8.848835e+00 -3.999021e+02  7.240000e+02
     vertex -4.415760e+01 -3.975552e+02  7.240000e+02
     vertex -1.134647e+02 -3.835698e+02  7.240000e+02
   endloop
 endfacet
 facet normal  0.000000e+00  0.000000e+00 -1.000000e+00
   outer loop
     vertex -8.848835e+00 -3.999021e+02  7.240000e+02
     vertex -1.469206e+02 -3.720408e+02  7.240000e+02
     vertex -3.150832e+02 -2.464195e+02  7.240000e+02
   endloop
 endfacet
 facet normal  0.000000e+00  0.000000e+00 -1.000000e+00
   outer loop
     vertex -3.964810e+02  5.294154e+01  7.240000e+02
     vertex -3.996085e+02 -1.769334e+01  7.240000e+02
     vertex -3.996085e+02  1.769334e+01  7.240000e+02
   endloop
 endfacet
 facet normal  0.000000e+00  0.000000e+00 -1.000000e+00
   outer loop
     vertex -3.902505e+02  8.777541e+01  7.240000e+02
     vertex -3.996085e+02 -1.769334e+01  7.240000e+02
     vertex -3.964810e+02  5.294154e+01  7.240000e+02
   endloop
 endfacet
 facet normal  0.000000e+00  0.000000e+00 -1.000000e+00
   outer loop
     vertex  9.638708e+01 -3.882133e+02  7.240000e+02
     vertex  2.652918e+01 -3.991193e+02  7.240000e+02
     vertex -8.848835e+00 -3.999021e+02  7.240000e+02
   endloop
 endfacet
 facet normal  0.000000e+00  0.000000e+00 -1.000000e+00
   outer loop
     vertex  9.638708e+01 -3.882133e+02  7.240000e+02
     vertex  6.169957e+01 -3.952128e+02  7.240000e+02
     vertex  2.652918e+01 -3.991193e+02  7.240000e+02
   endloop
 endfacet
 facet normal  0.000000e+00  0.000000e+00 -1.000000e+00
   outer loop
     vertex  1.632334e+02 -3.651778e+02  7.240000e+02
     vertex  1.303202e+02 -3.781754e+02  7.240000e+02
     vertex  9.638708e+01 -3.882133e+02  7.240000e+02
   endloop
 endfacet
 facet normal  0.000000e+00  0.000000e+00 -1.000000e+00
   outer loop
     vertex  1.948691e+02 -3.493222e+02  7.240000e+02
     vertex  1.632334e+02 -3.651778e+02  7.240000e+02
     vertex  9.638708e+01 -3.882133e+02  7.240000e+02
   endloop
 endfacet
 facet normal  0.000000e+00  0.000000e+00 -1.000000e+00
   outer loop
     vertex -3.356288e+02  2.176082e+02  7.240000e+02
     vertex -3.686995e+02  1.551150e+02  7.240000e+02
     vertex -3.535477e+02  1.870937e+02  7.240000e+02
   endloop
 endfacet
 facet normal  0.000000e+00  0.000000e+00 -1.000000e+00
   outer loop
     vertex -3.356288e+02  2.176082e+02  7.240000e+02
     vertex -3.809658e+02  1.219223e+02  7.240000e+02
     vertex -3.686995e+02  1.551150e+02  7.240000e+02
   endloop
 endfacet
 facet normal  0.000000e+00  0.000000e+00 -1.000000e+00
   outer loop
     vertex  2.249797e+02 -3.307327e+02  7.240000e+02
     vertex  1.948691e+02 -3.493222e+02  7.240000e+02
     vertex  9.638708e+01 -3.882133e+02  7.240000e+02
   endloop
 endfacet
 facet normal  0.000000e+00  0.000000e+00 -1.000000e+00
   outer loop
     vertex  2.533295e+02 -3.095548e+02  7.240000e+02
     vertex  2.249797e+02 -3.307327e+02  7.240000e+02
     vertex  9.638708e+01 -3.882133e+02  7.240000e+02
   endloop
 endfacet
 facet normal  0.000000e+00  0.000000e+00 -1.000000e+00
   outer loop
     vertex -2.920716e+02  2.733023e+02  7.240000e+02
     vertex -3.809658e+02 -1.219223e+02  7.240000e+02
     vertex -3.996085e+02 -1.769334e+01  7.240000e+02
   endloop
 endfacet
 facet normal  0.000000e+00 -0.000000e+00 -1.000000e+00
   outer loop
     vertex -2.920716e+02  2.733023e+02  7.240000e+02
     vertex -8.848835e+00 -3.999021e+02  7.240000e+02
     vertex -3.150832e+02 -2.464195e+02  7.240000e+02
   endloop
 endfacet
 facet normal  0.000000e+00  0.000000e+00 -1.000000e+00
   outer loop
     vertex -2.920716e+02  2.733023e+02  7.240000e+02
     vertex -3.996085e+02 -1.769334e+01  7.240000e+02
     vertex -3.902505e+02  8.777541e+01  7.240000e+02
   endloop
 endfacet
 facet normal  0.000000e+00  0.000000e+00 -1.000000e+00
   outer loop
     vertex -2.920716e+02  2.733023e+02  7.240000e+02
     vertex -3.356288e+02  2.176082e+02  7.240000e+02
     vertex -3.150832e+02  2.464195e+02  7.240000e+02
   endloop
 endfacet
 facet normal  0.000000e+00  0.000000e+00 -1.000000e+00
   outer loop
     vertex -2.920716e+02  2.733023e+02  7.240000e+02
     vertex -3.902505e+02  8.777541e+01  7.240000e+02
     vertex -3.809658e+02  1.219223e+02  7.240000e+02
   endloop
 endfacet
 facet normal  0.000000e+00  0.000000e+00 -1.000000e+00
   outer loop
     vertex -2.920716e+02  2.733023e+02  7.240000e+02
     vertex -3.809658e+02  1.219223e+02  7.240000e+02
     vertex -3.356288e+02  2.176082e+02  7.240000e+02
   endloop
 endfacet
 facet normal  0.000000e+00  0.000000e+00 -1.000000e+00
   outer loop
     vertex -2.920716e+02  2.733023e+02  7.240000e+02
     vertex -3.150832e+02 -2.464195e+02  7.240000e+02
     vertex -3.809658e+02 -1.219223e+02  7.240000e+02
   endloop
 endfacet
 facet normal  0.000000e+00  0.000000e+00 -1.000000e+00
   outer loop
     vertex  2.796967e+02 -2.859541e+02  7.240000e+02
     vertex  2.533295e+02 -3.095548e+02  7.240000e+02
     vertex  9.638708e+01 -3.882133e+02  7.240000e+02
   endloop
 endfacet
 facet normal -0.000000e+00  0.000000e+00 -1.000000e+00
   outer loop
     vertex  3.038748e+02 -2.601155e+02  7.240000e+02
     vertex -8.848835e+00 -3.999021e+02  7.240000e+02
     vertex -2.920716e+02  2.733023e+02  7.240000e+02
   endloop
 endfacet
 facet normal  0.000000e+00  0.000000e+00 -1.000000e+00
   outer loop
     vertex  3.038748e+02 -2.601155e+02  7.240000e+02
     vertex  9.638708e+01 -3.882133e+02  7.240000e+02
     vertex -8.848835e+00 -3.999021e+02  7.240000e+02
   endloop
 endfacet
 facet normal  0.000000e+00  0.000000e+00 -1.000000e+00
   outer loop
     vertex  3.038748e+02 -2.601155e+02  7.240000e+02
     vertex -2.920716e+02  2.733023e+02  7.240000e+02
     vertex -2.667742e+02  2.980462e+02  7.240000e+02
   endloop
 endfacet
 facet normal  0.000000e+00  0.000000e+00 -1.000000e+00
   outer loop
     vertex  3.038748e+02 -2.601155e+02  7.240000e+02
     vertex  2.796967e+02 -2.859541e+02  7.240000e+02
     vertex  9.638708e+01 -3.882133e+02  7.240000e+02
   endloop
 endfacet
 facet normal  0.000000e+00  0.000000e+00 -1.000000e+00
   outer loop
     vertex -1.792267e+02  3.576000e+02  7.240000e+02
     vertex -2.393889e+02  3.204574e+02  7.240000e+02
     vertex -2.101301e+02  3.403606e+02  7.240000e+02
   endloop
 endfacet
 facet normal  0.000000e+00  0.000000e+00 -1.000000e+00
   outer loop
     vertex -1.792267e+02  3.576000e+02  7.240000e+02
     vertex -2.667742e+02  2.980462e+02  7.240000e+02
     vertex -2.393889e+02  3.204574e+02  7.240000e+02
   endloop
 endfacet
 facet normal  0.000000e+00 -0.000000e+00 -1.000000e+00
   outer loop
     vertex -1.792267e+02  3.576000e+02  7.240000e+02
     vertex  3.038748e+02 -2.601155e+02  7.240000e+02
     vertex -2.667742e+02  2.980462e+02  7.240000e+02
   endloop
 endfacet
 facet normal  0.000000e+00  0.000000e+00 -1.000000e+00
   outer loop
     vertex  3.751999e+02 -1.386544e+02  7.240000e+02
     vertex  3.449258e+02 -2.025492e+02  7.240000e+02
     vertex  3.256748e+02 -2.322412e+02  7.240000e+02
   endloop
 endfacet
 facet normal  0.000000e+00  0.000000e+00 -1.000000e+00
   outer loop
     vertex  3.751999e+02 -1.386544e+02  7.240000e+02
     vertex  3.614774e+02 -1.712720e+02  7.240000e+02
     vertex  3.449258e+02 -2.025492e+02  7.240000e+02
   endloop
 endfacet
 facet normal  0.000000e+00  0.000000e+00 -1.000000e+00
   outer loop
     vertex -1.134647e+02  3.835698e+02  7.240000e+02
     vertex -1.792267e+02  3.576000e+02  7.240000e+02
     vertex -1.469206e+02  3.720408e+02  7.240000e+02
   endloop
 endfacet
 facet normal -0.000000e+00  0.000000e+00 -1.000000e+00
   outer loop
     vertex  3.859860e+02 -1.049516e+02  7.240000e+02
     vertex  3.038748e+02 -2.601155e+02  7.240000e+02
     vertex -1.792267e+02  3.576000e+02  7.240000e+02
   endloop
 endfacet
 facet normal  0.000000e+00  0.000000e+00 -1.000000e+00
   outer loop
     vertex  3.859860e+02 -1.049516e+02  7.240000e+02
     vertex  3.256748e+02 -2.322412e+02  7.240000e+02
     vertex  3.038748e+02 -2.601155e+02  7.240000e+02
   endloop
 endfacet
 facet normal  0.000000e+00  0.000000e+00 -1.000000e+00
   outer loop
     vertex  3.859860e+02 -1.049516e+02  7.240000e+02
     vertex  3.751999e+02 -1.386544e+02  7.240000e+02
     vertex  3.256748e+02 -2.322412e+02  7.240000e+02
   endloop
 endfacet
 facet normal  0.000000e+00  0.000000e+00 -1.000000e+00
   outer loop
     vertex  3.984347e+02 -3.535204e+01  7.240000e+02
     vertex  3.937512e+02 -7.042741e+01  7.240000e+02
     vertex  3.859860e+02 -1.049516e+02  7.240000e+02
   endloop
 endfacet
 facet normal  0.000000e+00  0.000000e+00 -1.000000e+00
   outer loop
     vertex -8.848835e+00  3.999021e+02  7.240000e+02
     vertex -7.912077e+01  3.920968e+02  7.240000e+02
     vertex -4.415760e+01  3.975552e+02  7.240000e+02
   endloop
 endfacet
 facet normal  0.000000e+00  0.000000e+00 -1.000000e+00
   outer loop
     vertex -8.848835e+00  3.999021e+02  7.240000e+02
     vertex -1.134647e+02  3.835698e+02  7.240000e+02
     vertex -7.912077e+01  3.920968e+02  7.240000e+02
   endloop
 endfacet
 facet normal  0.000000e+00  0.000000e+00 -1.000000e+00
   outer loop
     vertex -8.848835e+00  3.999021e+02  7.240000e+02
     vertex -1.792267e+02  3.576000e+02  7.240000e+02
     vertex -1.134647e+02  3.835698e+02  7.240000e+02
   endloop
 endfacet
 facet normal  0.000000e+00  0.000000e+00 -1.000000e+00
   outer loop
     vertex  6.169957e+01  3.952128e+02  7.240000e+02
     vertex -8.848835e+00  3.999021e+02  7.240000e+02
     vertex  2.652918e+01  3.991193e+02  7.240000e+02
   endloop
 endfacet
 facet normal -0.000000e+00  0.000000e+00 -1.000000e+00
   outer loop
     vertex  6.169957e+01  3.952128e+02  7.240000e+02
     vertex -1.792267e+02  3.576000e+02  7.240000e+02
     vertex -8.848835e+00  3.999021e+02  7.240000e+02
   endloop
 endfacet
 facet normal  0.000000e+00  0.000000e+00 -1.000000e+00
   outer loop
     vertex  3.937512e+02  7.042741e+01  7.240000e+02
     vertex  3.984347e+02  3.535204e+01  7.240000e+02
     vertex  4.000000e+02 -9.797174e-14  7.240000e+02
   endloop
 endfacet
 facet normal  0.000000e+00  0.000000e+00 -1.000000e+00
   outer loop
     vertex  3.859860e+02  1.049516e+02  7.240000e+02
     vertex  4.000000e+02 -9.797174e-14  7.240000e+02
     vertex  3.984347e+02 -3.535204e+01  7.240000e+02
   endloop
 endfacet
 facet normal  0.000000e+00  0.000000e+00 -1.000000e+00
   outer loop
     vertex  3.859860e+02  1.049516e+02  7.240000e+02
     vertex  3.937512e+02  7.042741e+01  7.240000e+02
     vertex  4.000000e+02 -9.797174e-14  7.240000e+02
   endloop
 endfacet
 facet normal  0.000000e+00  0.000000e+00 -1.000000e+00
   outer loop
     vertex  1.632334e+02  3.651778e+02  7.240000e+02
     vertex  9.638708e+01  3.882133e+02  7.240000e+02
     vertex  1.303202e+02  3.781754e+02  7.240000e+02
   endloop
 endfacet
 facet normal  0.000000e+00  0.000000e+00 -1.000000e+00
   outer loop
     vertex  1.632334e+02  3.651778e+02  7.240000e+02
     vertex  6.169957e+01  3.952128e+02  7.240000e+02
     vertex  9.638708e+01  3.882133e+02  7.240000e+02
   endloop
 endfacet
 facet normal  0.000000e+00  0.000000e+00 -1.000000e+00
   outer loop
     vertex  3.614774e+02  1.712720e+02  7.240000e+02
     vertex  3.751999e+02  1.386544e+02  7.240000e+02
     vertex  3.859860e+02  1.049516e+02  7.240000e+02
   endloop
 endfacet
 facet normal  0.000000e+00  0.000000e+00 -1.000000e+00
   outer loop
     vertex  3.614774e+02  1.712720e+02  7.240000e+02
     vertex  3.859860e+02  1.049516e+02  7.240000e+02
     vertex  3.984347e+02 -3.535204e+01  7.240000e+02
   endloop
 endfacet
 facet normal  0.000000e+00  0.000000e+00 -1.000000e+00
   outer loop
     vertex  2.249797e+02  3.307327e+02  7.240000e+02
     vertex  1.632334e+02  3.651778e+02  7.240000e+02
     vertex  1.948691e+02  3.493222e+02  7.240000e+02
   endloop
 endfacet
 facet normal -0.000000e+00 -0.000000e+00 -1.000000e+00
   outer loop
     vertex  2.249797e+02  3.307327e+02  7.240000e+02
     vertex  3.859860e+02 -1.049516e+02  7.240000e+02
     vertex -1.792267e+02  3.576000e+02  7.240000e+02
   endloop
 endfacet
 facet normal  0.000000e+00  0.000000e+00 -1.000000e+00
   outer loop
     vertex  2.249797e+02  3.307327e+02  7.240000e+02
     vertex  3.984347e+02 -3.535204e+01  7.240000e+02
     vertex  3.859860e+02 -1.049516e+02  7.240000e+02
   endloop
 endfacet
 facet normal  0.000000e+00  0.000000e+00 -1.000000e+00
   outer loop
     vertex  2.249797e+02  3.307327e+02  7.240000e+02
     vertex -1.792267e+02  3.576000e+02  7.240000e+02
     vertex  6.169957e+01  3.952128e+02  7.240000e+02
   endloop
 endfacet
 facet normal  0.000000e+00  0.000000e+00 -1.000000e+00
   outer loop
     vertex  2.249797e+02  3.307327e+02  7.240000e+02
     vertex  6.169957e+01  3.952128e+02  7.240000e+02
     vertex  1.632334e+02  3.651778e+02  7.240000e+02
   endloop
 endfacet
 facet normal  0.000000e+00  0.000000e+00 -1.000000e+00
   outer loop
     vertex  3.256748e+02  2.322412e+02  7.240000e+02
     vertex  3.449258e+02  2.025492e+02  7.240000e+02
     vertex  3.614774e+02  1.712720e+02  7.240000e+02
   endloop
 endfacet
 facet normal  0.000000e+00  0.000000e+00 -1.000000e+00
   outer loop
     vertex  3.038748e+02  2.601155e+02  7.240000e+02
     vertex  3.614774e+02  1.712720e+02  7.240000e+02
     vertex  3.984347e+02 -3.535204e+01  7.240000e+02
   endloop
 endfacet
 facet normal  0.000000e+00  0.000000e+00 -1.000000e+00
   outer loop
     vertex  3.038748e+02  2.601155e+02  7.240000e+02
     vertex  2.249797e+02  3.307327e+02  7.240000e+02
     vertex  2.533295e+02  3.095548e+02  7.240000e+02
   endloop
 endfacet
 facet normal -0.000000e+00 -0.000000e+00 -1.000000e+00
   outer loop
     vertex  3.038748e+02  2.601155e+02  7.240000e+02
     vertex  3.984347e+02 -3.535204e+01  7.240000e+02
     vertex  2.249797e+02  3.307327e+02  7.240000e+02
   endloop
 endfacet
 facet normal  0.000000e+00  0.000000e+00 -1.000000e+00
   outer loop
     vertex  3.038748e+02  2.601155e+02  7.240000e+02
     vertex  3.256748e+02  2.322412e+02  7.240000e+02
     vertex  3.614774e+02  1.712720e+02  7.240000e+02
   endloop
 endfacet
 facet normal -0.000000e+00 -0.000000e+00 -1.000000e+00
   outer loop
     vertex  2.796967e+02  2.859541e+02  7.240000e+02
     vertex  3.038748e+02  2.601155e+02  7.240000e+02
     vertex  2.533295e+02  3.095548e+02  7.240000e+02
   endloop
 endfacet
endsolid
