solid 
 facet normal  9.990212e-01  4.423335e-02  0.000000e+00
   outer loop
     vertex  1.039915e+00  9.226883e-02  6.552500e+00
     vertex  1.044000e+00 -2.557063e-16  6.552500e+00
     vertex  1.044000e+00 -2.557063e-16  6.547500e+00
   endloop
 endfacet
 facet normal  9.990212e-01  4.423335e-02  0.000000e+00
   outer loop
     vertex  1.039915e+00  9.226883e-02  6.552500e+00
     vertex  1.044000e+00 -2.557063e-16  6.547500e+00
     vertex  1.039915e+00  9.226883e-02  6.547500e+00
   endloop
 endfacet
 facet normal  9.912025e-01  1.323539e-01  0.000000e+00
   outer loop
     vertex  1.027691e+00  1.838155e-01  6.552500e+00
     vertex  1.039915e+00  9.226883e-02  6.552500e+00
     vertex  1.039915e+00  9.226883e-02  6.547500e+00
   endloop
 endfacet
 facet normal  9.912025e-01  1.323539e-01  0.000000e+00
   outer loop
     vertex  1.027691e+00  1.838155e-01  6.552500e+00
     vertex  1.039915e+00  9.226883e-02  6.547500e+00
     vertex  1.027691e+00  1.838155e-01  6.547500e+00
   endloop
 endfacet
 facet normal  9.756263e-01  2.194385e-01  0.000000e+00
   outer loop
     vertex  1.007423e+00  2.739236e-01  6.552500e+00
     vertex  1.027691e+00  1.838155e-01  6.552500e+00
     vertex  1.027691e+00  1.838155e-01  6.547500e+00
   endloop
 endfacet
 facet normal  9.756263e-01  2.194385e-01  0.000000e+00
   outer loop
     vertex  1.007423e+00  2.739236e-01  6.552500e+00
     vertex  1.027691e+00  1.838155e-01  6.547500e+00
     vertex  1.007423e+00  2.739236e-01  6.547500e+00
   endloop
 endfacet
 facet normal  9.524145e-01  3.048058e-01  0.000000e+00
   outer loop
     vertex  9.792717e-01  3.618879e-01  6.552500e+00
     vertex  1.007423e+00  2.739236e-01  6.552500e+00
     vertex  1.007423e+00  2.739236e-01  6.547500e+00
   endloop
 endfacet
 facet normal  9.524145e-01  3.048058e-01  0.000000e+00
   outer loop
     vertex  9.792717e-01  3.618879e-01  6.552500e+00
     vertex  1.007423e+00  2.739236e-01  6.547500e+00
     vertex  9.792717e-01  3.618879e-01  6.547500e+00
   endloop
 endfacet
 facet normal  9.217488e-01  3.877875e-01  0.000000e+00
   outer loop
     vertex  9.434560e-01  4.470199e-01  6.552500e+00
     vertex  9.792717e-01  3.618879e-01  6.552500e+00
     vertex  9.792717e-01  3.618879e-01  6.547500e+00
   endloop
 endfacet
 facet normal  9.217488e-01  3.877875e-01  0.000000e+00
   outer loop
     vertex  9.434560e-01  4.470199e-01  6.552500e+00
     vertex  9.792717e-01  3.618879e-01  6.547500e+00
     vertex  9.434560e-01  4.470199e-01  6.547500e+00
   endloop
 endfacet
 facet normal  8.838691e-01  4.677343e-01  0.000000e+00
   outer loop
     vertex  9.002564e-01  5.286534e-01  6.552500e+00
     vertex  9.434560e-01  4.470199e-01  6.552500e+00
     vertex  9.434560e-01  4.470199e-01  6.547500e+00
   endloop
 endfacet
 facet normal  8.838691e-01  4.677343e-01  0.000000e+00
   outer loop
     vertex  9.002564e-01  5.286534e-01  6.552500e+00
     vertex  9.434560e-01  4.470199e-01  6.547500e+00
     vertex  9.002564e-01  5.286534e-01  6.547500e+00
   endloop
 endfacet
 facet normal  8.390720e-01  5.440204e-01  0.000000e+00
   outer loop
     vertex  8.500111e-01  6.061494e-01  6.552500e+00
     vertex  9.002564e-01  5.286534e-01  6.552500e+00
     vertex  9.002564e-01  5.286534e-01  6.547500e+00
   endloop
 endfacet
 facet normal  8.390720e-01  5.440204e-01  0.000000e+00
   outer loop
     vertex  8.500111e-01  6.061494e-01  6.552500e+00
     vertex  9.002564e-01  5.286534e-01  6.547500e+00
     vertex  8.500111e-01  6.061494e-01  6.547500e+00
   endloop
 endfacet
 facet normal  7.877080e-01  6.160488e-01  0.000000e+00
   outer loop
     vertex  7.931133e-01  6.789015e-01  6.552500e+00
     vertex  8.500111e-01  6.061494e-01  6.547500e+00
     vertex  7.931133e-01  6.789015e-01  6.547500e+00
   endloop
 endfacet
 facet normal  7.877080e-01  6.160488e-01  0.000000e+00
   outer loop
     vertex  7.931133e-01  6.789015e-01  6.552500e+00
     vertex  8.500111e-01  6.061494e-01  6.552500e+00
     vertex  8.500111e-01  6.061494e-01  6.547500e+00
   endloop
 endfacet
 facet normal  7.301791e-01  6.832558e-01  0.000000e+00
   outer loop
     vertex  7.300083e-01  7.463403e-01  6.552500e+00
     vertex  7.931133e-01  6.789015e-01  6.547500e+00
     vertex  7.300083e-01  7.463403e-01  6.547500e+00
   endloop
 endfacet
 facet normal  7.301791e-01  6.832558e-01  0.000000e+00
   outer loop
     vertex  7.300083e-01  7.463403e-01  6.552500e+00
     vertex  7.931133e-01  6.789015e-01  6.552500e+00
     vertex  7.931133e-01  6.789015e-01  6.547500e+00
   endloop
 endfacet
 facet normal  6.669355e-01  7.451154e-01  0.000000e+00
   outer loop
     vertex  6.611901e-01  8.079379e-01  6.552500e+00
     vertex  7.300083e-01  7.463403e-01  6.547500e+00
     vertex  6.611901e-01  8.079379e-01  6.547500e+00
   endloop
 endfacet
 facet normal  6.669355e-01  7.451154e-01  0.000000e+00
   outer loop
     vertex  6.611901e-01  8.079379e-01  6.552500e+00
     vertex  7.300083e-01  7.463403e-01  6.552500e+00
     vertex  7.300083e-01  7.463403e-01  6.547500e+00
   endloop
 endfacet
 facet normal  5.984723e-01  8.011435e-01  0.000000e+00
   outer loop
     vertex  5.871971e-01  8.632124e-01  6.552500e+00
     vertex  6.611901e-01  8.079379e-01  6.547500e+00
     vertex  5.871971e-01  8.632124e-01  6.547500e+00
   endloop
 endfacet
 facet normal  5.984723e-01  8.011435e-01  0.000000e+00
   outer loop
     vertex  5.871971e-01  8.632124e-01  6.552500e+00
     vertex  6.611901e-01  8.079379e-01  6.552500e+00
     vertex  6.611901e-01  8.079379e-01  6.547500e+00
   endloop
 endfacet
 facet normal  5.253252e-01  8.509015e-01  0.000000e+00
   outer loop
     vertex  5.086084e-01  9.117310e-01  6.552500e+00
     vertex  5.871971e-01  8.632124e-01  6.547500e+00
     vertex  5.086084e-01  9.117310e-01  6.547500e+00
   endloop
 endfacet
 facet normal  5.253252e-01  8.509015e-01  0.000000e+00
   outer loop
     vertex  5.086084e-01  9.117310e-01  6.552500e+00
     vertex  5.871971e-01  8.632124e-01  6.552500e+00
     vertex  5.871971e-01  8.632124e-01  6.547500e+00
   endloop
 endfacet
 facet normal  4.480668e-01  8.940001e-01  0.000000e+00
   outer loop
     vertex  4.260393e-01  9.531141e-01  6.552500e+00
     vertex  5.086084e-01  9.117310e-01  6.547500e+00
     vertex  4.260393e-01  9.531141e-01  6.547500e+00
   endloop
 endfacet
 facet normal  4.480668e-01  8.940001e-01  0.000000e+00
   outer loop
     vertex  4.260393e-01  9.531141e-01  6.552500e+00
     vertex  5.086084e-01  9.117310e-01  6.552500e+00
     vertex  5.086084e-01  9.117310e-01  6.547500e+00
   endloop
 endfacet
 facet normal  3.673016e-01  9.301019e-01  0.000000e+00
   outer loop
     vertex  3.401358e-01  9.870378e-01  6.552500e+00
     vertex  4.260393e-01  9.531141e-01  6.552500e+00
     vertex  4.260393e-01  9.531141e-01  6.547500e+00
   endloop
 endfacet
 facet normal  3.673016e-01  9.301019e-01  0.000000e+00
   outer loop
     vertex  3.401358e-01  9.870378e-01  6.552500e+00
     vertex  4.260393e-01  9.531141e-01  6.547500e+00
     vertex  3.401358e-01  9.870378e-01  6.547500e+00
   endloop
 endfacet
 facet normal  2.836618e-01  9.589244e-01  0.000000e+00
   outer loop
     vertex  2.515703e-01  1.013237e+00  6.552500e+00
     vertex  3.401358e-01  9.870378e-01  6.552500e+00
     vertex  3.401358e-01  9.870378e-01  6.547500e+00
   endloop
 endfacet
 facet normal  2.836618e-01  9.589244e-01  0.000000e+00
   outer loop
     vertex  2.515703e-01  1.013237e+00  6.552500e+00
     vertex  3.401358e-01  9.870378e-01  6.547500e+00
     vertex  2.515703e-01  1.013237e+00  6.547500e+00
   endloop
 endfacet
 facet normal  1.978019e-01  9.802420e-01  0.000000e+00
   outer loop
     vertex  1.610359e-01  1.031505e+00  6.552500e+00
     vertex  2.515703e-01  1.013237e+00  6.552500e+00
     vertex  2.515703e-01  1.013237e+00  6.547500e+00
   endloop
 endfacet
 facet normal  1.978019e-01  9.802420e-01  0.000000e+00
   outer loop
     vertex  1.610359e-01  1.031505e+00  6.552500e+00
     vertex  2.515703e-01  1.013237e+00  6.547500e+00
     vertex  1.610359e-01  1.031505e+00  6.547500e+00
   endloop
 endfacet
 facet normal  1.103940e-01  9.938879e-01  0.000000e+00
   outer loop
     vertex  6.924117e-02  1.041701e+00  6.552500e+00
     vertex  1.610359e-01  1.031505e+00  6.552500e+00
     vertex  1.610359e-01  1.031505e+00  6.547500e+00
   endloop
 endfacet
 facet normal  1.103940e-01  9.938879e-01  0.000000e+00
   outer loop
     vertex  6.924117e-02  1.041701e+00  6.552500e+00
     vertex  1.610359e-01  1.031505e+00  6.547500e+00
     vertex  6.924117e-02  1.041701e+00  6.547500e+00
   endloop
 endfacet
 facet normal  2.212209e-02  9.997553e-01  0.000000e+00
   outer loop
     vertex -2.309546e-02  1.043745e+00  6.552500e+00
     vertex  6.924117e-02  1.041701e+00  6.552500e+00
     vertex  6.924117e-02  1.041701e+00  6.547500e+00
   endloop
 endfacet
 facet normal  2.212209e-02  9.997553e-01  0.000000e+00
   outer loop
     vertex -2.309546e-02  1.043745e+00  6.552500e+00
     vertex  6.924117e-02  1.041701e+00  6.547500e+00
     vertex -2.309546e-02  1.043745e+00  6.547500e+00
   endloop
 endfacet
 facet normal -6.632296e-02  9.977982e-01  0.000000e+00
   outer loop
     vertex -1.152513e-01  1.037619e+00  6.552500e+00
     vertex -2.309546e-02  1.043745e+00  6.552500e+00
     vertex -2.309546e-02  1.043745e+00  6.547500e+00
   endloop
 endfacet
 facet normal -6.632296e-02  9.977982e-01  0.000000e+00
   outer loop
     vertex -1.152513e-01  1.037619e+00  6.552500e+00
     vertex -2.309546e-02  1.043745e+00  6.547500e+00
     vertex -1.152513e-01  1.037619e+00  6.547500e+00
   endloop
 endfacet
 facet normal -1.542489e-01  9.880320e-01  0.000000e+00
   outer loop
     vertex -2.065052e-01  1.023373e+00  6.552500e+00
     vertex -1.152513e-01  1.037619e+00  6.552500e+00
     vertex -1.152513e-01  1.037619e+00  6.547500e+00
   endloop
 endfacet
 facet normal -1.542489e-01  9.880320e-01  0.000000e+00
   outer loop
     vertex -2.065052e-01  1.023373e+00  6.552500e+00
     vertex -1.152513e-01  1.037619e+00  6.547500e+00
     vertex -2.065052e-01  1.023373e+00  6.547500e+00
   endloop
 endfacet
 facet normal -2.409677e-01  9.705331e-01  0.000000e+00
   outer loop
     vertex -2.961429e-01  1.001117e+00  6.552500e+00
     vertex -2.065052e-01  1.023373e+00  6.552500e+00
     vertex -2.065052e-01  1.023373e+00  6.547500e+00
   endloop
 endfacet
 facet normal -2.409677e-01  9.705331e-01  0.000000e+00
   outer loop
     vertex -2.961429e-01  1.001117e+00  6.552500e+00
     vertex -2.065052e-01  1.023373e+00  6.547500e+00
     vertex -2.961429e-01  1.001117e+00  6.547500e+00
   endloop
 endfacet
 facet normal -3.258006e-01  9.454385e-01  0.000000e+00
   outer loop
     vertex -3.834629e-01  9.710264e-01  6.552500e+00
     vertex -2.961429e-01  1.001117e+00  6.552500e+00
     vertex -2.961429e-01  1.001117e+00  6.547500e+00
   endloop
 endfacet
 facet normal -3.258006e-01  9.454385e-01  0.000000e+00
   outer loop
     vertex -3.834629e-01  9.710264e-01  6.552500e+00
     vertex -2.961429e-01  1.001117e+00  6.547500e+00
     vertex -3.834629e-01  9.710264e-01  6.547500e+00
   endloop
 endfacet
 facet normal -4.080836e-01  9.129446e-01  0.000000e+00
   outer loop
     vertex -4.677817e-01  9.333361e-01  6.552500e+00
     vertex -3.834629e-01  9.710264e-01  6.552500e+00
     vertex -3.834629e-01  9.710264e-01  6.547500e+00
   endloop
 endfacet
 facet normal -4.080836e-01  9.129446e-01  0.000000e+00
   outer loop
     vertex -4.677817e-01  9.333361e-01  6.552500e+00
     vertex -3.834629e-01  9.710264e-01  6.547500e+00
     vertex -4.677817e-01  9.333361e-01  6.547500e+00
   endloop
 endfacet
 facet normal -4.871728e-01  8.733056e-01  0.000000e+00
   outer loop
     vertex -5.484396e-01  8.883412e-01  6.552500e+00
     vertex -4.677817e-01  9.333361e-01  6.552500e+00
     vertex -4.677817e-01  9.333361e-01  6.547500e+00
   endloop
 endfacet
 facet normal -4.871728e-01  8.733056e-01  0.000000e+00
   outer loop
     vertex -5.484396e-01  8.883412e-01  6.552500e+00
     vertex -4.677817e-01  9.333361e-01  6.547500e+00
     vertex -5.484396e-01  8.883412e-01  6.547500e+00
   endloop
 endfacet
 facet normal -5.624493e-01  8.268318e-01  0.000000e+00
   outer loop
     vertex -6.248051e-01  8.363938e-01  6.552500e+00
     vertex -5.484396e-01  8.883412e-01  6.552500e+00
     vertex -5.484396e-01  8.883412e-01  6.547500e+00
   endloop
 endfacet
 facet normal -5.624493e-01  8.268318e-01  0.000000e+00
   outer loop
     vertex -6.248051e-01  8.363938e-01  6.552500e+00
     vertex -5.484396e-01  8.883412e-01  6.547500e+00
     vertex -6.248051e-01  8.363938e-01  6.547500e+00
   endloop
 endfacet
 facet normal -6.333238e-01  7.738869e-01  0.000000e+00
   outer loop
     vertex -6.962807e-01  7.779005e-01  6.552500e+00
     vertex -6.248051e-01  8.363938e-01  6.552500e+00
     vertex -6.248051e-01  8.363938e-01  6.547500e+00
   endloop
 endfacet
 facet normal -6.333238e-01  7.738869e-01  0.000000e+00
   outer loop
     vertex -6.962807e-01  7.779005e-01  6.552500e+00
     vertex -6.248051e-01  8.363938e-01  6.547500e+00
     vertex -6.962807e-01  7.779005e-01  6.547500e+00
   endloop
 endfacet
 facet normal -6.992417e-01  7.148853e-01  0.000000e+00
   outer loop
     vertex -7.623070e-01  7.133191e-01  6.552500e+00
     vertex -6.962807e-01  7.779005e-01  6.552500e+00
     vertex -6.962807e-01  7.779005e-01  6.547500e+00
   endloop
 endfacet
 facet normal -6.992417e-01  7.148853e-01  0.000000e+00
   outer loop
     vertex -7.623070e-01  7.133191e-01  6.552500e+00
     vertex -6.962807e-01  7.779005e-01  6.547500e+00
     vertex -7.623070e-01  7.133191e-01  6.547500e+00
   endloop
 endfacet
 facet normal -7.596871e-01  6.502888e-01  0.000000e+00
   outer loop
     vertex -8.223671e-01  6.431550e-01  6.552500e+00
     vertex -7.623070e-01  7.133191e-01  6.552500e+00
     vertex -7.623070e-01  7.133191e-01  6.547500e+00
   endloop
 endfacet
 facet normal -7.596871e-01  6.502888e-01  0.000000e+00
   outer loop
     vertex -8.223671e-01  6.431550e-01  6.552500e+00
     vertex -7.623070e-01  7.133191e-01  6.547500e+00
     vertex -8.223671e-01  6.431550e-01  6.547500e+00
   endloop
 endfacet
 facet normal -8.141869e-01  5.806029e-01  0.000000e+00
   outer loop
     vertex -8.759912e-01  5.679573e-01  6.552500e+00
     vertex -8.223671e-01  6.431550e-01  6.547500e+00
     vertex -8.759912e-01  5.679573e-01  6.547500e+00
   endloop
 endfacet
 facet normal -8.141869e-01  5.806029e-01  0.000000e+00
   outer loop
     vertex -8.759912e-01  5.679573e-01  6.552500e+00
     vertex -8.223671e-01  6.431550e-01  6.552500e+00
     vertex -8.223671e-01  6.431550e-01  6.547500e+00
   endloop
 endfacet
 facet normal -8.623146e-01  5.063730e-01  0.000000e+00
   outer loop
     vertex -9.227594e-01  4.883146e-01  6.552500e+00
     vertex -8.759912e-01  5.679573e-01  6.547500e+00
     vertex -9.227594e-01  4.883146e-01  6.547500e+00
   endloop
 endfacet
 facet normal -8.623146e-01  5.063730e-01  0.000000e+00
   outer loop
     vertex -9.227594e-01  4.883146e-01  6.552500e+00
     vertex -8.759912e-01  5.679573e-01  6.552500e+00
     vertex -8.759912e-01  5.679573e-01  6.547500e+00
   endloop
 endfacet
 facet normal -9.036935e-01  4.281800e-01  0.000000e+00
   outer loop
     vertex -9.623057e-01  4.048502e-01  6.552500e+00
     vertex -9.227594e-01  4.883146e-01  6.547500e+00
     vertex -9.623057e-01  4.048502e-01  6.547500e+00
   endloop
 endfacet
 facet normal -9.036935e-01  4.281800e-01  0.000000e+00
   outer loop
     vertex -9.623057e-01  4.048502e-01  6.552500e+00
     vertex -9.227594e-01  4.883146e-01  6.552500e+00
     vertex -9.227594e-01  4.883146e-01  6.547500e+00
   endloop
 endfacet
 facet normal -9.379998e-01  3.466359e-01  0.000000e+00
   outer loop
     vertex -9.943208e-01  3.182172e-01  6.552500e+00
     vertex -9.623057e-01  4.048502e-01  6.547500e+00
     vertex -9.943208e-01  3.182172e-01  6.547500e+00
   endloop
 endfacet
 facet normal -9.379998e-01  3.466359e-01  0.000000e+00
   outer loop
     vertex -9.943208e-01  3.182172e-01  6.552500e+00
     vertex -9.623057e-01  4.048502e-01  6.552500e+00
     vertex -9.623057e-01  4.048502e-01  6.547500e+00
   endloop
 endfacet
 facet normal -9.649649e-01  2.623790e-01  0.000000e+00
   outer loop
     vertex -1.018554e+00  2.290938e-01  6.552500e+00
     vertex -9.943208e-01  3.182172e-01  6.547500e+00
     vertex -1.018554e+00  2.290938e-01  6.547500e+00
   endloop
 endfacet
 facet normal -9.649649e-01  2.623790e-01  0.000000e+00
   outer loop
     vertex -1.018554e+00  2.290938e-01  6.552500e+00
     vertex -9.943208e-01  3.182172e-01  6.552500e+00
     vertex -9.943208e-01  3.182172e-01  6.547500e+00
   endloop
 endfacet
 facet normal -9.843779e-01  1.760685e-01  0.000000e+00
   outer loop
     vertex -1.034815e+00  1.381774e-01  6.552500e+00
     vertex -1.018554e+00  2.290938e-01  6.547500e+00
     vertex -1.034815e+00  1.381774e-01  6.547500e+00
   endloop
 endfacet
 facet normal -9.843779e-01  1.760685e-01  0.000000e+00
   outer loop
     vertex -1.034815e+00  1.381774e-01  6.552500e+00
     vertex -1.018554e+00  2.290938e-01  6.552500e+00
     vertex -1.018554e+00  2.290938e-01  6.547500e+00
   endloop
 endfacet
 facet normal -9.960868e-01  8.838010e-02  0.000000e+00
   outer loop
     vertex -1.042978e+00  4.617961e-02  6.552500e+00
     vertex -1.034815e+00  1.381774e-01  6.547500e+00
     vertex -1.042978e+00  4.617961e-02  6.547500e+00
   endloop
 endfacet
 facet normal -9.960868e-01  8.838010e-02  0.000000e+00
   outer loop
     vertex -1.042978e+00  4.617961e-02  6.552500e+00
     vertex -1.034815e+00  1.381774e-01  6.552500e+00
     vertex -1.034815e+00  1.381774e-01  6.547500e+00
   endloop
 endfacet
 facet normal -1.000000e+00 -2.404141e-15 -0.000000e+00
   outer loop
     vertex -1.042978e+00 -4.617961e-02  6.552500e+00
     vertex -1.042978e+00  4.617961e-02  6.547500e+00
     vertex -1.042978e+00 -4.617961e-02  6.547500e+00
   endloop
 endfacet
 facet normal -1.000000e+00 -2.404141e-15  0.000000e+00
   outer loop
     vertex -1.042978e+00 -4.617961e-02  6.552500e+00
     vertex -1.042978e+00  4.617961e-02  6.552500e+00
     vertex -1.042978e+00  4.617961e-02  6.547500e+00
   endloop
 endfacet
 facet normal -9.960868e-01 -8.838010e-02 -0.000000e+00
   outer loop
     vertex -1.034815e+00 -1.381774e-01  6.552500e+00
     vertex -1.042978e+00 -4.617961e-02  6.547500e+00
     vertex -1.034815e+00 -1.381774e-01  6.547500e+00
   endloop
 endfacet
 facet normal -9.960868e-01 -8.838010e-02  0.000000e+00
   outer loop
     vertex -1.034815e+00 -1.381774e-01  6.552500e+00
     vertex -1.042978e+00 -4.617961e-02  6.552500e+00
     vertex -1.042978e+00 -4.617961e-02  6.547500e+00
   endloop
 endfacet
 facet normal -9.843779e-01 -1.760685e-01 -0.000000e+00
   outer loop
     vertex -1.018554e+00 -2.290938e-01  6.552500e+00
     vertex -1.034815e+00 -1.381774e-01  6.547500e+00
     vertex -1.018554e+00 -2.290938e-01  6.547500e+00
   endloop
 endfacet
 facet normal -9.843779e-01 -1.760685e-01  0.000000e+00
   outer loop
     vertex -1.018554e+00 -2.290938e-01  6.552500e+00
     vertex -1.034815e+00 -1.381774e-01  6.552500e+00
     vertex -1.034815e+00 -1.381774e-01  6.547500e+00
   endloop
 endfacet
 facet normal -9.649649e-01 -2.623790e-01  0.000000e+00
   outer loop
     vertex -9.943208e-01 -3.182172e-01  6.552500e+00
     vertex -1.018554e+00 -2.290938e-01  6.552500e+00
     vertex -1.018554e+00 -2.290938e-01  6.547500e+00
   endloop
 endfacet
 facet normal -9.649649e-01 -2.623790e-01 -0.000000e+00
   outer loop
     vertex -9.943208e-01 -3.182172e-01  6.552500e+00
     vertex -1.018554e+00 -2.290938e-01  6.547500e+00
     vertex -9.943208e-01 -3.182172e-01  6.547500e+00
   endloop
 endfacet
 facet normal -9.379998e-01 -3.466359e-01  0.000000e+00
   outer loop
     vertex -9.623057e-01 -4.048502e-01  6.552500e+00
     vertex -9.943208e-01 -3.182172e-01  6.552500e+00
     vertex -9.943208e-01 -3.182172e-01  6.547500e+00
   endloop
 endfacet
 facet normal -9.379998e-01 -3.466359e-01 -0.000000e+00
   outer loop
     vertex -9.623057e-01 -4.048502e-01  6.552500e+00
     vertex -9.943208e-01 -3.182172e-01  6.547500e+00
     vertex -9.623057e-01 -4.048502e-01  6.547500e+00
   endloop
 endfacet
 facet normal -9.036935e-01 -4.281800e-01  0.000000e+00
   outer loop
     vertex -9.227594e-01 -4.883146e-01  6.552500e+00
     vertex -9.623057e-01 -4.048502e-01  6.552500e+00
     vertex -9.623057e-01 -4.048502e-01  6.547500e+00
   endloop
 endfacet
 facet normal -9.036935e-01 -4.281800e-01 -0.000000e+00
   outer loop
     vertex -9.227594e-01 -4.883146e-01  6.552500e+00
     vertex -9.623057e-01 -4.048502e-01  6.547500e+00
     vertex -9.227594e-01 -4.883146e-01  6.547500e+00
   endloop
 endfacet
 facet normal -8.623146e-01 -5.063730e-01 -0.000000e+00
   outer loop
     vertex -8.759912e-01 -5.679573e-01  6.552500e+00
     vertex -9.227594e-01 -4.883146e-01  6.547500e+00
     vertex -8.759912e-01 -5.679573e-01  6.547500e+00
   endloop
 endfacet
 facet normal -8.623146e-01 -5.063730e-01  0.000000e+00
   outer loop
     vertex -8.759912e-01 -5.679573e-01  6.552500e+00
     vertex -9.227594e-01 -4.883146e-01  6.552500e+00
     vertex -9.227594e-01 -4.883146e-01  6.547500e+00
   endloop
 endfacet
 facet normal -8.141869e-01 -5.806029e-01 -0.000000e+00
   outer loop
     vertex -8.223671e-01 -6.431550e-01  6.552500e+00
     vertex -8.759912e-01 -5.679573e-01  6.547500e+00
     vertex -8.223671e-01 -6.431550e-01  6.547500e+00
   endloop
 endfacet
 facet normal -8.141869e-01 -5.806029e-01  0.000000e+00
   outer loop
     vertex -8.223671e-01 -6.431550e-01  6.552500e+00
     vertex -8.759912e-01 -5.679573e-01  6.552500e+00
     vertex -8.759912e-01 -5.679573e-01  6.547500e+00
   endloop
 endfacet
 facet normal -7.596871e-01 -6.502888e-01 -0.000000e+00
   outer loop
     vertex -7.623070e-01 -7.133191e-01  6.552500e+00
     vertex -8.223671e-01 -6.431550e-01  6.547500e+00
     vertex -7.623070e-01 -7.133191e-01  6.547500e+00
   endloop
 endfacet
 facet normal -7.596871e-01 -6.502888e-01  0.000000e+00
   outer loop
     vertex -7.623070e-01 -7.133191e-01  6.552500e+00
     vertex -8.223671e-01 -6.431550e-01  6.552500e+00
     vertex -8.223671e-01 -6.431550e-01  6.547500e+00
   endloop
 endfacet
 facet normal -6.992417e-01 -7.148853e-01 -0.000000e+00
   outer loop
     vertex -6.962807e-01 -7.779005e-01  6.552500e+00
     vertex -7.623070e-01 -7.133191e-01  6.547500e+00
     vertex -6.962807e-01 -7.779005e-01  6.547500e+00
   endloop
 endfacet
 facet normal -6.992417e-01 -7.148853e-01  0.000000e+00
   outer loop
     vertex -6.962807e-01 -7.779005e-01  6.552500e+00
     vertex -7.623070e-01 -7.133191e-01  6.552500e+00
     vertex -7.623070e-01 -7.133191e-01  6.547500e+00
   endloop
 endfacet
 facet normal -6.333238e-01 -7.738869e-01 -0.000000e+00
   outer loop
     vertex -6.248051e-01 -8.363938e-01  6.552500e+00
     vertex -6.962807e-01 -7.779005e-01  6.547500e+00
     vertex -6.248051e-01 -8.363938e-01  6.547500e+00
   endloop
 endfacet
 facet normal -6.333238e-01 -7.738869e-01  0.000000e+00
   outer loop
     vertex -6.248051e-01 -8.363938e-01  6.552500e+00
     vertex -6.962807e-01 -7.779005e-01  6.552500e+00
     vertex -6.962807e-01 -7.779005e-01  6.547500e+00
   endloop
 endfacet
 facet normal -5.624493e-01 -8.268318e-01 -0.000000e+00
   outer loop
     vertex -5.484396e-01 -8.883412e-01  6.552500e+00
     vertex -6.248051e-01 -8.363938e-01  6.547500e+00
     vertex -5.484396e-01 -8.883412e-01  6.547500e+00
   endloop
 endfacet
 facet normal -5.624493e-01 -8.268318e-01  0.000000e+00
   outer loop
     vertex -5.484396e-01 -8.883412e-01  6.552500e+00
     vertex -6.248051e-01 -8.363938e-01  6.552500e+00
     vertex -6.248051e-01 -8.363938e-01  6.547500e+00
   endloop
 endfacet
 facet normal -4.871728e-01 -8.733056e-01 -0.000000e+00
   outer loop
     vertex -4.677817e-01 -9.333361e-01  6.552500e+00
     vertex -5.484396e-01 -8.883412e-01  6.547500e+00
     vertex -4.677817e-01 -9.333361e-01  6.547500e+00
   endloop
 endfacet
 facet normal -4.871728e-01 -8.733056e-01  0.000000e+00
   outer loop
     vertex -4.677817e-01 -9.333361e-01  6.552500e+00
     vertex -5.484396e-01 -8.883412e-01  6.552500e+00
     vertex -5.484396e-01 -8.883412e-01  6.547500e+00
   endloop
 endfacet
 facet normal -4.080836e-01 -9.129446e-01 -0.000000e+00
   outer loop
     vertex -3.834629e-01 -9.710264e-01  6.552500e+00
     vertex -4.677817e-01 -9.333361e-01  6.547500e+00
     vertex -3.834629e-01 -9.710264e-01  6.547500e+00
   endloop
 endfacet
 facet normal -4.080836e-01 -9.129446e-01  0.000000e+00
   outer loop
     vertex -3.834629e-01 -9.710264e-01  6.552500e+00
     vertex -4.677817e-01 -9.333361e-01  6.552500e+00
     vertex -4.677817e-01 -9.333361e-01  6.547500e+00
   endloop
 endfacet
 facet normal -3.258006e-01 -9.454385e-01 -0.000000e+00
   outer loop
     vertex -2.961429e-01 -1.001117e+00  6.552500e+00
     vertex -3.834629e-01 -9.710264e-01  6.547500e+00
     vertex -2.961429e-01 -1.001117e+00  6.547500e+00
   endloop
 endfacet
 facet normal -3.258006e-01 -9.454385e-01  0.000000e+00
   outer loop
     vertex -2.961429e-01 -1.001117e+00  6.552500e+00
     vertex -3.834629e-01 -9.710264e-01  6.552500e+00
     vertex -3.834629e-01 -9.710264e-01  6.547500e+00
   endloop
 endfacet
 facet normal -2.409677e-01 -9.705331e-01 -0.000000e+00
   outer loop
     vertex -2.065052e-01 -1.023373e+00  6.552500e+00
     vertex -2.961429e-01 -1.001117e+00  6.547500e+00
     vertex -2.065052e-01 -1.023373e+00  6.547500e+00
   endloop
 endfacet
 facet normal -2.409677e-01 -9.705331e-01  0.000000e+00
   outer loop
     vertex -2.065052e-01 -1.023373e+00  6.552500e+00
     vertex -2.961429e-01 -1.001117e+00  6.552500e+00
     vertex -2.961429e-01 -1.001117e+00  6.547500e+00
   endloop
 endfacet
 facet normal -1.542489e-01 -9.880320e-01 -0.000000e+00
   outer loop
     vertex -1.152513e-01 -1.037619e+00  6.552500e+00
     vertex -2.065052e-01 -1.023373e+00  6.547500e+00
     vertex -1.152513e-01 -1.037619e+00  6.547500e+00
   endloop
 endfacet
 facet normal -1.542489e-01 -9.880320e-01  0.000000e+00
   outer loop
     vertex -1.152513e-01 -1.037619e+00  6.552500e+00
     vertex -2.065052e-01 -1.023373e+00  6.552500e+00
     vertex -2.065052e-01 -1.023373e+00  6.547500e+00
   endloop
 endfacet
 facet normal -6.632296e-02 -9.977982e-01 -0.000000e+00
   outer loop
     vertex -2.309546e-02 -1.043745e+00  6.552500e+00
     vertex -1.152513e-01 -1.037619e+00  6.547500e+00
     vertex -2.309546e-02 -1.043745e+00  6.547500e+00
   endloop
 endfacet
 facet normal -6.632296e-02 -9.977982e-01  0.000000e+00
   outer loop
     vertex -2.309546e-02 -1.043745e+00  6.552500e+00
     vertex -1.152513e-01 -1.037619e+00  6.552500e+00
     vertex -1.152513e-01 -1.037619e+00  6.547500e+00
   endloop
 endfacet
 facet normal  2.212209e-02 -9.997553e-01  0.000000e+00
   outer loop
     vertex  6.924117e-02 -1.041701e+00  6.552500e+00
     vertex -2.309546e-02 -1.043745e+00  6.547500e+00
     vertex  6.924117e-02 -1.041701e+00  6.547500e+00
   endloop
 endfacet
 facet normal  2.212209e-02 -9.997553e-01  0.000000e+00
   outer loop
     vertex  6.924117e-02 -1.041701e+00  6.552500e+00
     vertex -2.309546e-02 -1.043745e+00  6.552500e+00
     vertex -2.309546e-02 -1.043745e+00  6.547500e+00
   endloop
 endfacet
 facet normal  1.103940e-01 -9.938879e-01  0.000000e+00
   outer loop
     vertex  1.610359e-01 -1.031505e+00  6.552500e+00
     vertex  6.924117e-02 -1.041701e+00  6.547500e+00
     vertex  1.610359e-01 -1.031505e+00  6.547500e+00
   endloop
 endfacet
 facet normal  1.103940e-01 -9.938879e-01  0.000000e+00
   outer loop
     vertex  1.610359e-01 -1.031505e+00  6.552500e+00
     vertex  6.924117e-02 -1.041701e+00  6.552500e+00
     vertex  6.924117e-02 -1.041701e+00  6.547500e+00
   endloop
 endfacet
 facet normal  1.978019e-01 -9.802420e-01  0.000000e+00
   outer loop
     vertex  2.515703e-01 -1.013237e+00  6.552500e+00
     vertex  1.610359e-01 -1.031505e+00  6.547500e+00
     vertex  2.515703e-01 -1.013237e+00  6.547500e+00
   endloop
 endfacet
 facet normal  1.978019e-01 -9.802420e-01  0.000000e+00
   outer loop
     vertex  2.515703e-01 -1.013237e+00  6.552500e+00
     vertex  1.610359e-01 -1.031505e+00  6.552500e+00
     vertex  1.610359e-01 -1.031505e+00  6.547500e+00
   endloop
 endfacet
 facet normal  2.836618e-01 -9.589244e-01  0.000000e+00
   outer loop
     vertex  3.401358e-01 -9.870378e-01  6.552500e+00
     vertex  2.515703e-01 -1.013237e+00  6.547500e+00
     vertex  3.401358e-01 -9.870378e-01  6.547500e+00
   endloop
 endfacet
 facet normal  3.673016e-01 -9.301019e-01  0.000000e+00
   outer loop
     vertex  3.401358e-01 -9.870378e-01  6.552500e+00
     vertex  3.401358e-01 -9.870378e-01  6.547500e+00
     vertex  4.260393e-01 -9.531141e-01  6.547500e+00
   endloop
 endfacet
 facet normal  2.836618e-01 -9.589244e-01  0.000000e+00
   outer loop
     vertex  3.401358e-01 -9.870378e-01  6.552500e+00
     vertex  2.515703e-01 -1.013237e+00  6.552500e+00
     vertex  2.515703e-01 -1.013237e+00  6.547500e+00
   endloop
 endfacet
 facet normal  3.673016e-01 -9.301019e-01  0.000000e+00
   outer loop
     vertex  4.260393e-01 -9.531141e-01  6.552500e+00
     vertex  3.401358e-01 -9.870378e-01  6.552500e+00
     vertex  4.260393e-01 -9.531141e-01  6.547500e+00
   endloop
 endfacet
 facet normal  4.480668e-01 -8.940001e-01  0.000000e+00
   outer loop
     vertex  5.086084e-01 -9.117310e-01  6.552500e+00
     vertex  4.260393e-01 -9.531141e-01  6.547500e+00
     vertex  5.086084e-01 -9.117310e-01  6.547500e+00
   endloop
 endfacet
 facet normal  4.480668e-01 -8.940001e-01  0.000000e+00
   outer loop
     vertex  5.086084e-01 -9.117310e-01  6.552500e+00
     vertex  4.260393e-01 -9.531141e-01  6.552500e+00
     vertex  4.260393e-01 -9.531141e-01  6.547500e+00
   endloop
 endfacet
 facet normal  5.253252e-01 -8.509015e-01  0.000000e+00
   outer loop
     vertex  5.871971e-01 -8.632124e-01  6.552500e+00
     vertex  5.086084e-01 -9.117310e-01  6.547500e+00
     vertex  5.871971e-01 -8.632124e-01  6.547500e+00
   endloop
 endfacet
 facet normal  5.984723e-01 -8.011435e-01  0.000000e+00
   outer loop
     vertex  5.871971e-01 -8.632124e-01  6.552500e+00
     vertex  5.871971e-01 -8.632124e-01  6.547500e+00
     vertex  6.611901e-01 -8.079379e-01  6.547500e+00
   endloop
 endfacet
 facet normal  5.253252e-01 -8.509015e-01  0.000000e+00
   outer loop
     vertex  5.871971e-01 -8.632124e-01  6.552500e+00
     vertex  5.086084e-01 -9.117310e-01  6.552500e+00
     vertex  5.086084e-01 -9.117310e-01  6.547500e+00
   endloop
 endfacet
 facet normal  5.984723e-01 -8.011435e-01  0.000000e+00
   outer loop
     vertex  6.611901e-01 -8.079379e-01  6.552500e+00
     vertex  5.871971e-01 -8.632124e-01  6.552500e+00
     vertex  6.611901e-01 -8.079379e-01  6.547500e+00
   endloop
 endfacet
 facet normal  6.669355e-01 -7.451154e-01  0.000000e+00
   outer loop
     vertex  7.300083e-01 -7.463403e-01  6.552500e+00
     vertex  6.611901e-01 -8.079379e-01  6.547500e+00
     vertex  7.300083e-01 -7.463403e-01  6.547500e+00
   endloop
 endfacet
 facet normal  6.669355e-01 -7.451154e-01  0.000000e+00
   outer loop
     vertex  7.300083e-01 -7.463403e-01  6.552500e+00
     vertex  6.611901e-01 -8.079379e-01  6.552500e+00
     vertex  6.611901e-01 -8.079379e-01  6.547500e+00
   endloop
 endfacet
 facet normal  7.301791e-01 -6.832558e-01  0.000000e+00
   outer loop
     vertex  7.931133e-01 -6.789015e-01  6.552500e+00
     vertex  7.300083e-01 -7.463403e-01  6.547500e+00
     vertex  7.931133e-01 -6.789015e-01  6.547500e+00
   endloop
 endfacet
 facet normal  7.301791e-01 -6.832558e-01  0.000000e+00
   outer loop
     vertex  7.931133e-01 -6.789015e-01  6.552500e+00
     vertex  7.300083e-01 -7.463403e-01  6.552500e+00
     vertex  7.300083e-01 -7.463403e-01  6.547500e+00
   endloop
 endfacet
 facet normal  7.877080e-01 -6.160488e-01  0.000000e+00
   outer loop
     vertex  8.500111e-01 -6.061494e-01  6.552500e+00
     vertex  7.931133e-01 -6.789015e-01  6.547500e+00
     vertex  8.500111e-01 -6.061494e-01  6.547500e+00
   endloop
 endfacet
 facet normal  8.390720e-01 -5.440204e-01  0.000000e+00
   outer loop
     vertex  8.500111e-01 -6.061494e-01  6.552500e+00
     vertex  8.500111e-01 -6.061494e-01  6.547500e+00
     vertex  9.002564e-01 -5.286534e-01  6.547500e+00
   endloop
 endfacet
 facet normal  7.877080e-01 -6.160488e-01  0.000000e+00
   outer loop
     vertex  8.500111e-01 -6.061494e-01  6.552500e+00
     vertex  7.931133e-01 -6.789015e-01  6.552500e+00
     vertex  7.931133e-01 -6.789015e-01  6.547500e+00
   endloop
 endfacet
 facet normal  8.390720e-01 -5.440204e-01  0.000000e+00
   outer loop
     vertex  9.002564e-01 -5.286534e-01  6.552500e+00
     vertex  8.500111e-01 -6.061494e-01  6.552500e+00
     vertex  9.002564e-01 -5.286534e-01  6.547500e+00
   endloop
 endfacet
 facet normal  8.838691e-01 -4.677343e-01  0.000000e+00
   outer loop
     vertex  9.002564e-01 -5.286534e-01  6.552500e+00
     vertex  9.002564e-01 -5.286534e-01  6.547500e+00
     vertex  9.434560e-01 -4.470199e-01  6.547500e+00
   endloop
 endfacet
 facet normal  8.838691e-01 -4.677343e-01  0.000000e+00
   outer loop
     vertex  9.434560e-01 -4.470199e-01  6.552500e+00
     vertex  9.002564e-01 -5.286534e-01  6.552500e+00
     vertex  9.434560e-01 -4.470199e-01  6.547500e+00
   endloop
 endfacet
 facet normal  9.217488e-01 -3.877875e-01  0.000000e+00
   outer loop
     vertex  9.792717e-01 -3.618879e-01  6.552500e+00
     vertex  9.434560e-01 -4.470199e-01  6.552500e+00
     vertex  9.434560e-01 -4.470199e-01  6.547500e+00
   endloop
 endfacet
 facet normal  9.217488e-01 -3.877875e-01  0.000000e+00
   outer loop
     vertex  9.792717e-01 -3.618879e-01  6.552500e+00
     vertex  9.434560e-01 -4.470199e-01  6.547500e+00
     vertex  9.792717e-01 -3.618879e-01  6.547500e+00
   endloop
 endfacet
 facet normal  9.524145e-01 -3.048058e-01  0.000000e+00
   outer loop
     vertex  1.007423e+00 -2.739236e-01  6.552500e+00
     vertex  9.792717e-01 -3.618879e-01  6.552500e+00
     vertex  9.792717e-01 -3.618879e-01  6.547500e+00
   endloop
 endfacet
 facet normal  9.524145e-01 -3.048058e-01  0.000000e+00
   outer loop
     vertex  1.007423e+00 -2.739236e-01  6.552500e+00
     vertex  9.792717e-01 -3.618879e-01  6.547500e+00
     vertex  1.007423e+00 -2.739236e-01  6.547500e+00
   endloop
 endfacet
 facet normal  9.756263e-01 -2.194385e-01  0.000000e+00
   outer loop
     vertex  1.027691e+00 -1.838155e-01  6.552500e+00
     vertex  1.007423e+00 -2.739236e-01  6.552500e+00
     vertex  1.007423e+00 -2.739236e-01  6.547500e+00
   endloop
 endfacet
 facet normal  9.756263e-01 -2.194385e-01  0.000000e+00
   outer loop
     vertex  1.027691e+00 -1.838155e-01  6.552500e+00
     vertex  1.007423e+00 -2.739236e-01  6.547500e+00
     vertex  1.027691e+00 -1.838155e-01  6.547500e+00
   endloop
 endfacet
 facet normal  9.912025e-01 -1.323539e-01  0.000000e+00
   outer loop
     vertex  1.039915e+00 -9.226883e-02  6.552500e+00
     vertex  1.027691e+00 -1.838155e-01  6.552500e+00
     vertex  1.027691e+00 -1.838155e-01  6.547500e+00
   endloop
 endfacet
 facet normal  9.912025e-01 -1.323539e-01  0.000000e+00
   outer loop
     vertex  1.039915e+00 -9.226883e-02  6.552500e+00
     vertex  1.027691e+00 -1.838155e-01  6.547500e+00
     vertex  1.039915e+00 -9.226883e-02  6.547500e+00
   endloop
 endfacet
 facet normal  9.990212e-01 -4.423335e-02  0.000000e+00
   outer loop
     vertex  1.044000e+00 -2.557063e-16  6.552500e+00
     vertex  1.039915e+00 -9.226883e-02  6.552500e+00
     vertex  1.039915e+00 -9.226883e-02  6.547500e+00
   endloop
 endfacet
 facet normal  9.990212e-01 -4.423335e-02  0.000000e+00
   outer loop
     vertex  1.044000e+00 -2.557063e-16  6.552500e+00
     vertex  1.039915e+00 -9.226883e-02  6.547500e+00
     vertex  1.044000e+00 -2.557063e-16  6.547500e+00
   endloop
 endfacet
 facet normal  0.000000e+00  0.000000e+00  1.000000e+00
   outer loop
     vertex -2.065052e-01 -1.023373e+00  6.552500e+00
     vertex -3.834629e-01 -9.710264e-01  6.552500e+00
     vertex -2.961429e-01 -1.001117e+00  6.552500e+00
   endloop
 endfacet
 facet normal  0.000000e+00  0.000000e+00  1.000000e+00
   outer loop
     vertex -1.034815e+00  1.381774e-01  6.552500e+00
     vertex -1.042978e+00  4.617961e-02  6.552500e+00
     vertex -1.042978e+00 -4.617961e-02  6.552500e+00
   endloop
 endfacet
 facet normal  0.000000e+00  0.000000e+00  1.000000e+00
   outer loop
     vertex -9.943208e-01  3.182172e-01  6.552500e+00
     vertex -1.018554e+00  2.290938e-01  6.552500e+00
     vertex -1.034815e+00  1.381774e-01  6.552500e+00
   endloop
 endfacet
 facet normal  0.000000e+00  0.000000e+00  1.000000e+00
   outer loop
     vertex  4.260393e-01 -9.531141e-01  6.552500e+00
     vertex  2.515703e-01 -1.013237e+00  6.552500e+00
     vertex  3.401358e-01 -9.870378e-01  6.552500e+00
   endloop
 endfacet
 facet normal  0.000000e+00  0.000000e+00  1.000000e+00
   outer loop
     vertex -9.227594e-01  4.883146e-01  6.552500e+00
     vertex -9.623057e-01  4.048502e-01  6.552500e+00
     vertex -9.943208e-01  3.182172e-01  6.552500e+00
   endloop
 endfacet
 facet normal  0.000000e+00  0.000000e+00  1.000000e+00
   outer loop
     vertex  5.871971e-01 -8.632124e-01  6.552500e+00
     vertex  2.515703e-01 -1.013237e+00  6.552500e+00
     vertex  4.260393e-01 -9.531141e-01  6.552500e+00
   endloop
 endfacet
 facet normal  0.000000e+00  0.000000e+00  1.000000e+00
   outer loop
     vertex  5.871971e-01 -8.632124e-01  6.552500e+00
     vertex  4.260393e-01 -9.531141e-01  6.552500e+00
     vertex  5.086084e-01 -9.117310e-01  6.552500e+00
   endloop
 endfacet
 facet normal  0.000000e+00  0.000000e+00  1.000000e+00
   outer loop
     vertex  6.611901e-01 -8.079379e-01  6.552500e+00
     vertex  2.515703e-01 -1.013237e+00  6.552500e+00
     vertex  5.871971e-01 -8.632124e-01  6.552500e+00
   endloop
 endfacet
 facet normal  0.000000e+00  0.000000e+00  1.000000e+00
   outer loop
     vertex  8.500111e-01 -6.061494e-01  6.552500e+00
     vertex  6.611901e-01 -8.079379e-01  6.552500e+00
     vertex  7.300083e-01 -7.463403e-01  6.552500e+00
   endloop
 endfacet
 facet normal  0.000000e+00  0.000000e+00  1.000000e+00
   outer loop
     vertex  8.500111e-01 -6.061494e-01  6.552500e+00
     vertex  7.300083e-01 -7.463403e-01  6.552500e+00
     vertex  7.931133e-01 -6.789015e-01  6.552500e+00
   endloop
 endfacet
 facet normal  0.000000e+00  0.000000e+00  1.000000e+00
   outer loop
     vertex -5.484396e-01  8.883412e-01  6.552500e+00
     vertex -6.248051e-01  8.363938e-01  6.552500e+00
     vertex -6.962807e-01  7.779005e-01  6.552500e+00
   endloop
 endfacet
 facet normal  0.000000e+00  0.000000e+00  1.000000e+00
   outer loop
     vertex -5.484396e-01  8.883412e-01  6.552500e+00
     vertex -6.962807e-01  7.779005e-01  6.552500e+00
     vertex -7.623070e-01  7.133191e-01  6.552500e+00
   endloop
 endfacet
 facet normal  0.000000e+00  0.000000e+00  1.000000e+00
   outer loop
     vertex -5.484396e-01  8.883412e-01  6.552500e+00
     vertex -7.623070e-01  7.133191e-01  6.552500e+00
     vertex -8.223671e-01  6.431550e-01  6.552500e+00
   endloop
 endfacet
 facet normal  0.000000e+00  0.000000e+00  1.000000e+00
   outer loop
     vertex -5.484396e-01  8.883412e-01  6.552500e+00
     vertex -8.223671e-01  6.431550e-01  6.552500e+00
     vertex -8.759912e-01  5.679573e-01  6.552500e+00
   endloop
 endfacet
 facet normal  0.000000e+00  0.000000e+00  1.000000e+00
   outer loop
     vertex  9.002564e-01 -5.286534e-01  6.552500e+00
     vertex  6.611901e-01 -8.079379e-01  6.552500e+00
     vertex  8.500111e-01 -6.061494e-01  6.552500e+00
   endloop
 endfacet
 facet normal  0.000000e+00  0.000000e+00  1.000000e+00
   outer loop
     vertex  9.002564e-01 -5.286534e-01  6.552500e+00
     vertex  2.515703e-01 -1.013237e+00  6.552500e+00
     vertex  6.611901e-01 -8.079379e-01  6.552500e+00
   endloop
 endfacet
 facet normal  0.000000e+00  0.000000e+00  1.000000e+00
   outer loop
     vertex  9.002564e-01 -5.286534e-01  6.552500e+00
     vertex  6.924117e-02 -1.041701e+00  6.552500e+00
     vertex  1.610359e-01 -1.031505e+00  6.552500e+00
   endloop
 endfacet
 facet normal  0.000000e+00  0.000000e+00  1.000000e+00
   outer loop
     vertex  9.002564e-01 -5.286534e-01  6.552500e+00
     vertex  1.610359e-01 -1.031505e+00  6.552500e+00
     vertex  2.515703e-01 -1.013237e+00  6.552500e+00
   endloop
 endfacet
 facet normal  0.000000e+00  0.000000e+00  1.000000e+00
   outer loop
     vertex  1.007423e+00 -2.739236e-01  6.552500e+00
     vertex -7.623070e-01 -7.133191e-01  6.552500e+00
     vertex -6.962807e-01 -7.779005e-01  6.552500e+00
   endloop
 endfacet
 facet normal  0.000000e+00  0.000000e+00  1.000000e+00
   outer loop
     vertex  1.007423e+00 -2.739236e-01  6.552500e+00
     vertex -6.962807e-01 -7.779005e-01  6.552500e+00
     vertex -6.248051e-01 -8.363938e-01  6.552500e+00
   endloop
 endfacet
 facet normal  0.000000e+00  0.000000e+00  1.000000e+00
   outer loop
     vertex  1.007423e+00 -2.739236e-01  6.552500e+00
     vertex -6.248051e-01 -8.363938e-01  6.552500e+00
     vertex -5.484396e-01 -8.883412e-01  6.552500e+00
   endloop
 endfacet
 facet normal  0.000000e+00  0.000000e+00  1.000000e+00
   outer loop
     vertex  1.007423e+00 -2.739236e-01  6.552500e+00
     vertex -5.484396e-01 -8.883412e-01  6.552500e+00
     vertex -4.677817e-01 -9.333361e-01  6.552500e+00
   endloop
 endfacet
 facet normal  0.000000e+00  0.000000e+00  1.000000e+00
   outer loop
     vertex  1.007423e+00 -2.739236e-01  6.552500e+00
     vertex -4.677817e-01 -9.333361e-01  6.552500e+00
     vertex -3.834629e-01 -9.710264e-01  6.552500e+00
   endloop
 endfacet
 facet normal  0.000000e+00  0.000000e+00  1.000000e+00
   outer loop
     vertex  1.007423e+00 -2.739236e-01  6.552500e+00
     vertex -2.065052e-01 -1.023373e+00  6.552500e+00
     vertex -1.152513e-01 -1.037619e+00  6.552500e+00
   endloop
 endfacet
 facet normal  0.000000e+00  0.000000e+00  1.000000e+00
   outer loop
     vertex  1.007423e+00 -2.739236e-01  6.552500e+00
     vertex -1.152513e-01 -1.037619e+00  6.552500e+00
     vertex -2.309546e-02 -1.043745e+00  6.552500e+00
   endloop
 endfacet
 facet normal  0.000000e+00  0.000000e+00  1.000000e+00
   outer loop
     vertex  1.007423e+00 -2.739236e-01  6.552500e+00
     vertex -2.309546e-02 -1.043745e+00  6.552500e+00
     vertex  6.924117e-02 -1.041701e+00  6.552500e+00
   endloop
 endfacet
 facet normal  0.000000e+00  0.000000e+00  1.000000e+00
   outer loop
     vertex  1.007423e+00 -2.739236e-01  6.552500e+00
     vertex  9.002564e-01 -5.286534e-01  6.552500e+00
     vertex  9.434560e-01 -4.470199e-01  6.552500e+00
   endloop
 endfacet
 facet normal  0.000000e+00  0.000000e+00  1.000000e+00
   outer loop
     vertex  1.007423e+00 -2.739236e-01  6.552500e+00
     vertex  9.434560e-01 -4.470199e-01  6.552500e+00
     vertex  9.792717e-01 -3.618879e-01  6.552500e+00
   endloop
 endfacet
 facet normal  0.000000e+00  0.000000e+00  1.000000e+00
   outer loop
     vertex  1.007423e+00 -2.739236e-01  6.552500e+00
     vertex -3.834629e-01 -9.710264e-01  6.552500e+00
     vertex -2.065052e-01 -1.023373e+00  6.552500e+00
   endloop
 endfacet
 facet normal  0.000000e+00  0.000000e+00  1.000000e+00
   outer loop
     vertex  1.007423e+00 -2.739236e-01  6.552500e+00
     vertex  6.924117e-02 -1.041701e+00  6.552500e+00
     vertex  9.002564e-01 -5.286534e-01  6.552500e+00
   endloop
 endfacet
 facet normal  0.000000e+00  0.000000e+00  1.000000e+00
   outer loop
     vertex  1.039915e+00 -9.226883e-02  6.552500e+00
     vertex  1.007423e+00 -2.739236e-01  6.552500e+00
     vertex  1.027691e+00 -1.838155e-01  6.552500e+00
   endloop
 endfacet
 facet normal  0.000000e+00  0.000000e+00  1.000000e+00
   outer loop
     vertex -2.309546e-02  1.043745e+00  6.552500e+00
     vertex -1.152513e-01  1.037619e+00  6.552500e+00
     vertex -2.065052e-01  1.023373e+00  6.552500e+00
   endloop
 endfacet
 facet normal  0.000000e+00  0.000000e+00  1.000000e+00
   outer loop
     vertex -2.309546e-02  1.043745e+00  6.552500e+00
     vertex -2.065052e-01  1.023373e+00  6.552500e+00
     vertex -2.961429e-01  1.001117e+00  6.552500e+00
   endloop
 endfacet
 facet normal  0.000000e+00  0.000000e+00  1.000000e+00
   outer loop
     vertex -2.309546e-02  1.043745e+00  6.552500e+00
     vertex -2.961429e-01  1.001117e+00  6.552500e+00
     vertex -3.834629e-01  9.710264e-01  6.552500e+00
   endloop
 endfacet
 facet normal  0.000000e+00  0.000000e+00  1.000000e+00
   outer loop
     vertex  1.044000e+00 -2.557063e-16  6.552500e+00
     vertex  1.007423e+00 -2.739236e-01  6.552500e+00
     vertex  1.039915e+00 -9.226883e-02  6.552500e+00
   endloop
 endfacet
 facet normal  0.000000e+00  0.000000e+00  1.000000e+00
   outer loop
     vertex  1.044000e+00 -2.557063e-16  6.552500e+00
     vertex -7.623070e-01 -7.133191e-01  6.552500e+00
     vertex  1.007423e+00 -2.739236e-01  6.552500e+00
   endloop
 endfacet
 facet normal  0.000000e+00  0.000000e+00  1.000000e+00
   outer loop
     vertex  6.924117e-02  1.041701e+00  6.552500e+00
     vertex -3.834629e-01  9.710264e-01  6.552500e+00
     vertex -4.677817e-01  9.333361e-01  6.552500e+00
   endloop
 endfacet
 facet normal  0.000000e+00  0.000000e+00  1.000000e+00
   outer loop
     vertex  6.924117e-02  1.041701e+00  6.552500e+00
     vertex -4.677817e-01  9.333361e-01  6.552500e+00
     vertex -5.484396e-01  8.883412e-01  6.552500e+00
   endloop
 endfacet
 facet normal  0.000000e+00  0.000000e+00  1.000000e+00
   outer loop
     vertex  6.924117e-02  1.041701e+00  6.552500e+00
     vertex -8.759912e-01  5.679573e-01  6.552500e+00
     vertex -9.227594e-01  4.883146e-01  6.552500e+00
   endloop
 endfacet
 facet normal  0.000000e+00  0.000000e+00  1.000000e+00
   outer loop
     vertex  6.924117e-02  1.041701e+00  6.552500e+00
     vertex -2.309546e-02  1.043745e+00  6.552500e+00
     vertex -3.834629e-01  9.710264e-01  6.552500e+00
   endloop
 endfacet
 facet normal  0.000000e+00  0.000000e+00  1.000000e+00
   outer loop
     vertex  6.924117e-02  1.041701e+00  6.552500e+00
     vertex -5.484396e-01  8.883412e-01  6.552500e+00
     vertex -8.759912e-01  5.679573e-01  6.552500e+00
   endloop
 endfacet
 facet normal  0.000000e+00  0.000000e+00  1.000000e+00
   outer loop
     vertex  1.027691e+00  1.838155e-01  6.552500e+00
     vertex  1.044000e+00 -2.557063e-16  6.552500e+00
     vertex  1.039915e+00  9.226883e-02  6.552500e+00
   endloop
 endfacet
 facet normal  0.000000e+00  0.000000e+00  1.000000e+00
   outer loop
     vertex  2.515703e-01  1.013237e+00  6.552500e+00
     vertex -1.034815e+00  1.381774e-01  6.552500e+00
     vertex -1.042978e+00 -4.617961e-02  6.552500e+00
   endloop
 endfacet
 facet normal  0.000000e+00  0.000000e+00  1.000000e+00
   outer loop
     vertex  2.515703e-01  1.013237e+00  6.552500e+00
     vertex  1.610359e-01  1.031505e+00  6.552500e+00
     vertex  6.924117e-02  1.041701e+00  6.552500e+00
   endloop
 endfacet
 facet normal  0.000000e+00  0.000000e+00  1.000000e+00
   outer loop
     vertex  2.515703e-01  1.013237e+00  6.552500e+00
     vertex -9.227594e-01  4.883146e-01  6.552500e+00
     vertex -9.943208e-01  3.182172e-01  6.552500e+00
   endloop
 endfacet
 facet normal  0.000000e+00  0.000000e+00  1.000000e+00
   outer loop
     vertex  2.515703e-01  1.013237e+00  6.552500e+00
     vertex -9.943208e-01  3.182172e-01  6.552500e+00
     vertex -1.034815e+00  1.381774e-01  6.552500e+00
   endloop
 endfacet
 facet normal  0.000000e+00  0.000000e+00  1.000000e+00
   outer loop
     vertex  2.515703e-01  1.013237e+00  6.552500e+00
     vertex -1.042978e+00 -4.617961e-02  6.552500e+00
     vertex -1.034815e+00 -1.381774e-01  6.552500e+00
   endloop
 endfacet
 facet normal  0.000000e+00  0.000000e+00  1.000000e+00
   outer loop
     vertex  2.515703e-01  1.013237e+00  6.552500e+00
     vertex -1.034815e+00 -1.381774e-01  6.552500e+00
     vertex -1.018554e+00 -2.290938e-01  6.552500e+00
   endloop
 endfacet
 facet normal  0.000000e+00  0.000000e+00  1.000000e+00
   outer loop
     vertex  2.515703e-01  1.013237e+00  6.552500e+00
     vertex -1.018554e+00 -2.290938e-01  6.552500e+00
     vertex -9.943208e-01 -3.182172e-01  6.552500e+00
   endloop
 endfacet
 facet normal  0.000000e+00  0.000000e+00  1.000000e+00
   outer loop
     vertex  2.515703e-01  1.013237e+00  6.552500e+00
     vertex  6.924117e-02  1.041701e+00  6.552500e+00
     vertex -9.227594e-01  4.883146e-01  6.552500e+00
   endloop
 endfacet
 facet normal  0.000000e+00  0.000000e+00  1.000000e+00
   outer loop
     vertex  9.792717e-01  3.618879e-01  6.552500e+00
     vertex  1.027691e+00  1.838155e-01  6.552500e+00
     vertex  1.007423e+00  2.739236e-01  6.552500e+00
   endloop
 endfacet
 facet normal  0.000000e+00  0.000000e+00  1.000000e+00
   outer loop
     vertex  4.260393e-01  9.531141e-01  6.552500e+00
     vertex  3.401358e-01  9.870378e-01  6.552500e+00
     vertex  2.515703e-01  1.013237e+00  6.552500e+00
   endloop
 endfacet
 facet normal  0.000000e+00  0.000000e+00  1.000000e+00
   outer loop
     vertex  5.086084e-01  9.117310e-01  6.552500e+00
     vertex  4.260393e-01  9.531141e-01  6.552500e+00
     vertex  2.515703e-01  1.013237e+00  6.552500e+00
   endloop
 endfacet
 facet normal  0.000000e+00  0.000000e+00  1.000000e+00
   outer loop
     vertex  9.002564e-01  5.286534e-01  6.552500e+00
     vertex  9.792717e-01  3.618879e-01  6.552500e+00
     vertex  9.434560e-01  4.470199e-01  6.552500e+00
   endloop
 endfacet
 facet normal  0.000000e+00  0.000000e+00  1.000000e+00
   outer loop
     vertex  8.500111e-01  6.061494e-01  6.552500e+00
     vertex  9.792717e-01  3.618879e-01  6.552500e+00
     vertex  9.002564e-01  5.286534e-01  6.552500e+00
   endloop
 endfacet
 facet normal  0.000000e+00  0.000000e+00  1.000000e+00
   outer loop
     vertex  7.300083e-01  7.463403e-01  6.552500e+00
     vertex  8.500111e-01  6.061494e-01  6.552500e+00
     vertex  7.931133e-01  6.789015e-01  6.552500e+00
   endloop
 endfacet
 facet normal  0.000000e+00  0.000000e+00  1.000000e+00
   outer loop
     vertex  7.300083e-01  7.463403e-01  6.552500e+00
     vertex  9.792717e-01  3.618879e-01  6.552500e+00
     vertex  8.500111e-01  6.061494e-01  6.552500e+00
   endloop
 endfacet
 facet normal  0.000000e+00  0.000000e+00  1.000000e+00
   outer loop
     vertex  7.300083e-01  7.463403e-01  6.552500e+00
     vertex  6.611901e-01  8.079379e-01  6.552500e+00
     vertex  5.871971e-01  8.632124e-01  6.552500e+00
   endloop
 endfacet
 facet normal  0.000000e+00  0.000000e+00  1.000000e+00
   outer loop
     vertex  7.300083e-01  7.463403e-01  6.552500e+00
     vertex  5.871971e-01  8.632124e-01  6.552500e+00
     vertex  5.086084e-01  9.117310e-01  6.552500e+00
   endloop
 endfacet
 facet normal  0.000000e+00  0.000000e+00  1.000000e+00
   outer loop
     vertex  7.300083e-01  7.463403e-01  6.552500e+00
     vertex -9.943208e-01 -3.182172e-01  6.552500e+00
     vertex -9.623057e-01 -4.048502e-01  6.552500e+00
   endloop
 endfacet
 facet normal  0.000000e+00  0.000000e+00  1.000000e+00
   outer loop
     vertex  7.300083e-01  7.463403e-01  6.552500e+00
     vertex -9.623057e-01 -4.048502e-01  6.552500e+00
     vertex -9.227594e-01 -4.883146e-01  6.552500e+00
   endloop
 endfacet
 facet normal  0.000000e+00  0.000000e+00  1.000000e+00
   outer loop
     vertex  7.300083e-01  7.463403e-01  6.552500e+00
     vertex -9.227594e-01 -4.883146e-01  6.552500e+00
     vertex -8.759912e-01 -5.679573e-01  6.552500e+00
   endloop
 endfacet
 facet normal  0.000000e+00  0.000000e+00  1.000000e+00
   outer loop
     vertex  7.300083e-01  7.463403e-01  6.552500e+00
     vertex -8.759912e-01 -5.679573e-01  6.552500e+00
     vertex -8.223671e-01 -6.431550e-01  6.552500e+00
   endloop
 endfacet
 facet normal  0.000000e+00  0.000000e+00  1.000000e+00
   outer loop
     vertex  7.300083e-01  7.463403e-01  6.552500e+00
     vertex -8.223671e-01 -6.431550e-01  6.552500e+00
     vertex -7.623070e-01 -7.133191e-01  6.552500e+00
   endloop
 endfacet
 facet normal  0.000000e+00  0.000000e+00  1.000000e+00
   outer loop
     vertex  7.300083e-01  7.463403e-01  6.552500e+00
     vertex  2.515703e-01  1.013237e+00  6.552500e+00
     vertex -9.943208e-01 -3.182172e-01  6.552500e+00
   endloop
 endfacet
 facet normal  0.000000e+00  0.000000e+00  1.000000e+00
   outer loop
     vertex  7.300083e-01  7.463403e-01  6.552500e+00
     vertex  5.086084e-01  9.117310e-01  6.552500e+00
     vertex  2.515703e-01  1.013237e+00  6.552500e+00
   endloop
 endfacet
 facet normal  0.000000e+00  0.000000e+00  1.000000e+00
   outer loop
     vertex  7.300083e-01  7.463403e-01  6.552500e+00
     vertex -7.623070e-01 -7.133191e-01  6.552500e+00
     vertex  1.044000e+00 -2.557063e-16  6.552500e+00
   endloop
 endfacet
 facet normal  0.000000e+00  0.000000e+00  1.000000e+00
   outer loop
     vertex  7.300083e-01  7.463403e-01  6.552500e+00
     vertex  1.044000e+00 -2.557063e-16  6.552500e+00
     vertex  1.027691e+00  1.838155e-01  6.552500e+00
   endloop
 endfacet
 facet normal  0.000000e+00  0.000000e+00  1.000000e+00
   outer loop
     vertex  7.300083e-01  7.463403e-01  6.552500e+00
     vertex  1.027691e+00  1.838155e-01  6.552500e+00
     vertex  9.792717e-01  3.618879e-01  6.552500e+00
   endloop
 endfacet
 facet normal  0.000000e+00  0.000000e+00 -1.000000e+00
   outer loop
     vertex -2.065052e-01 -1.023373e+00  6.547500e+00
     vertex -2.961429e-01 -1.001117e+00  6.547500e+00
     vertex -3.834629e-01 -9.710264e-01  6.547500e+00
   endloop
 endfacet
 facet normal  0.000000e+00  0.000000e+00 -1.000000e+00
   outer loop
     vertex -1.034815e+00  1.381774e-01  6.547500e+00
     vertex -1.042978e+00 -4.617961e-02  6.547500e+00
     vertex -1.042978e+00  4.617961e-02  6.547500e+00
   endloop
 endfacet
 facet normal  0.000000e+00  0.000000e+00 -1.000000e+00
   outer loop
     vertex -9.943208e-01  3.182172e-01  6.547500e+00
     vertex -1.034815e+00  1.381774e-01  6.547500e+00
     vertex -1.018554e+00  2.290938e-01  6.547500e+00
   endloop
 endfacet
 facet normal  0.000000e+00  0.000000e+00 -1.000000e+00
   outer loop
     vertex  4.260393e-01 -9.531141e-01  6.547500e+00
     vertex  3.401358e-01 -9.870378e-01  6.547500e+00
     vertex  2.515703e-01 -1.013237e+00  6.547500e+00
   endloop
 endfacet
 facet normal  0.000000e+00  0.000000e+00 -1.000000e+00
   outer loop
     vertex -9.227594e-01  4.883146e-01  6.547500e+00
     vertex -9.943208e-01  3.182172e-01  6.547500e+00
     vertex -9.623057e-01  4.048502e-01  6.547500e+00
   endloop
 endfacet
 facet normal  0.000000e+00  0.000000e+00 -1.000000e+00
   outer loop
     vertex  5.871971e-01 -8.632124e-01  6.547500e+00
     vertex  4.260393e-01 -9.531141e-01  6.547500e+00
     vertex  2.515703e-01 -1.013237e+00  6.547500e+00
   endloop
 endfacet
 facet normal  0.000000e+00  0.000000e+00 -1.000000e+00
   outer loop
     vertex  5.871971e-01 -8.632124e-01  6.547500e+00
     vertex  5.086084e-01 -9.117310e-01  6.547500e+00
     vertex  4.260393e-01 -9.531141e-01  6.547500e+00
   endloop
 endfacet
 facet normal  0.000000e+00  0.000000e+00 -1.000000e+00
   outer loop
     vertex  6.611901e-01 -8.079379e-01  6.547500e+00
     vertex  5.871971e-01 -8.632124e-01  6.547500e+00
     vertex  2.515703e-01 -1.013237e+00  6.547500e+00
   endloop
 endfacet
 facet normal  0.000000e+00  0.000000e+00 -1.000000e+00
   outer loop
     vertex  8.500111e-01 -6.061494e-01  6.547500e+00
     vertex  7.300083e-01 -7.463403e-01  6.547500e+00
     vertex  6.611901e-01 -8.079379e-01  6.547500e+00
   endloop
 endfacet
 facet normal  0.000000e+00  0.000000e+00 -1.000000e+00
   outer loop
     vertex  8.500111e-01 -6.061494e-01  6.547500e+00
     vertex  7.931133e-01 -6.789015e-01  6.547500e+00
     vertex  7.300083e-01 -7.463403e-01  6.547500e+00
   endloop
 endfacet
 facet normal  0.000000e+00  0.000000e+00 -1.000000e+00
   outer loop
     vertex -5.484396e-01  8.883412e-01  6.547500e+00
     vertex -6.962807e-01  7.779005e-01  6.547500e+00
     vertex -6.248051e-01  8.363938e-01  6.547500e+00
   endloop
 endfacet
 facet normal  0.000000e+00  0.000000e+00 -1.000000e+00
   outer loop
     vertex -5.484396e-01  8.883412e-01  6.547500e+00
     vertex -7.623070e-01  7.133191e-01  6.547500e+00
     vertex -6.962807e-01  7.779005e-01  6.547500e+00
   endloop
 endfacet
 facet normal  0.000000e+00  0.000000e+00 -1.000000e+00
   outer loop
     vertex -5.484396e-01  8.883412e-01  6.547500e+00
     vertex -8.223671e-01  6.431550e-01  6.547500e+00
     vertex -7.623070e-01  7.133191e-01  6.547500e+00
   endloop
 endfacet
 facet normal  0.000000e+00  0.000000e+00 -1.000000e+00
   outer loop
     vertex -5.484396e-01  8.883412e-01  6.547500e+00
     vertex -8.759912e-01  5.679573e-01  6.547500e+00
     vertex -8.223671e-01  6.431550e-01  6.547500e+00
   endloop
 endfacet
 facet normal  0.000000e+00  0.000000e+00 -1.000000e+00
   outer loop
     vertex  9.002564e-01 -5.286534e-01  6.547500e+00
     vertex  8.500111e-01 -6.061494e-01  6.547500e+00
     vertex  6.611901e-01 -8.079379e-01  6.547500e+00
   endloop
 endfacet
 facet normal  0.000000e+00  0.000000e+00 -1.000000e+00
   outer loop
     vertex  9.002564e-01 -5.286534e-01  6.547500e+00
     vertex  6.611901e-01 -8.079379e-01  6.547500e+00
     vertex  2.515703e-01 -1.013237e+00  6.547500e+00
   endloop
 endfacet
 facet normal  0.000000e+00  0.000000e+00 -1.000000e+00
   outer loop
     vertex  9.002564e-01 -5.286534e-01  6.547500e+00
     vertex  1.610359e-01 -1.031505e+00  6.547500e+00
     vertex  6.924117e-02 -1.041701e+00  6.547500e+00
   endloop
 endfacet
 facet normal  0.000000e+00  0.000000e+00 -1.000000e+00
   outer loop
     vertex  9.002564e-01 -5.286534e-01  6.547500e+00
     vertex  2.515703e-01 -1.013237e+00  6.547500e+00
     vertex  1.610359e-01 -1.031505e+00  6.547500e+00
   endloop
 endfacet
 facet normal  0.000000e+00  0.000000e+00 -1.000000e+00
   outer loop
     vertex  1.007423e+00 -2.739236e-01  6.547500e+00
     vertex -6.962807e-01 -7.779005e-01  6.547500e+00
     vertex -7.623070e-01 -7.133191e-01  6.547500e+00
   endloop
 endfacet
 facet normal  0.000000e+00  0.000000e+00 -1.000000e+00
   outer loop
     vertex  1.007423e+00 -2.739236e-01  6.547500e+00
     vertex -6.248051e-01 -8.363938e-01  6.547500e+00
     vertex -6.962807e-01 -7.779005e-01  6.547500e+00
   endloop
 endfacet
 facet normal  0.000000e+00  0.000000e+00 -1.000000e+00
   outer loop
     vertex  1.007423e+00 -2.739236e-01  6.547500e+00
     vertex -5.484396e-01 -8.883412e-01  6.547500e+00
     vertex -6.248051e-01 -8.363938e-01  6.547500e+00
   endloop
 endfacet
 facet normal  0.000000e+00  0.000000e+00 -1.000000e+00
   outer loop
     vertex  1.007423e+00 -2.739236e-01  6.547500e+00
     vertex -4.677817e-01 -9.333361e-01  6.547500e+00
     vertex -5.484396e-01 -8.883412e-01  6.547500e+00
   endloop
 endfacet
 facet normal  0.000000e+00  0.000000e+00 -1.000000e+00
   outer loop
     vertex  1.007423e+00 -2.739236e-01  6.547500e+00
     vertex -3.834629e-01 -9.710264e-01  6.547500e+00
     vertex -4.677817e-01 -9.333361e-01  6.547500e+00
   endloop
 endfacet
 facet normal  0.000000e+00  0.000000e+00 -1.000000e+00
   outer loop
     vertex  1.007423e+00 -2.739236e-01  6.547500e+00
     vertex -1.152513e-01 -1.037619e+00  6.547500e+00
     vertex -2.065052e-01 -1.023373e+00  6.547500e+00
   endloop
 endfacet
 facet normal  0.000000e+00  0.000000e+00 -1.000000e+00
   outer loop
     vertex  1.007423e+00 -2.739236e-01  6.547500e+00
     vertex -2.309546e-02 -1.043745e+00  6.547500e+00
     vertex -1.152513e-01 -1.037619e+00  6.547500e+00
   endloop
 endfacet
 facet normal  0.000000e+00  0.000000e+00 -1.000000e+00
   outer loop
     vertex  1.007423e+00 -2.739236e-01  6.547500e+00
     vertex  6.924117e-02 -1.041701e+00  6.547500e+00
     vertex -2.309546e-02 -1.043745e+00  6.547500e+00
   endloop
 endfacet
 facet normal  0.000000e+00  0.000000e+00 -1.000000e+00
   outer loop
     vertex  1.007423e+00 -2.739236e-01  6.547500e+00
     vertex  9.434560e-01 -4.470199e-01  6.547500e+00
     vertex  9.002564e-01 -5.286534e-01  6.547500e+00
   endloop
 endfacet
 facet normal  0.000000e+00  0.000000e+00 -1.000000e+00
   outer loop
     vertex  1.007423e+00 -2.739236e-01  6.547500e+00
     vertex  9.792717e-01 -3.618879e-01  6.547500e+00
     vertex  9.434560e-01 -4.470199e-01  6.547500e+00
   endloop
 endfacet
 facet normal  0.000000e+00  0.000000e+00 -1.000000e+00
   outer loop
     vertex  1.007423e+00 -2.739236e-01  6.547500e+00
     vertex -2.065052e-01 -1.023373e+00  6.547500e+00
     vertex -3.834629e-01 -9.710264e-01  6.547500e+00
   endloop
 endfacet
 facet normal  0.000000e+00  0.000000e+00 -1.000000e+00
   outer loop
     vertex  1.007423e+00 -2.739236e-01  6.547500e+00
     vertex  9.002564e-01 -5.286534e-01  6.547500e+00
     vertex  6.924117e-02 -1.041701e+00  6.547500e+00
   endloop
 endfacet
 facet normal  0.000000e+00  0.000000e+00 -1.000000e+00
   outer loop
     vertex  1.039915e+00 -9.226883e-02  6.547500e+00
     vertex  1.027691e+00 -1.838155e-01  6.547500e+00
     vertex  1.007423e+00 -2.739236e-01  6.547500e+00
   endloop
 endfacet
 facet normal  0.000000e+00  0.000000e+00 -1.000000e+00
   outer loop
     vertex -2.309546e-02  1.043745e+00  6.547500e+00
     vertex -2.065052e-01  1.023373e+00  6.547500e+00
     vertex -1.152513e-01  1.037619e+00  6.547500e+00
   endloop
 endfacet
 facet normal  0.000000e+00  0.000000e+00 -1.000000e+00
   outer loop
     vertex -2.309546e-02  1.043745e+00  6.547500e+00
     vertex -2.961429e-01  1.001117e+00  6.547500e+00
     vertex -2.065052e-01  1.023373e+00  6.547500e+00
   endloop
 endfacet
 facet normal  0.000000e+00  0.000000e+00 -1.000000e+00
   outer loop
     vertex -2.309546e-02  1.043745e+00  6.547500e+00
     vertex -3.834629e-01  9.710264e-01  6.547500e+00
     vertex -2.961429e-01  1.001117e+00  6.547500e+00
   endloop
 endfacet
 facet normal  0.000000e+00  0.000000e+00 -1.000000e+00
   outer loop
     vertex  1.044000e+00 -2.557063e-16  6.547500e+00
     vertex  1.039915e+00 -9.226883e-02  6.547500e+00
     vertex  1.007423e+00 -2.739236e-01  6.547500e+00
   endloop
 endfacet
 facet normal  0.000000e+00  0.000000e+00 -1.000000e+00
   outer loop
     vertex  1.044000e+00 -2.557063e-16  6.547500e+00
     vertex  1.007423e+00 -2.739236e-01  6.547500e+00
     vertex -7.623070e-01 -7.133191e-01  6.547500e+00
   endloop
 endfacet
 facet normal  0.000000e+00  0.000000e+00 -1.000000e+00
   outer loop
     vertex  6.924117e-02  1.041701e+00  6.547500e+00
     vertex -4.677817e-01  9.333361e-01  6.547500e+00
     vertex -3.834629e-01  9.710264e-01  6.547500e+00
   endloop
 endfacet
 facet normal  0.000000e+00  0.000000e+00 -1.000000e+00
   outer loop
     vertex  6.924117e-02  1.041701e+00  6.547500e+00
     vertex -5.484396e-01  8.883412e-01  6.547500e+00
     vertex -4.677817e-01  9.333361e-01  6.547500e+00
   endloop
 endfacet
 facet normal  0.000000e+00  0.000000e+00 -1.000000e+00
   outer loop
     vertex  6.924117e-02  1.041701e+00  6.547500e+00
     vertex -9.227594e-01  4.883146e-01  6.547500e+00
     vertex -8.759912e-01  5.679573e-01  6.547500e+00
   endloop
 endfacet
 facet normal -0.000000e+00  0.000000e+00 -1.000000e+00
   outer loop
     vertex  6.924117e-02  1.041701e+00  6.547500e+00
     vertex -3.834629e-01  9.710264e-01  6.547500e+00
     vertex -2.309546e-02  1.043745e+00  6.547500e+00
   endloop
 endfacet
 facet normal  0.000000e+00  0.000000e+00 -1.000000e+00
   outer loop
     vertex  6.924117e-02  1.041701e+00  6.547500e+00
     vertex -8.759912e-01  5.679573e-01  6.547500e+00
     vertex -5.484396e-01  8.883412e-01  6.547500e+00
   endloop
 endfacet
 facet normal  0.000000e+00  0.000000e+00 -1.000000e+00
   outer loop
     vertex  1.027691e+00  1.838155e-01  6.547500e+00
     vertex  1.039915e+00  9.226883e-02  6.547500e+00
     vertex  1.044000e+00 -2.557063e-16  6.547500e+00
   endloop
 endfacet
 facet normal  0.000000e+00  0.000000e+00 -1.000000e+00
   outer loop
     vertex  2.515703e-01  1.013237e+00  6.547500e+00
     vertex -1.042978e+00 -4.617961e-02  6.547500e+00
     vertex -1.034815e+00  1.381774e-01  6.547500e+00
   endloop
 endfacet
 facet normal  0.000000e+00  0.000000e+00 -1.000000e+00
   outer loop
     vertex  2.515703e-01  1.013237e+00  6.547500e+00
     vertex  6.924117e-02  1.041701e+00  6.547500e+00
     vertex  1.610359e-01  1.031505e+00  6.547500e+00
   endloop
 endfacet
 facet normal  0.000000e+00  0.000000e+00 -1.000000e+00
   outer loop
     vertex  2.515703e-01  1.013237e+00  6.547500e+00
     vertex -9.943208e-01  3.182172e-01  6.547500e+00
     vertex -9.227594e-01  4.883146e-01  6.547500e+00
   endloop
 endfacet
 facet normal  0.000000e+00  0.000000e+00 -1.000000e+00
   outer loop
     vertex  2.515703e-01  1.013237e+00  6.547500e+00
     vertex -1.034815e+00  1.381774e-01  6.547500e+00
     vertex -9.943208e-01  3.182172e-01  6.547500e+00
   endloop
 endfacet
 facet normal  0.000000e+00  0.000000e+00 -1.000000e+00
   outer loop
     vertex  2.515703e-01  1.013237e+00  6.547500e+00
     vertex -1.034815e+00 -1.381774e-01  6.547500e+00
     vertex -1.042978e+00 -4.617961e-02  6.547500e+00
   endloop
 endfacet
 facet normal  0.000000e+00  0.000000e+00 -1.000000e+00
   outer loop
     vertex  2.515703e-01  1.013237e+00  6.547500e+00
     vertex -1.018554e+00 -2.290938e-01  6.547500e+00
     vertex -1.034815e+00 -1.381774e-01  6.547500e+00
   endloop
 endfacet
 facet normal  0.000000e+00  0.000000e+00 -1.000000e+00
   outer loop
     vertex  2.515703e-01  1.013237e+00  6.547500e+00
     vertex -9.943208e-01 -3.182172e-01  6.547500e+00
     vertex -1.018554e+00 -2.290938e-01  6.547500e+00
   endloop
 endfacet
 facet normal -0.000000e+00  0.000000e+00 -1.000000e+00
   outer loop
     vertex  2.515703e-01  1.013237e+00  6.547500e+00
     vertex -9.227594e-01  4.883146e-01  6.547500e+00
     vertex  6.924117e-02  1.041701e+00  6.547500e+00
   endloop
 endfacet
 facet normal  0.000000e+00  0.000000e+00 -1.000000e+00
   outer loop
     vertex  9.792717e-01  3.618879e-01  6.547500e+00
     vertex  1.007423e+00  2.739236e-01  6.547500e+00
     vertex  1.027691e+00  1.838155e-01  6.547500e+00
   endloop
 endfacet
 facet normal  0.000000e+00  0.000000e+00 -1.000000e+00
   outer loop
     vertex  4.260393e-01  9.531141e-01  6.547500e+00
     vertex  2.515703e-01  1.013237e+00  6.547500e+00
     vertex  3.401358e-01  9.870378e-01  6.547500e+00
   endloop
 endfacet
 facet normal  0.000000e+00  0.000000e+00 -1.000000e+00
   outer loop
     vertex  5.086084e-01  9.117310e-01  6.547500e+00
     vertex  2.515703e-01  1.013237e+00  6.547500e+00
     vertex  4.260393e-01  9.531141e-01  6.547500e+00
   endloop
 endfacet
 facet normal  0.000000e+00  0.000000e+00 -1.000000e+00
   outer loop
     vertex  9.002564e-01  5.286534e-01  6.547500e+00
     vertex  9.434560e-01  4.470199e-01  6.547500e+00
     vertex  9.792717e-01  3.618879e-01  6.547500e+00
   endloop
 endfacet
 facet normal  0.000000e+00  0.000000e+00 -1.000000e+00
   outer loop
     vertex  8.500111e-01  6.061494e-01  6.547500e+00
     vertex  9.002564e-01  5.286534e-01  6.547500e+00
     vertex  9.792717e-01  3.618879e-01  6.547500e+00
   endloop
 endfacet
 facet normal  0.000000e+00  0.000000e+00 -1.000000e+00
   outer loop
     vertex  7.300083e-01  7.463403e-01  6.547500e+00
     vertex  7.931133e-01  6.789015e-01  6.547500e+00
     vertex  8.500111e-01  6.061494e-01  6.547500e+00
   endloop
 endfacet
 facet normal  0.000000e+00  0.000000e+00 -1.000000e+00
   outer loop
     vertex  7.300083e-01  7.463403e-01  6.547500e+00
     vertex  8.500111e-01  6.061494e-01  6.547500e+00
     vertex  9.792717e-01  3.618879e-01  6.547500e+00
   endloop
 endfacet
 facet normal  0.000000e+00  0.000000e+00 -1.000000e+00
   outer loop
     vertex  7.300083e-01  7.463403e-01  6.547500e+00
     vertex  5.871971e-01  8.632124e-01  6.547500e+00
     vertex  6.611901e-01  8.079379e-01  6.547500e+00
   endloop
 endfacet
 facet normal  0.000000e+00  0.000000e+00 -1.000000e+00
   outer loop
     vertex  7.300083e-01  7.463403e-01  6.547500e+00
     vertex  5.086084e-01  9.117310e-01  6.547500e+00
     vertex  5.871971e-01  8.632124e-01  6.547500e+00
   endloop
 endfacet
 facet normal  0.000000e+00  0.000000e+00 -1.000000e+00
   outer loop
     vertex  7.300083e-01  7.463403e-01  6.547500e+00
     vertex -9.623057e-01 -4.048502e-01  6.547500e+00
     vertex -9.943208e-01 -3.182172e-01  6.547500e+00
   endloop
 endfacet
 facet normal  0.000000e+00  0.000000e+00 -1.000000e+00
   outer loop
     vertex  7.300083e-01  7.463403e-01  6.547500e+00
     vertex -9.227594e-01 -4.883146e-01  6.547500e+00
     vertex -9.623057e-01 -4.048502e-01  6.547500e+00
   endloop
 endfacet
 facet normal  0.000000e+00  0.000000e+00 -1.000000e+00
   outer loop
     vertex  7.300083e-01  7.463403e-01  6.547500e+00
     vertex -8.759912e-01 -5.679573e-01  6.547500e+00
     vertex -9.227594e-01 -4.883146e-01  6.547500e+00
   endloop
 endfacet
 facet normal  0.000000e+00  0.000000e+00 -1.000000e+00
   outer loop
     vertex  7.300083e-01  7.463403e-01  6.547500e+00
     vertex -8.223671e-01 -6.431550e-01  6.547500e+00
     vertex -8.759912e-01 -5.679573e-01  6.547500e+00
   endloop
 endfacet
 facet normal  0.000000e+00  0.000000e+00 -1.000000e+00
   outer loop
     vertex  7.300083e-01  7.463403e-01  6.547500e+00
     vertex -7.623070e-01 -7.133191e-01  6.547500e+00
     vertex -8.223671e-01 -6.431550e-01  6.547500e+00
   endloop
 endfacet
 facet normal -0.000000e+00  0.000000e+00 -1.000000e+00
   outer loop
     vertex  7.300083e-01  7.463403e-01  6.547500e+00
     vertex -9.943208e-01 -3.182172e-01  6.547500e+00
     vertex  2.515703e-01  1.013237e+00  6.547500e+00
   endloop
 endfacet
 facet normal  0.000000e+00  0.000000e+00 -1.000000e+00
   outer loop
     vertex  7.300083e-01  7.463403e-01  6.547500e+00
     vertex  2.515703e-01  1.013237e+00  6.547500e+00
     vertex  5.086084e-01  9.117310e-01  6.547500e+00
   endloop
 endfacet
 facet normal  0.000000e+00 -0.000000e+00 -1.000000e+00
   outer loop
     vertex  7.300083e-01  7.463403e-01  6.547500e+00
     vertex  1.044000e+00 -2.557063e-16  6.547500e+00
     vertex -7.623070e-01 -7.133191e-01  6.547500e+00
   endloop
 endfacet
 facet normal  0.000000e+00  0.000000e+00 -1.000000e+00
   outer loop
     vertex  7.300083e-01  7.463403e-01  6.547500e+00
     vertex  1.027691e+00  1.838155e-01  6.547500e+00
     vertex  1.044000e+00 -2.557063e-16  6.547500e+00
   endloop
 endfacet
 facet normal  0.000000e+00  0.000000e+00 -1.000000e+00
   outer loop
     vertex  7.300083e-01  7.463403e-01  6.547500e+00
     vertex  9.792717e-01  3.618879e-01  6.547500e+00
     vertex  1.027691e+00  1.838155e-01  6.547500e+00
   endloop
 endfacet
endsolid
