solid 
 facet normal -5.000000e-01  8.660254e-01  0.000000e+00
   outer loop
     vertex  8.230385e-02 -1.545544e-01  1.190000e+00
     vertex  9.269615e-02 -1.485544e-01  1.050000e+00
     vertex  8.230385e-02 -1.545544e-01  1.050000e+00
   endloop
 endfacet
 facet normal -5.000000e-01  8.660254e-01  0.000000e+00
   outer loop
     vertex  8.230385e-02 -1.545544e-01  1.190000e+00
     vertex  9.269615e-02 -1.485544e-01  1.190000e+00
     vertex  9.269615e-02 -1.485544e-01  1.050000e+00
   endloop
 endfacet
 facet normal  5.000000e-01 -8.660254e-01  0.000000e+00
   outer loop
     vertex  1.698038e-01 -3.061089e-01  1.190000e+00
     vertex  1.698038e-01 -3.061089e-01  1.050000e+00
     vertex  1.801962e-01 -3.001089e-01  1.050000e+00
   endloop
 endfacet
 facet normal  5.000000e-01 -8.660254e-01  0.000000e+00
   outer loop
     vertex  1.698038e-01 -3.061089e-01  1.190000e+00
     vertex  1.801962e-01 -3.001089e-01  1.050000e+00
     vertex  1.801962e-01 -3.001089e-01  1.190000e+00
   endloop
 endfacet
 facet normal -8.660254e-01 -5.000000e-01 -0.000000e+00
   outer loop
     vertex  1.698038e-01 -3.061089e-01  1.190000e+00
     vertex  8.230385e-02 -1.545544e-01  1.050000e+00
     vertex  1.698038e-01 -3.061089e-01  1.050000e+00
   endloop
 endfacet
 facet normal -8.660254e-01 -5.000000e-01  0.000000e+00
   outer loop
     vertex  1.698038e-01 -3.061089e-01  1.190000e+00
     vertex  8.230385e-02 -1.545544e-01  1.190000e+00
     vertex  8.230385e-02 -1.545544e-01  1.050000e+00
   endloop
 endfacet
 facet normal  8.660254e-01  5.000000e-01  0.000000e+00
   outer loop
     vertex  1.801962e-01 -3.001089e-01  1.190000e+00
     vertex  1.801962e-01 -3.001089e-01  1.050000e+00
     vertex  9.269615e-02 -1.485544e-01  1.050000e+00
   endloop
 endfacet
 facet normal  8.660254e-01  5.000000e-01  0.000000e+00
   outer loop
     vertex  1.801962e-01 -3.001089e-01  1.190000e+00
     vertex  9.269615e-02 -1.485544e-01  1.050000e+00
     vertex  9.269615e-02 -1.485544e-01  1.190000e+00
   endloop
 endfacet
 facet normal  0.000000e+00  0.000000e+00 -1.000000e+00
   outer loop
     vertex  1.801962e-01 -3.001089e-01  1.050000e+00
     vertex  8.230385e-02 -1.545544e-01  1.050000e+00
     vertex  9.269615e-02 -1.485544e-01  1.050000e+00
   endloop
 endfacet
 facet normal -0.000000e+00  0.000000e+00 -1.000000e+00
   outer loop
     vertex  1.801962e-01 -3.001089e-01  1.050000e+00
     vertex  1.698038e-01 -3.061089e-01  1.050000e+00
     vertex  8.230385e-02 -1.545544e-01  1.050000e+00
   endloop
 endfacet
 facet normal  0.000000e+00  0.000000e+00  1.000000e+00
   outer loop
     vertex  1.801962e-01 -3.001089e-01  1.190000e+00
     vertex  9.269615e-02 -1.485544e-01  1.190000e+00
     vertex  8.230385e-02 -1.545544e-01  1.190000e+00
   endloop
 endfacet
 facet normal  0.000000e+00  0.000000e+00  1.000000e+00
   outer loop
     vertex  1.801962e-01 -3.001089e-01  1.190000e+00
     vertex  8.230385e-02 -1.545544e-01  1.190000e+00
     vertex  1.698038e-01 -3.061089e-01  1.190000e+00
   endloop
 endfacet
 facet normal  5.000000e-01  8.660254e-01  0.000000e+00
   outer loop
     vertex -9.269615e-02 -1.485544e-01  1.190000e+00
     vertex -8.230385e-02 -1.545544e-01  1.050000e+00
     vertex -9.269615e-02 -1.485544e-01  1.050000e+00
   endloop
 endfacet
 facet normal  5.000000e-01  8.660254e-01  0.000000e+00
   outer loop
     vertex -9.269615e-02 -1.485544e-01  1.190000e+00
     vertex -8.230385e-02 -1.545544e-01  1.190000e+00
     vertex -8.230385e-02 -1.545544e-01  1.050000e+00
   endloop
 endfacet
 facet normal -5.000000e-01 -8.660254e-01 -0.000000e+00
   outer loop
     vertex -1.801962e-01 -3.001089e-01  1.190000e+00
     vertex -1.801962e-01 -3.001089e-01  1.050000e+00
     vertex -1.698038e-01 -3.061089e-01  1.050000e+00
   endloop
 endfacet
 facet normal -5.000000e-01 -8.660254e-01  0.000000e+00
   outer loop
     vertex -1.801962e-01 -3.001089e-01  1.190000e+00
     vertex -1.698038e-01 -3.061089e-01  1.050000e+00
     vertex -1.698038e-01 -3.061089e-01  1.190000e+00
   endloop
 endfacet
 facet normal -8.660254e-01  5.000000e-01  0.000000e+00
   outer loop
     vertex -1.801962e-01 -3.001089e-01  1.190000e+00
     vertex -9.269615e-02 -1.485544e-01  1.050000e+00
     vertex -1.801962e-01 -3.001089e-01  1.050000e+00
   endloop
 endfacet
 facet normal -8.660254e-01  5.000000e-01  0.000000e+00
   outer loop
     vertex -1.801962e-01 -3.001089e-01  1.190000e+00
     vertex -9.269615e-02 -1.485544e-01  1.190000e+00
     vertex -9.269615e-02 -1.485544e-01  1.050000e+00
   endloop
 endfacet
 facet normal  8.660254e-01 -5.000000e-01  0.000000e+00
   outer loop
     vertex -1.698038e-01 -3.061089e-01  1.190000e+00
     vertex -1.698038e-01 -3.061089e-01  1.050000e+00
     vertex -8.230385e-02 -1.545544e-01  1.050000e+00
   endloop
 endfacet
 facet normal  8.660254e-01 -5.000000e-01  0.000000e+00
   outer loop
     vertex -1.698038e-01 -3.061089e-01  1.190000e+00
     vertex -8.230385e-02 -1.545544e-01  1.050000e+00
     vertex -8.230385e-02 -1.545544e-01  1.190000e+00
   endloop
 endfacet
 facet normal  0.000000e+00  0.000000e+00 -1.000000e+00
   outer loop
     vertex -1.698038e-01 -3.061089e-01  1.050000e+00
     vertex -9.269615e-02 -1.485544e-01  1.050000e+00
     vertex -8.230385e-02 -1.545544e-01  1.050000e+00
   endloop
 endfacet
 facet normal  0.000000e+00  0.000000e+00 -1.000000e+00
   outer loop
     vertex -1.698038e-01 -3.061089e-01  1.050000e+00
     vertex -1.801962e-01 -3.001089e-01  1.050000e+00
     vertex -9.269615e-02 -1.485544e-01  1.050000e+00
   endloop
 endfacet
 facet normal  0.000000e+00  0.000000e+00  1.000000e+00
   outer loop
     vertex -1.698038e-01 -3.061089e-01  1.190000e+00
     vertex -8.230385e-02 -1.545544e-01  1.190000e+00
     vertex -9.269615e-02 -1.485544e-01  1.190000e+00
   endloop
 endfacet
 facet normal  0.000000e+00 -0.000000e+00  1.000000e+00
   outer loop
     vertex -1.698038e-01 -3.061089e-01  1.190000e+00
     vertex -9.269615e-02 -1.485544e-01  1.190000e+00
     vertex -1.801962e-01 -3.001089e-01  1.190000e+00
   endloop
 endfacet
 facet normal  1.000000e+00  0.000000e+00  0.000000e+00
   outer loop
     vertex -1.750000e-01  6.000000e-03  1.190000e+00
     vertex -1.750000e-01 -6.000000e-03  1.050000e+00
     vertex -1.750000e-01  6.000000e-03  1.050000e+00
   endloop
 endfacet
 facet normal  1.000000e+00  0.000000e+00  0.000000e+00
   outer loop
     vertex -1.750000e-01  6.000000e-03  1.190000e+00
     vertex -1.750000e-01 -6.000000e-03  1.190000e+00
     vertex -1.750000e-01 -6.000000e-03  1.050000e+00
   endloop
 endfacet
 facet normal -1.000000e+00  0.000000e+00 -0.000000e+00
   outer loop
     vertex -3.500000e-01  6.000000e-03  1.190000e+00
     vertex -3.500000e-01  6.000000e-03  1.050000e+00
     vertex -3.500000e-01 -6.000000e-03  1.050000e+00
   endloop
 endfacet
 facet normal -1.000000e+00 -0.000000e+00  0.000000e+00
   outer loop
     vertex -3.500000e-01  6.000000e-03  1.190000e+00
     vertex -3.500000e-01 -6.000000e-03  1.050000e+00
     vertex -3.500000e-01 -6.000000e-03  1.190000e+00
   endloop
 endfacet
 facet normal  1.288652e-16  1.000000e+00  0.000000e+00
   outer loop
     vertex -3.500000e-01  6.000000e-03  1.190000e+00
     vertex -1.750000e-01  6.000000e-03  1.050000e+00
     vertex -3.500000e-01  6.000000e-03  1.050000e+00
   endloop
 endfacet
 facet normal  1.288652e-16  1.000000e+00  0.000000e+00
   outer loop
     vertex -3.500000e-01  6.000000e-03  1.190000e+00
     vertex -1.750000e-01  6.000000e-03  1.190000e+00
     vertex -1.750000e-01  6.000000e-03  1.050000e+00
   endloop
 endfacet
 facet normal -1.189525e-16 -1.000000e+00 -0.000000e+00
   outer loop
     vertex -3.500000e-01 -6.000000e-03  1.190000e+00
     vertex -3.500000e-01 -6.000000e-03  1.050000e+00
     vertex -1.750000e-01 -6.000000e-03  1.050000e+00
   endloop
 endfacet
 facet normal -1.189525e-16 -1.000000e+00  0.000000e+00
   outer loop
     vertex -3.500000e-01 -6.000000e-03  1.190000e+00
     vertex -1.750000e-01 -6.000000e-03  1.050000e+00
     vertex -1.750000e-01 -6.000000e-03  1.190000e+00
   endloop
 endfacet
 facet normal  0.000000e+00  0.000000e+00 -1.000000e+00
   outer loop
     vertex -3.500000e-01 -6.000000e-03  1.050000e+00
     vertex -1.750000e-01  6.000000e-03  1.050000e+00
     vertex -1.750000e-01 -6.000000e-03  1.050000e+00
   endloop
 endfacet
 facet normal  0.000000e+00  0.000000e+00 -1.000000e+00
   outer loop
     vertex -3.500000e-01 -6.000000e-03  1.050000e+00
     vertex -3.500000e-01  6.000000e-03  1.050000e+00
     vertex -1.750000e-01  6.000000e-03  1.050000e+00
   endloop
 endfacet
 facet normal -0.000000e+00  0.000000e+00  1.000000e+00
   outer loop
     vertex -3.500000e-01 -6.000000e-03  1.190000e+00
     vertex -1.750000e-01 -6.000000e-03  1.190000e+00
     vertex -1.750000e-01  6.000000e-03  1.190000e+00
   endloop
 endfacet
 facet normal  0.000000e+00  0.000000e+00  1.000000e+00
   outer loop
     vertex -3.500000e-01 -6.000000e-03  1.190000e+00
     vertex -1.750000e-01  6.000000e-03  1.190000e+00
     vertex -3.500000e-01  6.000000e-03  1.190000e+00
   endloop
 endfacet
 facet normal  5.000000e-01 -8.660254e-01  0.000000e+00
   outer loop
     vertex -8.230385e-02  1.545544e-01  1.190000e+00
     vertex -9.269615e-02  1.485544e-01  1.050000e+00
     vertex -8.230385e-02  1.545544e-01  1.050000e+00
   endloop
 endfacet
 facet normal  5.000000e-01 -8.660254e-01  0.000000e+00
   outer loop
     vertex -8.230385e-02  1.545544e-01  1.190000e+00
     vertex -9.269615e-02  1.485544e-01  1.190000e+00
     vertex -9.269615e-02  1.485544e-01  1.050000e+00
   endloop
 endfacet
 facet normal -5.000000e-01  8.660254e-01  0.000000e+00
   outer loop
     vertex -1.698038e-01  3.061089e-01  1.190000e+00
     vertex -1.698038e-01  3.061089e-01  1.050000e+00
     vertex -1.801962e-01  3.001089e-01  1.050000e+00
   endloop
 endfacet
 facet normal -5.000000e-01  8.660254e-01  0.000000e+00
   outer loop
     vertex -1.698038e-01  3.061089e-01  1.190000e+00
     vertex -1.801962e-01  3.001089e-01  1.050000e+00
     vertex -1.801962e-01  3.001089e-01  1.190000e+00
   endloop
 endfacet
 facet normal  8.660254e-01  5.000000e-01  0.000000e+00
   outer loop
     vertex -1.698038e-01  3.061089e-01  1.190000e+00
     vertex -8.230385e-02  1.545544e-01  1.050000e+00
     vertex -1.698038e-01  3.061089e-01  1.050000e+00
   endloop
 endfacet
 facet normal  8.660254e-01  5.000000e-01  0.000000e+00
   outer loop
     vertex -1.698038e-01  3.061089e-01  1.190000e+00
     vertex -8.230385e-02  1.545544e-01  1.190000e+00
     vertex -8.230385e-02  1.545544e-01  1.050000e+00
   endloop
 endfacet
 facet normal -8.660254e-01 -5.000000e-01 -0.000000e+00
   outer loop
     vertex -1.801962e-01  3.001089e-01  1.190000e+00
     vertex -1.801962e-01  3.001089e-01  1.050000e+00
     vertex -9.269615e-02  1.485544e-01  1.050000e+00
   endloop
 endfacet
 facet normal -8.660254e-01 -5.000000e-01  0.000000e+00
   outer loop
     vertex -1.801962e-01  3.001089e-01  1.190000e+00
     vertex -9.269615e-02  1.485544e-01  1.050000e+00
     vertex -9.269615e-02  1.485544e-01  1.190000e+00
   endloop
 endfacet
 facet normal  0.000000e+00  0.000000e+00 -1.000000e+00
   outer loop
     vertex -1.801962e-01  3.001089e-01  1.050000e+00
     vertex -8.230385e-02  1.545544e-01  1.050000e+00
     vertex -9.269615e-02  1.485544e-01  1.050000e+00
   endloop
 endfacet
 facet normal  0.000000e+00  0.000000e+00 -1.000000e+00
   outer loop
     vertex -1.801962e-01  3.001089e-01  1.050000e+00
     vertex -1.698038e-01  3.061089e-01  1.050000e+00
     vertex -8.230385e-02  1.545544e-01  1.050000e+00
   endloop
 endfacet
 facet normal  0.000000e+00  0.000000e+00  1.000000e+00
   outer loop
     vertex -1.801962e-01  3.001089e-01  1.190000e+00
     vertex -9.269615e-02  1.485544e-01  1.190000e+00
     vertex -8.230385e-02  1.545544e-01  1.190000e+00
   endloop
 endfacet
 facet normal -0.000000e+00  0.000000e+00  1.000000e+00
   outer loop
     vertex -1.801962e-01  3.001089e-01  1.190000e+00
     vertex -8.230385e-02  1.545544e-01  1.190000e+00
     vertex -1.698038e-01  3.061089e-01  1.190000e+00
   endloop
 endfacet
 facet normal -5.000000e-01 -8.660254e-01 -0.000000e+00
   outer loop
     vertex  9.269615e-02  1.485544e-01  1.190000e+00
     vertex  8.230385e-02  1.545544e-01  1.050000e+00
     vertex  9.269615e-02  1.485544e-01  1.050000e+00
   endloop
 endfacet
 facet normal -5.000000e-01 -8.660254e-01  0.000000e+00
   outer loop
     vertex  9.269615e-02  1.485544e-01  1.190000e+00
     vertex  8.230385e-02  1.545544e-01  1.190000e+00
     vertex  8.230385e-02  1.545544e-01  1.050000e+00
   endloop
 endfacet
 facet normal  5.000000e-01  8.660254e-01  0.000000e+00
   outer loop
     vertex  1.801962e-01  3.001089e-01  1.190000e+00
     vertex  1.801962e-01  3.001089e-01  1.050000e+00
     vertex  1.698038e-01  3.061089e-01  1.050000e+00
   endloop
 endfacet
 facet normal  5.000000e-01  8.660254e-01  0.000000e+00
   outer loop
     vertex  1.801962e-01  3.001089e-01  1.190000e+00
     vertex  1.698038e-01  3.061089e-01  1.050000e+00
     vertex  1.698038e-01  3.061089e-01  1.190000e+00
   endloop
 endfacet
 facet normal  8.660254e-01 -5.000000e-01  0.000000e+00
   outer loop
     vertex  1.801962e-01  3.001089e-01  1.190000e+00
     vertex  9.269615e-02  1.485544e-01  1.050000e+00
     vertex  1.801962e-01  3.001089e-01  1.050000e+00
   endloop
 endfacet
 facet normal  8.660254e-01 -5.000000e-01  0.000000e+00
   outer loop
     vertex  1.801962e-01  3.001089e-01  1.190000e+00
     vertex  9.269615e-02  1.485544e-01  1.190000e+00
     vertex  9.269615e-02  1.485544e-01  1.050000e+00
   endloop
 endfacet
 facet normal -8.660254e-01  5.000000e-01  0.000000e+00
   outer loop
     vertex  1.698038e-01  3.061089e-01  1.190000e+00
     vertex  1.698038e-01  3.061089e-01  1.050000e+00
     vertex  8.230385e-02  1.545544e-01  1.050000e+00
   endloop
 endfacet
 facet normal -8.660254e-01  5.000000e-01  0.000000e+00
   outer loop
     vertex  1.698038e-01  3.061089e-01  1.190000e+00
     vertex  8.230385e-02  1.545544e-01  1.050000e+00
     vertex  8.230385e-02  1.545544e-01  1.190000e+00
   endloop
 endfacet
 facet normal  0.000000e+00  0.000000e+00 -1.000000e+00
   outer loop
     vertex  1.698038e-01  3.061089e-01  1.050000e+00
     vertex  9.269615e-02  1.485544e-01  1.050000e+00
     vertex  8.230385e-02  1.545544e-01  1.050000e+00
   endloop
 endfacet
 facet normal  0.000000e+00 -0.000000e+00 -1.000000e+00
   outer loop
     vertex  1.698038e-01  3.061089e-01  1.050000e+00
     vertex  1.801962e-01  3.001089e-01  1.050000e+00
     vertex  9.269615e-02  1.485544e-01  1.050000e+00
   endloop
 endfacet
 facet normal  0.000000e+00  0.000000e+00  1.000000e+00
   outer loop
     vertex  1.698038e-01  3.061089e-01  1.190000e+00
     vertex  8.230385e-02  1.545544e-01  1.190000e+00
     vertex  9.269615e-02  1.485544e-01  1.190000e+00
   endloop
 endfacet
 facet normal  0.000000e+00  0.000000e+00  1.000000e+00
   outer loop
     vertex  1.698038e-01  3.061089e-01  1.190000e+00
     vertex  9.269615e-02  1.485544e-01  1.190000e+00
     vertex  1.801962e-01  3.001089e-01  1.190000e+00
   endloop
 endfacet
 facet normal -1.000000e+00  0.000000e+00 -0.000000e+00
   outer loop
     vertex  1.750000e-01 -4.286264e-17  1.113000e+00
     vertex  1.750000e-01  6.000000e-03  1.050000e+00
     vertex  1.750000e-01 -6.000000e-03  1.050000e+00
   endloop
 endfacet
 facet normal -1.000000e+00  0.000000e+00  0.000000e+00
   outer loop
     vertex  1.750000e-01  6.000000e-03  1.190000e+00
     vertex  1.750000e-01 -4.286264e-17  1.113000e+00
     vertex  1.750000e-01 -4.286264e-17  1.127000e+00
   endloop
 endfacet
 facet normal -1.000000e+00  0.000000e+00 -0.000000e+00
   outer loop
     vertex  1.750000e-01  6.000000e-03  1.190000e+00
     vertex  1.750000e-01  6.000000e-03  1.050000e+00
     vertex  1.750000e-01 -4.286264e-17  1.113000e+00
   endloop
 endfacet
 facet normal -1.000000e+00  0.000000e+00  0.000000e+00
   outer loop
     vertex  1.750000e-01 -6.000000e-03  1.190000e+00
     vertex  1.750000e-01  6.000000e-03  1.190000e+00
     vertex  1.750000e-01 -4.286264e-17  1.127000e+00
   endloop
 endfacet
 facet normal -1.000000e+00  0.000000e+00  0.000000e+00
   outer loop
     vertex  1.750000e-01 -6.000000e-03  1.190000e+00
     vertex  1.750000e-01 -4.286264e-17  1.113000e+00
     vertex  1.750000e-01 -6.000000e-03  1.050000e+00
   endloop
 endfacet
 facet normal -1.000000e+00  0.000000e+00  0.000000e+00
   outer loop
     vertex  1.750000e-01 -6.000000e-03  1.190000e+00
     vertex  1.750000e-01 -4.286264e-17  1.127000e+00
     vertex  1.750000e-01 -4.286264e-17  1.113000e+00
   endloop
 endfacet
 facet normal -2.379049e-16 -1.000000e+00 -0.000000e+00
   outer loop
     vertex  3.500000e-01 -6.000000e-03  1.190000e+00
     vertex  1.750000e-01 -6.000000e-03  1.050000e+00
     vertex  3.500000e-01 -6.000000e-03  1.050000e+00
   endloop
 endfacet
 facet normal -2.379049e-16 -1.000000e+00  0.000000e+00
   outer loop
     vertex  3.500000e-01 -6.000000e-03  1.190000e+00
     vertex  1.750000e-01 -6.000000e-03  1.190000e+00
     vertex  1.750000e-01 -6.000000e-03  1.050000e+00
   endloop
 endfacet
 facet normal  0.000000e+00  0.000000e+00  1.000000e+00
   outer loop
     vertex  3.500000e-01  6.000000e-03  1.190000e+00
     vertex  1.750000e-01  6.000000e-03  1.190000e+00
     vertex  1.750000e-01 -6.000000e-03  1.190000e+00
   endloop
 endfacet
 facet normal  0.000000e+00  0.000000e+00  1.000000e+00
   outer loop
     vertex  3.500000e-01  6.000000e-03  1.190000e+00
     vertex  1.750000e-01 -6.000000e-03  1.190000e+00
     vertex  3.500000e-01 -6.000000e-03  1.190000e+00
   endloop
 endfacet
 facet normal -0.000000e+00  0.000000e+00 -1.000000e+00
   outer loop
     vertex  3.500000e-01  6.000000e-03  1.050000e+00
     vertex  1.750000e-01 -6.000000e-03  1.050000e+00
     vertex  1.750000e-01  6.000000e-03  1.050000e+00
   endloop
 endfacet
 facet normal  0.000000e+00 -0.000000e+00 -1.000000e+00
   outer loop
     vertex  3.500000e-01  6.000000e-03  1.050000e+00
     vertex  3.500000e-01 -6.000000e-03  1.050000e+00
     vertex  1.750000e-01 -6.000000e-03  1.050000e+00
   endloop
 endfacet
 facet normal  2.478176e-16  1.000000e+00  0.000000e+00
   outer loop
     vertex  3.500000e-01  6.000000e-03  1.190000e+00
     vertex  3.500000e-01  6.000000e-03  1.050000e+00
     vertex  1.750000e-01  6.000000e-03  1.050000e+00
   endloop
 endfacet
 facet normal  2.478176e-16  1.000000e+00  0.000000e+00
   outer loop
     vertex  3.500000e-01  6.000000e-03  1.190000e+00
     vertex  1.750000e-01  6.000000e-03  1.050000e+00
     vertex  1.750000e-01  6.000000e-03  1.190000e+00
   endloop
 endfacet
 facet normal  1.000000e+00  0.000000e+00  0.000000e+00
   outer loop
     vertex  3.500000e-01 -6.000000e-03  1.190000e+00
     vertex  3.500000e-01 -6.000000e-03  1.050000e+00
     vertex  3.500000e-01  6.000000e-03  1.050000e+00
   endloop
 endfacet
 facet normal  1.000000e+00 -0.000000e+00  0.000000e+00
   outer loop
     vertex  3.500000e-01 -6.000000e-03  1.190000e+00
     vertex  3.500000e-01  6.000000e-03  1.050000e+00
     vertex  3.500000e-01  6.000000e-03  1.190000e+00
   endloop
 endfacet
 facet normal  9.980267e-01  6.279052e-02  0.000000e+00
   outer loop
     vertex  1.736201e-01  2.193332e-02  1.127000e+00
     vertex  1.750000e-01 -4.286264e-17  1.127000e+00
     vertex  1.750000e-01 -4.286264e-17  1.113000e+00
   endloop
 endfacet
 facet normal  9.980267e-01  6.279052e-02  0.000000e+00
   outer loop
     vertex  1.736201e-01  2.193332e-02  1.127000e+00
     vertex  1.750000e-01 -4.286264e-17  1.113000e+00
     vertex  1.736201e-01  2.193332e-02  1.113000e+00
   endloop
 endfacet
 facet normal  9.822873e-01  1.873813e-01  0.000000e+00
   outer loop
     vertex  1.695021e-01  4.352073e-02  1.127000e+00
     vertex  1.736201e-01  2.193332e-02  1.127000e+00
     vertex  1.736201e-01  2.193332e-02  1.113000e+00
   endloop
 endfacet
 facet normal  9.822873e-01  1.873813e-01  0.000000e+00
   outer loop
     vertex  1.695021e-01  4.352073e-02  1.127000e+00
     vertex  1.736201e-01  2.193332e-02  1.113000e+00
     vertex  1.695021e-01  4.352073e-02  1.113000e+00
   endloop
 endfacet
 facet normal  9.510565e-01  3.090170e-01  0.000000e+00
   outer loop
     vertex  1.627109e-01  6.442180e-02  1.127000e+00
     vertex  1.695021e-01  4.352073e-02  1.127000e+00
     vertex  1.695021e-01  4.352073e-02  1.113000e+00
   endloop
 endfacet
 facet normal  9.510565e-01  3.090170e-01  0.000000e+00
   outer loop
     vertex  1.627109e-01  6.442180e-02  1.127000e+00
     vertex  1.695021e-01  4.352073e-02  1.113000e+00
     vertex  1.627109e-01  6.442180e-02  1.113000e+00
   endloop
 endfacet
 facet normal  9.048271e-01  4.257793e-01  0.000000e+00
   outer loop
     vertex  1.533537e-01  8.430689e-02  1.127000e+00
     vertex  1.627109e-01  6.442180e-02  1.127000e+00
     vertex  1.627109e-01  6.442180e-02  1.113000e+00
   endloop
 endfacet
 facet normal  9.048271e-01  4.257793e-01  0.000000e+00
   outer loop
     vertex  1.533537e-01  8.430689e-02  1.127000e+00
     vertex  1.627109e-01  6.442180e-02  1.113000e+00
     vertex  1.533537e-01  8.430689e-02  1.113000e+00
   endloop
 endfacet
 facet normal  8.443279e-01  5.358268e-01  0.000000e+00
   outer loop
     vertex  1.415780e-01  1.028624e-01  1.127000e+00
     vertex  1.533537e-01  8.430689e-02  1.127000e+00
     vertex  1.533537e-01  8.430689e-02  1.113000e+00
   endloop
 endfacet
 facet normal  8.443279e-01  5.358268e-01  0.000000e+00
   outer loop
     vertex  1.415780e-01  1.028624e-01  1.127000e+00
     vertex  1.533537e-01  8.430689e-02  1.113000e+00
     vertex  1.415780e-01  1.028624e-01  1.113000e+00
   endloop
 endfacet
 facet normal  7.705132e-01  6.374240e-01  0.000000e+00
   outer loop
     vertex  1.275695e-01  1.197957e-01  1.127000e+00
     vertex  1.415780e-01  1.028624e-01  1.127000e+00
     vertex  1.415780e-01  1.028624e-01  1.113000e+00
   endloop
 endfacet
 facet normal  7.705132e-01  6.374240e-01  0.000000e+00
   outer loop
     vertex  1.275695e-01  1.197957e-01  1.127000e+00
     vertex  1.415780e-01  1.028624e-01  1.113000e+00
     vertex  1.275695e-01  1.197957e-01  1.113000e+00
   endloop
 endfacet
 facet normal  6.845471e-01  7.289686e-01  0.000000e+00
   outer loop
     vertex  1.115492e-01  1.348398e-01  1.127000e+00
     vertex  1.275695e-01  1.197957e-01  1.127000e+00
     vertex  1.275695e-01  1.197957e-01  1.113000e+00
   endloop
 endfacet
 facet normal  6.845471e-01  7.289686e-01  0.000000e+00
   outer loop
     vertex  1.115492e-01  1.348398e-01  1.127000e+00
     vertex  1.275695e-01  1.197957e-01  1.113000e+00
     vertex  1.115492e-01  1.348398e-01  1.113000e+00
   endloop
 endfacet
 facet normal  5.877853e-01  8.090170e-01  0.000000e+00
   outer loop
     vertex  9.376969e-02  1.477574e-01  1.127000e+00
     vertex  1.115492e-01  1.348398e-01  1.127000e+00
     vertex  1.115492e-01  1.348398e-01  1.113000e+00
   endloop
 endfacet
 facet normal  5.877853e-01  8.090170e-01  0.000000e+00
   outer loop
     vertex  9.376969e-02  1.477574e-01  1.127000e+00
     vertex  1.115492e-01  1.348398e-01  1.113000e+00
     vertex  9.376969e-02  1.477574e-01  1.113000e+00
   endloop
 endfacet
 facet normal  4.817537e-01  8.763067e-01  0.000000e+00
   outer loop
     vertex  7.451138e-02  1.583447e-01  1.127000e+00
     vertex  9.376969e-02  1.477574e-01  1.127000e+00
     vertex  9.376969e-02  1.477574e-01  1.113000e+00
   endloop
 endfacet
 facet normal  4.817537e-01  8.763067e-01  0.000000e+00
   outer loop
     vertex  7.451138e-02  1.583447e-01  1.127000e+00
     vertex  9.376969e-02  1.477574e-01  1.113000e+00
     vertex  7.451138e-02  1.583447e-01  1.113000e+00
   endloop
 endfacet
 facet normal  3.681246e-01  9.297765e-01  0.000000e+00
   outer loop
     vertex  5.407797e-02  1.664349e-01  1.127000e+00
     vertex  7.451138e-02  1.583447e-01  1.127000e+00
     vertex  7.451138e-02  1.583447e-01  1.113000e+00
   endloop
 endfacet
 facet normal  3.681246e-01  9.297765e-01  0.000000e+00
   outer loop
     vertex  5.407797e-02  1.664349e-01  1.127000e+00
     vertex  7.451138e-02  1.583447e-01  1.113000e+00
     vertex  5.407797e-02  1.664349e-01  1.113000e+00
   endloop
 endfacet
 facet normal  2.486899e-01  9.685832e-01  0.000000e+00
   outer loop
     vertex  3.279173e-02  1.719003e-01  1.127000e+00
     vertex  5.407797e-02  1.664349e-01  1.127000e+00
     vertex  5.407797e-02  1.664349e-01  1.113000e+00
   endloop
 endfacet
 facet normal  2.486899e-01  9.685832e-01  0.000000e+00
   outer loop
     vertex  3.279173e-02  1.719003e-01  1.127000e+00
     vertex  5.407797e-02  1.664349e-01  1.113000e+00
     vertex  3.279173e-02  1.719003e-01  1.113000e+00
   endloop
 endfacet
 facet normal  1.253332e-01  9.921147e-01  0.000000e+00
   outer loop
     vertex  1.098834e-02  1.746547e-01  1.127000e+00
     vertex  3.279173e-02  1.719003e-01  1.127000e+00
     vertex  3.279173e-02  1.719003e-01  1.113000e+00
   endloop
 endfacet
 facet normal  1.253332e-01  9.921147e-01  0.000000e+00
   outer loop
     vertex  1.098834e-02  1.746547e-01  1.127000e+00
     vertex  3.279173e-02  1.719003e-01  1.113000e+00
     vertex  1.098834e-02  1.746547e-01  1.113000e+00
   endloop
 endfacet
 facet normal -0.000000e+00  1.000000e+00  0.000000e+00
   outer loop
     vertex -1.098834e-02  1.746547e-01  1.127000e+00
     vertex  1.098834e-02  1.746547e-01  1.127000e+00
     vertex  1.098834e-02  1.746547e-01  1.113000e+00
   endloop
 endfacet
 facet normal  0.000000e+00  1.000000e+00  0.000000e+00
   outer loop
     vertex -1.098834e-02  1.746547e-01  1.127000e+00
     vertex  1.098834e-02  1.746547e-01  1.113000e+00
     vertex -1.098834e-02  1.746547e-01  1.113000e+00
   endloop
 endfacet
 facet normal -1.253332e-01  9.921147e-01  0.000000e+00
   outer loop
     vertex -3.279173e-02  1.719003e-01  1.127000e+00
     vertex -1.098834e-02  1.746547e-01  1.127000e+00
     vertex -1.098834e-02  1.746547e-01  1.113000e+00
   endloop
 endfacet
 facet normal -1.253332e-01  9.921147e-01  0.000000e+00
   outer loop
     vertex -3.279173e-02  1.719003e-01  1.127000e+00
     vertex -1.098834e-02  1.746547e-01  1.113000e+00
     vertex -3.279173e-02  1.719003e-01  1.113000e+00
   endloop
 endfacet
 facet normal -2.486899e-01  9.685832e-01  0.000000e+00
   outer loop
     vertex -5.407797e-02  1.664349e-01  1.127000e+00
     vertex -3.279173e-02  1.719003e-01  1.113000e+00
     vertex -5.407797e-02  1.664349e-01  1.113000e+00
   endloop
 endfacet
 facet normal -2.486899e-01  9.685832e-01  0.000000e+00
   outer loop
     vertex -5.407797e-02  1.664349e-01  1.127000e+00
     vertex -3.279173e-02  1.719003e-01  1.127000e+00
     vertex -3.279173e-02  1.719003e-01  1.113000e+00
   endloop
 endfacet
 facet normal -3.681246e-01  9.297765e-01  0.000000e+00
   outer loop
     vertex -7.451138e-02  1.583447e-01  1.127000e+00
     vertex -5.407797e-02  1.664349e-01  1.113000e+00
     vertex -7.451138e-02  1.583447e-01  1.113000e+00
   endloop
 endfacet
 facet normal -3.681246e-01  9.297765e-01  0.000000e+00
   outer loop
     vertex -7.451138e-02  1.583447e-01  1.127000e+00
     vertex -5.407797e-02  1.664349e-01  1.127000e+00
     vertex -5.407797e-02  1.664349e-01  1.113000e+00
   endloop
 endfacet
 facet normal -4.817537e-01  8.763067e-01  0.000000e+00
   outer loop
     vertex -9.376969e-02  1.477574e-01  1.127000e+00
     vertex -7.451138e-02  1.583447e-01  1.113000e+00
     vertex -9.376969e-02  1.477574e-01  1.113000e+00
   endloop
 endfacet
 facet normal -4.817537e-01  8.763067e-01  0.000000e+00
   outer loop
     vertex -9.376969e-02  1.477574e-01  1.127000e+00
     vertex -7.451138e-02  1.583447e-01  1.127000e+00
     vertex -7.451138e-02  1.583447e-01  1.113000e+00
   endloop
 endfacet
 facet normal -5.877853e-01  8.090170e-01  0.000000e+00
   outer loop
     vertex -1.115492e-01  1.348398e-01  1.127000e+00
     vertex -9.376969e-02  1.477574e-01  1.113000e+00
     vertex -1.115492e-01  1.348398e-01  1.113000e+00
   endloop
 endfacet
 facet normal -5.877853e-01  8.090170e-01  0.000000e+00
   outer loop
     vertex -1.115492e-01  1.348398e-01  1.127000e+00
     vertex -9.376969e-02  1.477574e-01  1.127000e+00
     vertex -9.376969e-02  1.477574e-01  1.113000e+00
   endloop
 endfacet
 facet normal -6.845471e-01  7.289686e-01  0.000000e+00
   outer loop
     vertex -1.275695e-01  1.197957e-01  1.127000e+00
     vertex -1.115492e-01  1.348398e-01  1.113000e+00
     vertex -1.275695e-01  1.197957e-01  1.113000e+00
   endloop
 endfacet
 facet normal -6.845471e-01  7.289686e-01  0.000000e+00
   outer loop
     vertex -1.275695e-01  1.197957e-01  1.127000e+00
     vertex -1.115492e-01  1.348398e-01  1.127000e+00
     vertex -1.115492e-01  1.348398e-01  1.113000e+00
   endloop
 endfacet
 facet normal -7.705132e-01  6.374240e-01  0.000000e+00
   outer loop
     vertex -1.415780e-01  1.028624e-01  1.127000e+00
     vertex -1.275695e-01  1.197957e-01  1.113000e+00
     vertex -1.415780e-01  1.028624e-01  1.113000e+00
   endloop
 endfacet
 facet normal -7.705132e-01  6.374240e-01  0.000000e+00
   outer loop
     vertex -1.415780e-01  1.028624e-01  1.127000e+00
     vertex -1.275695e-01  1.197957e-01  1.127000e+00
     vertex -1.275695e-01  1.197957e-01  1.113000e+00
   endloop
 endfacet
 facet normal -8.443279e-01  5.358268e-01  0.000000e+00
   outer loop
     vertex -1.533537e-01  8.430689e-02  1.127000e+00
     vertex -1.415780e-01  1.028624e-01  1.113000e+00
     vertex -1.533537e-01  8.430689e-02  1.113000e+00
   endloop
 endfacet
 facet normal -8.443279e-01  5.358268e-01  0.000000e+00
   outer loop
     vertex -1.533537e-01  8.430689e-02  1.127000e+00
     vertex -1.415780e-01  1.028624e-01  1.127000e+00
     vertex -1.415780e-01  1.028624e-01  1.113000e+00
   endloop
 endfacet
 facet normal -9.048271e-01  4.257793e-01  0.000000e+00
   outer loop
     vertex -1.627109e-01  6.442180e-02  1.127000e+00
     vertex -1.533537e-01  8.430689e-02  1.113000e+00
     vertex -1.627109e-01  6.442180e-02  1.113000e+00
   endloop
 endfacet
 facet normal -9.048271e-01  4.257793e-01  0.000000e+00
   outer loop
     vertex -1.627109e-01  6.442180e-02  1.127000e+00
     vertex -1.533537e-01  8.430689e-02  1.127000e+00
     vertex -1.533537e-01  8.430689e-02  1.113000e+00
   endloop
 endfacet
 facet normal -9.510565e-01  3.090170e-01  0.000000e+00
   outer loop
     vertex -1.695021e-01  4.352073e-02  1.127000e+00
     vertex -1.627109e-01  6.442180e-02  1.113000e+00
     vertex -1.695021e-01  4.352073e-02  1.113000e+00
   endloop
 endfacet
 facet normal -9.510565e-01  3.090170e-01  0.000000e+00
   outer loop
     vertex -1.695021e-01  4.352073e-02  1.127000e+00
     vertex -1.627109e-01  6.442180e-02  1.127000e+00
     vertex -1.627109e-01  6.442180e-02  1.113000e+00
   endloop
 endfacet
 facet normal -9.822873e-01  1.873813e-01  0.000000e+00
   outer loop
     vertex -1.736201e-01  2.193332e-02  1.127000e+00
     vertex -1.695021e-01  4.352073e-02  1.113000e+00
     vertex -1.736201e-01  2.193332e-02  1.113000e+00
   endloop
 endfacet
 facet normal -9.822873e-01  1.873813e-01  0.000000e+00
   outer loop
     vertex -1.736201e-01  2.193332e-02  1.127000e+00
     vertex -1.695021e-01  4.352073e-02  1.127000e+00
     vertex -1.695021e-01  4.352073e-02  1.113000e+00
   endloop
 endfacet
 facet normal -9.980267e-01  6.279052e-02  0.000000e+00
   outer loop
     vertex -1.750000e-01 -2.117155e-16  1.127000e+00
     vertex -1.736201e-01  2.193332e-02  1.127000e+00
     vertex -1.736201e-01  2.193332e-02  1.113000e+00
   endloop
 endfacet
 facet normal -9.980267e-01  6.279052e-02  0.000000e+00
   outer loop
     vertex -1.750000e-01 -2.117155e-16  1.127000e+00
     vertex -1.736201e-01  2.193332e-02  1.113000e+00
     vertex -1.750000e-01 -2.117155e-16  1.113000e+00
   endloop
 endfacet
 facet normal -9.980267e-01 -6.279052e-02  0.000000e+00
   outer loop
     vertex -1.736201e-01 -2.193332e-02  1.127000e+00
     vertex -1.750000e-01 -2.117155e-16  1.127000e+00
     vertex -1.750000e-01 -2.117155e-16  1.113000e+00
   endloop
 endfacet
 facet normal -9.980267e-01 -6.279052e-02 -0.000000e+00
   outer loop
     vertex -1.736201e-01 -2.193332e-02  1.127000e+00
     vertex -1.750000e-01 -2.117155e-16  1.113000e+00
     vertex -1.736201e-01 -2.193332e-02  1.113000e+00
   endloop
 endfacet
 facet normal -9.822873e-01 -1.873813e-01  0.000000e+00
   outer loop
     vertex -1.695021e-01 -4.352073e-02  1.127000e+00
     vertex -1.736201e-01 -2.193332e-02  1.127000e+00
     vertex -1.736201e-01 -2.193332e-02  1.113000e+00
   endloop
 endfacet
 facet normal -9.822873e-01 -1.873813e-01 -0.000000e+00
   outer loop
     vertex -1.695021e-01 -4.352073e-02  1.127000e+00
     vertex -1.736201e-01 -2.193332e-02  1.113000e+00
     vertex -1.695021e-01 -4.352073e-02  1.113000e+00
   endloop
 endfacet
 facet normal -9.510565e-01 -3.090170e-01  0.000000e+00
   outer loop
     vertex -1.627109e-01 -6.442180e-02  1.127000e+00
     vertex -1.695021e-01 -4.352073e-02  1.127000e+00
     vertex -1.695021e-01 -4.352073e-02  1.113000e+00
   endloop
 endfacet
 facet normal -9.510565e-01 -3.090170e-01 -0.000000e+00
   outer loop
     vertex -1.627109e-01 -6.442180e-02  1.127000e+00
     vertex -1.695021e-01 -4.352073e-02  1.113000e+00
     vertex -1.627109e-01 -6.442180e-02  1.113000e+00
   endloop
 endfacet
 facet normal -9.048271e-01 -4.257793e-01  0.000000e+00
   outer loop
     vertex -1.533537e-01 -8.430689e-02  1.127000e+00
     vertex -1.627109e-01 -6.442180e-02  1.127000e+00
     vertex -1.627109e-01 -6.442180e-02  1.113000e+00
   endloop
 endfacet
 facet normal -9.048271e-01 -4.257793e-01 -0.000000e+00
   outer loop
     vertex -1.533537e-01 -8.430689e-02  1.127000e+00
     vertex -1.627109e-01 -6.442180e-02  1.113000e+00
     vertex -1.533537e-01 -8.430689e-02  1.113000e+00
   endloop
 endfacet
 facet normal -8.443279e-01 -5.358268e-01  0.000000e+00
   outer loop
     vertex -1.415780e-01 -1.028624e-01  1.127000e+00
     vertex -1.533537e-01 -8.430689e-02  1.127000e+00
     vertex -1.533537e-01 -8.430689e-02  1.113000e+00
   endloop
 endfacet
 facet normal -8.443279e-01 -5.358268e-01 -0.000000e+00
   outer loop
     vertex -1.415780e-01 -1.028624e-01  1.127000e+00
     vertex -1.533537e-01 -8.430689e-02  1.113000e+00
     vertex -1.415780e-01 -1.028624e-01  1.113000e+00
   endloop
 endfacet
 facet normal -7.705132e-01 -6.374240e-01  0.000000e+00
   outer loop
     vertex -1.275695e-01 -1.197957e-01  1.127000e+00
     vertex -1.415780e-01 -1.028624e-01  1.127000e+00
     vertex -1.415780e-01 -1.028624e-01  1.113000e+00
   endloop
 endfacet
 facet normal -7.705132e-01 -6.374240e-01 -0.000000e+00
   outer loop
     vertex -1.275695e-01 -1.197957e-01  1.127000e+00
     vertex -1.415780e-01 -1.028624e-01  1.113000e+00
     vertex -1.275695e-01 -1.197957e-01  1.113000e+00
   endloop
 endfacet
 facet normal -6.845471e-01 -7.289686e-01  0.000000e+00
   outer loop
     vertex -1.115492e-01 -1.348398e-01  1.127000e+00
     vertex -1.275695e-01 -1.197957e-01  1.127000e+00
     vertex -1.275695e-01 -1.197957e-01  1.113000e+00
   endloop
 endfacet
 facet normal -6.845471e-01 -7.289686e-01 -0.000000e+00
   outer loop
     vertex -1.115492e-01 -1.348398e-01  1.127000e+00
     vertex -1.275695e-01 -1.197957e-01  1.113000e+00
     vertex -1.115492e-01 -1.348398e-01  1.113000e+00
   endloop
 endfacet
 facet normal -5.877853e-01 -8.090170e-01  0.000000e+00
   outer loop
     vertex -9.376969e-02 -1.477574e-01  1.127000e+00
     vertex -1.115492e-01 -1.348398e-01  1.127000e+00
     vertex -1.115492e-01 -1.348398e-01  1.113000e+00
   endloop
 endfacet
 facet normal -5.877853e-01 -8.090170e-01 -0.000000e+00
   outer loop
     vertex -9.376969e-02 -1.477574e-01  1.127000e+00
     vertex -1.115492e-01 -1.348398e-01  1.113000e+00
     vertex -9.376969e-02 -1.477574e-01  1.113000e+00
   endloop
 endfacet
 facet normal -4.817537e-01 -8.763067e-01  0.000000e+00
   outer loop
     vertex -7.451138e-02 -1.583447e-01  1.127000e+00
     vertex -9.376969e-02 -1.477574e-01  1.127000e+00
     vertex -9.376969e-02 -1.477574e-01  1.113000e+00
   endloop
 endfacet
 facet normal -4.817537e-01 -8.763067e-01 -0.000000e+00
   outer loop
     vertex -7.451138e-02 -1.583447e-01  1.127000e+00
     vertex -9.376969e-02 -1.477574e-01  1.113000e+00
     vertex -7.451138e-02 -1.583447e-01  1.113000e+00
   endloop
 endfacet
 facet normal -3.681246e-01 -9.297765e-01  0.000000e+00
   outer loop
     vertex -5.407797e-02 -1.664349e-01  1.127000e+00
     vertex -7.451138e-02 -1.583447e-01  1.127000e+00
     vertex -7.451138e-02 -1.583447e-01  1.113000e+00
   endloop
 endfacet
 facet normal -3.681246e-01 -9.297765e-01 -0.000000e+00
   outer loop
     vertex -5.407797e-02 -1.664349e-01  1.127000e+00
     vertex -7.451138e-02 -1.583447e-01  1.113000e+00
     vertex -5.407797e-02 -1.664349e-01  1.113000e+00
   endloop
 endfacet
 facet normal -2.486899e-01 -9.685832e-01  0.000000e+00
   outer loop
     vertex -3.279173e-02 -1.719003e-01  1.127000e+00
     vertex -5.407797e-02 -1.664349e-01  1.127000e+00
     vertex -5.407797e-02 -1.664349e-01  1.113000e+00
   endloop
 endfacet
 facet normal -2.486899e-01 -9.685832e-01 -0.000000e+00
   outer loop
     vertex -3.279173e-02 -1.719003e-01  1.127000e+00
     vertex -5.407797e-02 -1.664349e-01  1.113000e+00
     vertex -3.279173e-02 -1.719003e-01  1.113000e+00
   endloop
 endfacet
 facet normal -1.253332e-01 -9.921147e-01 -0.000000e+00
   outer loop
     vertex -3.279173e-02 -1.719003e-01  1.127000e+00
     vertex -3.279173e-02 -1.719003e-01  1.113000e+00
     vertex -1.098834e-02 -1.746547e-01  1.113000e+00
   endloop
 endfacet
 facet normal -1.253332e-01 -9.921147e-01 -0.000000e+00
   outer loop
     vertex -1.098834e-02 -1.746547e-01  1.127000e+00
     vertex -3.279173e-02 -1.719003e-01  1.127000e+00
     vertex -1.098834e-02 -1.746547e-01  1.113000e+00
   endloop
 endfacet
 facet normal  3.788867e-15 -1.000000e+00  0.000000e+00
   outer loop
     vertex  1.098834e-02 -1.746547e-01  1.127000e+00
     vertex -1.098834e-02 -1.746547e-01  1.127000e+00
     vertex -1.098834e-02 -1.746547e-01  1.113000e+00
   endloop
 endfacet
 facet normal  3.788867e-15 -1.000000e+00  0.000000e+00
   outer loop
     vertex  1.098834e-02 -1.746547e-01  1.127000e+00
     vertex -1.098834e-02 -1.746547e-01  1.113000e+00
     vertex  1.098834e-02 -1.746547e-01  1.113000e+00
   endloop
 endfacet
 facet normal  1.253332e-01 -9.921147e-01  0.000000e+00
   outer loop
     vertex  3.279173e-02 -1.719003e-01  1.127000e+00
     vertex  1.098834e-02 -1.746547e-01  1.127000e+00
     vertex  1.098834e-02 -1.746547e-01  1.113000e+00
   endloop
 endfacet
 facet normal  1.253332e-01 -9.921147e-01  0.000000e+00
   outer loop
     vertex  3.279173e-02 -1.719003e-01  1.127000e+00
     vertex  1.098834e-02 -1.746547e-01  1.113000e+00
     vertex  3.279173e-02 -1.719003e-01  1.113000e+00
   endloop
 endfacet
 facet normal  2.486899e-01 -9.685832e-01  0.000000e+00
   outer loop
     vertex  5.407797e-02 -1.664349e-01  1.127000e+00
     vertex  3.279173e-02 -1.719003e-01  1.127000e+00
     vertex  3.279173e-02 -1.719003e-01  1.113000e+00
   endloop
 endfacet
 facet normal  2.486899e-01 -9.685832e-01  0.000000e+00
   outer loop
     vertex  5.407797e-02 -1.664349e-01  1.127000e+00
     vertex  3.279173e-02 -1.719003e-01  1.113000e+00
     vertex  5.407797e-02 -1.664349e-01  1.113000e+00
   endloop
 endfacet
 facet normal  3.681246e-01 -9.297765e-01  0.000000e+00
   outer loop
     vertex  7.451138e-02 -1.583447e-01  1.127000e+00
     vertex  5.407797e-02 -1.664349e-01  1.127000e+00
     vertex  5.407797e-02 -1.664349e-01  1.113000e+00
   endloop
 endfacet
 facet normal  3.681246e-01 -9.297765e-01  0.000000e+00
   outer loop
     vertex  7.451138e-02 -1.583447e-01  1.127000e+00
     vertex  5.407797e-02 -1.664349e-01  1.113000e+00
     vertex  7.451138e-02 -1.583447e-01  1.113000e+00
   endloop
 endfacet
 facet normal  4.817537e-01 -8.763067e-01  0.000000e+00
   outer loop
     vertex  9.376969e-02 -1.477574e-01  1.127000e+00
     vertex  7.451138e-02 -1.583447e-01  1.127000e+00
     vertex  7.451138e-02 -1.583447e-01  1.113000e+00
   endloop
 endfacet
 facet normal  4.817537e-01 -8.763067e-01  0.000000e+00
   outer loop
     vertex  9.376969e-02 -1.477574e-01  1.127000e+00
     vertex  7.451138e-02 -1.583447e-01  1.113000e+00
     vertex  9.376969e-02 -1.477574e-01  1.113000e+00
   endloop
 endfacet
 facet normal  5.877853e-01 -8.090170e-01  0.000000e+00
   outer loop
     vertex  9.376969e-02 -1.477574e-01  1.127000e+00
     vertex  9.376969e-02 -1.477574e-01  1.113000e+00
     vertex  1.115492e-01 -1.348398e-01  1.113000e+00
   endloop
 endfacet
 facet normal  5.877853e-01 -8.090170e-01  0.000000e+00
   outer loop
     vertex  1.115492e-01 -1.348398e-01  1.127000e+00
     vertex  9.376969e-02 -1.477574e-01  1.127000e+00
     vertex  1.115492e-01 -1.348398e-01  1.113000e+00
   endloop
 endfacet
 facet normal  6.845471e-01 -7.289686e-01  0.000000e+00
   outer loop
     vertex  1.275695e-01 -1.197957e-01  1.127000e+00
     vertex  1.115492e-01 -1.348398e-01  1.127000e+00
     vertex  1.115492e-01 -1.348398e-01  1.113000e+00
   endloop
 endfacet
 facet normal  6.845471e-01 -7.289686e-01  0.000000e+00
   outer loop
     vertex  1.275695e-01 -1.197957e-01  1.127000e+00
     vertex  1.115492e-01 -1.348398e-01  1.113000e+00
     vertex  1.275695e-01 -1.197957e-01  1.113000e+00
   endloop
 endfacet
 facet normal  7.705132e-01 -6.374240e-01  0.000000e+00
   outer loop
     vertex  1.415780e-01 -1.028624e-01  1.127000e+00
     vertex  1.275695e-01 -1.197957e-01  1.127000e+00
     vertex  1.275695e-01 -1.197957e-01  1.113000e+00
   endloop
 endfacet
 facet normal  7.705132e-01 -6.374240e-01  0.000000e+00
   outer loop
     vertex  1.415780e-01 -1.028624e-01  1.127000e+00
     vertex  1.275695e-01 -1.197957e-01  1.113000e+00
     vertex  1.415780e-01 -1.028624e-01  1.113000e+00
   endloop
 endfacet
 facet normal  8.443279e-01 -5.358268e-01  0.000000e+00
   outer loop
     vertex  1.533537e-01 -8.430689e-02  1.127000e+00
     vertex  1.415780e-01 -1.028624e-01  1.127000e+00
     vertex  1.415780e-01 -1.028624e-01  1.113000e+00
   endloop
 endfacet
 facet normal  8.443279e-01 -5.358268e-01  0.000000e+00
   outer loop
     vertex  1.533537e-01 -8.430689e-02  1.127000e+00
     vertex  1.415780e-01 -1.028624e-01  1.113000e+00
     vertex  1.533537e-01 -8.430689e-02  1.113000e+00
   endloop
 endfacet
 facet normal  9.048271e-01 -4.257793e-01  0.000000e+00
   outer loop
     vertex  1.627109e-01 -6.442180e-02  1.127000e+00
     vertex  1.533537e-01 -8.430689e-02  1.127000e+00
     vertex  1.533537e-01 -8.430689e-02  1.113000e+00
   endloop
 endfacet
 facet normal  9.048271e-01 -4.257793e-01  0.000000e+00
   outer loop
     vertex  1.627109e-01 -6.442180e-02  1.127000e+00
     vertex  1.533537e-01 -8.430689e-02  1.113000e+00
     vertex  1.627109e-01 -6.442180e-02  1.113000e+00
   endloop
 endfacet
 facet normal  9.510565e-01 -3.090170e-01  0.000000e+00
   outer loop
     vertex  1.695021e-01 -4.352073e-02  1.127000e+00
     vertex  1.627109e-01 -6.442180e-02  1.127000e+00
     vertex  1.627109e-01 -6.442180e-02  1.113000e+00
   endloop
 endfacet
 facet normal  9.510565e-01 -3.090170e-01  0.000000e+00
   outer loop
     vertex  1.695021e-01 -4.352073e-02  1.127000e+00
     vertex  1.627109e-01 -6.442180e-02  1.113000e+00
     vertex  1.695021e-01 -4.352073e-02  1.113000e+00
   endloop
 endfacet
 facet normal  9.822873e-01 -1.873813e-01  0.000000e+00
   outer loop
     vertex  1.736201e-01 -2.193332e-02  1.127000e+00
     vertex  1.695021e-01 -4.352073e-02  1.127000e+00
     vertex  1.695021e-01 -4.352073e-02  1.113000e+00
   endloop
 endfacet
 facet normal  9.822873e-01 -1.873813e-01  0.000000e+00
   outer loop
     vertex  1.736201e-01 -2.193332e-02  1.127000e+00
     vertex  1.695021e-01 -4.352073e-02  1.113000e+00
     vertex  1.736201e-01 -2.193332e-02  1.113000e+00
   endloop
 endfacet
 facet normal  9.980267e-01 -6.279052e-02  0.000000e+00
   outer loop
     vertex  1.750000e-01 -4.286264e-17  1.127000e+00
     vertex  1.736201e-01 -2.193332e-02  1.113000e+00
     vertex  1.750000e-01 -4.286264e-17  1.113000e+00
   endloop
 endfacet
 facet normal  9.980267e-01 -6.279052e-02  0.000000e+00
   outer loop
     vertex  1.750000e-01 -4.286264e-17  1.127000e+00
     vertex  1.736201e-01 -2.193332e-02  1.127000e+00
     vertex  1.736201e-01 -2.193332e-02  1.113000e+00
   endloop
 endfacet
 facet normal  0.000000e+00  0.000000e+00  1.000000e+00
   outer loop
     vertex  1.533537e-01 -8.430689e-02  1.127000e+00
     vertex  1.275695e-01 -1.197957e-01  1.127000e+00
     vertex  1.415780e-01 -1.028624e-01  1.127000e+00
   endloop
 endfacet
 facet normal  0.000000e+00  0.000000e+00  1.000000e+00
   outer loop
     vertex  1.115492e-01  1.348398e-01  1.127000e+00
     vertex  9.376969e-02  1.477574e-01  1.127000e+00
     vertex  7.451138e-02  1.583447e-01  1.127000e+00
   endloop
 endfacet
 facet normal  0.000000e+00  0.000000e+00  1.000000e+00
   outer loop
     vertex  1.275695e-01  1.197957e-01  1.127000e+00
     vertex  1.750000e-01 -4.286264e-17  1.127000e+00
     vertex  1.736201e-01  2.193332e-02  1.127000e+00
   endloop
 endfacet
 facet normal  0.000000e+00  0.000000e+00  1.000000e+00
   outer loop
     vertex  1.275695e-01  1.197957e-01  1.127000e+00
     vertex  1.736201e-01  2.193332e-02  1.127000e+00
     vertex  1.695021e-01  4.352073e-02  1.127000e+00
   endloop
 endfacet
 facet normal  0.000000e+00  0.000000e+00  1.000000e+00
   outer loop
     vertex  1.275695e-01  1.197957e-01  1.127000e+00
     vertex  1.695021e-01  4.352073e-02  1.127000e+00
     vertex  1.627109e-01  6.442180e-02  1.127000e+00
   endloop
 endfacet
 facet normal  0.000000e+00  0.000000e+00  1.000000e+00
   outer loop
     vertex  1.275695e-01  1.197957e-01  1.127000e+00
     vertex  1.627109e-01  6.442180e-02  1.127000e+00
     vertex  1.533537e-01  8.430689e-02  1.127000e+00
   endloop
 endfacet
 facet normal  0.000000e+00  0.000000e+00  1.000000e+00
   outer loop
     vertex  1.275695e-01  1.197957e-01  1.127000e+00
     vertex  1.533537e-01  8.430689e-02  1.127000e+00
     vertex  1.415780e-01  1.028624e-01  1.127000e+00
   endloop
 endfacet
 facet normal  0.000000e+00  0.000000e+00  1.000000e+00
   outer loop
     vertex  1.275695e-01  1.197957e-01  1.127000e+00
     vertex  7.451138e-02  1.583447e-01  1.127000e+00
     vertex  5.407797e-02  1.664349e-01  1.127000e+00
   endloop
 endfacet
 facet normal  0.000000e+00  0.000000e+00  1.000000e+00
   outer loop
     vertex  1.275695e-01  1.197957e-01  1.127000e+00
     vertex  5.407797e-02  1.664349e-01  1.127000e+00
     vertex  3.279173e-02  1.719003e-01  1.127000e+00
   endloop
 endfacet
 facet normal  0.000000e+00  0.000000e+00  1.000000e+00
   outer loop
     vertex  1.275695e-01  1.197957e-01  1.127000e+00
     vertex  3.279173e-02  1.719003e-01  1.127000e+00
     vertex  1.098834e-02  1.746547e-01  1.127000e+00
   endloop
 endfacet
 facet normal  0.000000e+00  0.000000e+00  1.000000e+00
   outer loop
     vertex  1.275695e-01  1.197957e-01  1.127000e+00
     vertex  1.098834e-02  1.746547e-01  1.127000e+00
     vertex -1.098834e-02  1.746547e-01  1.127000e+00
   endloop
 endfacet
 facet normal  0.000000e+00  0.000000e+00  1.000000e+00
   outer loop
     vertex  1.275695e-01  1.197957e-01  1.127000e+00
     vertex  1.275695e-01 -1.197957e-01  1.127000e+00
     vertex  1.533537e-01 -8.430689e-02  1.127000e+00
   endloop
 endfacet
 facet normal  0.000000e+00  0.000000e+00  1.000000e+00
   outer loop
     vertex  1.275695e-01  1.197957e-01  1.127000e+00
     vertex -1.098834e-02  1.746547e-01  1.127000e+00
     vertex -3.279173e-02  1.719003e-01  1.127000e+00
   endloop
 endfacet
 facet normal  0.000000e+00  0.000000e+00  1.000000e+00
   outer loop
     vertex  1.275695e-01  1.197957e-01  1.127000e+00
     vertex -3.279173e-02  1.719003e-01  1.127000e+00
     vertex -5.407797e-02  1.664349e-01  1.127000e+00
   endloop
 endfacet
 facet normal  0.000000e+00  0.000000e+00  1.000000e+00
   outer loop
     vertex  1.275695e-01  1.197957e-01  1.127000e+00
     vertex -5.407797e-02  1.664349e-01  1.127000e+00
     vertex -7.451138e-02  1.583447e-01  1.127000e+00
   endloop
 endfacet
 facet normal  0.000000e+00  0.000000e+00  1.000000e+00
   outer loop
     vertex  1.275695e-01  1.197957e-01  1.127000e+00
     vertex -7.451138e-02  1.583447e-01  1.127000e+00
     vertex -9.376969e-02  1.477574e-01  1.127000e+00
   endloop
 endfacet
 facet normal  0.000000e+00  0.000000e+00  1.000000e+00
   outer loop
     vertex  1.275695e-01  1.197957e-01  1.127000e+00
     vertex -9.376969e-02  1.477574e-01  1.127000e+00
     vertex -1.115492e-01  1.348398e-01  1.127000e+00
   endloop
 endfacet
 facet normal  0.000000e+00  0.000000e+00  1.000000e+00
   outer loop
     vertex  1.275695e-01  1.197957e-01  1.127000e+00
     vertex -1.115492e-01  1.348398e-01  1.127000e+00
     vertex -1.275695e-01  1.197957e-01  1.127000e+00
   endloop
 endfacet
 facet normal  0.000000e+00  0.000000e+00  1.000000e+00
   outer loop
     vertex  1.275695e-01  1.197957e-01  1.127000e+00
     vertex -1.275695e-01  1.197957e-01  1.127000e+00
     vertex -1.415780e-01  1.028624e-01  1.127000e+00
   endloop
 endfacet
 facet normal  0.000000e+00  0.000000e+00  1.000000e+00
   outer loop
     vertex  1.275695e-01  1.197957e-01  1.127000e+00
     vertex -1.415780e-01  1.028624e-01  1.127000e+00
     vertex -1.533537e-01  8.430689e-02  1.127000e+00
   endloop
 endfacet
 facet normal  0.000000e+00  0.000000e+00  1.000000e+00
   outer loop
     vertex  1.275695e-01  1.197957e-01  1.127000e+00
     vertex -1.533537e-01  8.430689e-02  1.127000e+00
     vertex -1.627109e-01  6.442180e-02  1.127000e+00
   endloop
 endfacet
 facet normal  0.000000e+00  0.000000e+00  1.000000e+00
   outer loop
     vertex  1.275695e-01  1.197957e-01  1.127000e+00
     vertex -1.627109e-01  6.442180e-02  1.127000e+00
     vertex -1.695021e-01  4.352073e-02  1.127000e+00
   endloop
 endfacet
 facet normal  0.000000e+00  0.000000e+00  1.000000e+00
   outer loop
     vertex  1.275695e-01  1.197957e-01  1.127000e+00
     vertex -1.695021e-01  4.352073e-02  1.127000e+00
     vertex -1.736201e-01  2.193332e-02  1.127000e+00
   endloop
 endfacet
 facet normal  0.000000e+00  0.000000e+00  1.000000e+00
   outer loop
     vertex  1.275695e-01  1.197957e-01  1.127000e+00
     vertex -1.736201e-01  2.193332e-02  1.127000e+00
     vertex -1.750000e-01 -2.117155e-16  1.127000e+00
   endloop
 endfacet
 facet normal  0.000000e+00  0.000000e+00  1.000000e+00
   outer loop
     vertex  1.275695e-01  1.197957e-01  1.127000e+00
     vertex -1.750000e-01 -2.117155e-16  1.127000e+00
     vertex -1.736201e-01 -2.193332e-02  1.127000e+00
   endloop
 endfacet
 facet normal  0.000000e+00  0.000000e+00  1.000000e+00
   outer loop
     vertex  1.275695e-01  1.197957e-01  1.127000e+00
     vertex -1.736201e-01 -2.193332e-02  1.127000e+00
     vertex -1.695021e-01 -4.352073e-02  1.127000e+00
   endloop
 endfacet
 facet normal  0.000000e+00  0.000000e+00  1.000000e+00
   outer loop
     vertex  1.275695e-01  1.197957e-01  1.127000e+00
     vertex -1.695021e-01 -4.352073e-02  1.127000e+00
     vertex -1.627109e-01 -6.442180e-02  1.127000e+00
   endloop
 endfacet
 facet normal  0.000000e+00  0.000000e+00  1.000000e+00
   outer loop
     vertex  1.275695e-01  1.197957e-01  1.127000e+00
     vertex -1.627109e-01 -6.442180e-02  1.127000e+00
     vertex -1.533537e-01 -8.430689e-02  1.127000e+00
   endloop
 endfacet
 facet normal  0.000000e+00  0.000000e+00  1.000000e+00
   outer loop
     vertex  1.275695e-01  1.197957e-01  1.127000e+00
     vertex  1.115492e-01  1.348398e-01  1.127000e+00
     vertex  7.451138e-02  1.583447e-01  1.127000e+00
   endloop
 endfacet
 facet normal  0.000000e+00  0.000000e+00  1.000000e+00
   outer loop
     vertex  1.275695e-01  1.197957e-01  1.127000e+00
     vertex -1.533537e-01 -8.430689e-02  1.127000e+00
     vertex -1.415780e-01 -1.028624e-01  1.127000e+00
   endloop
 endfacet
 facet normal  0.000000e+00  0.000000e+00  1.000000e+00
   outer loop
     vertex  1.275695e-01  1.197957e-01  1.127000e+00
     vertex -1.415780e-01 -1.028624e-01  1.127000e+00
     vertex -1.275695e-01 -1.197957e-01  1.127000e+00
   endloop
 endfacet
 facet normal  0.000000e+00  0.000000e+00  1.000000e+00
   outer loop
     vertex  1.275695e-01  1.197957e-01  1.127000e+00
     vertex -1.275695e-01 -1.197957e-01  1.127000e+00
     vertex -1.115492e-01 -1.348398e-01  1.127000e+00
   endloop
 endfacet
 facet normal  0.000000e+00  0.000000e+00  1.000000e+00
   outer loop
     vertex  1.275695e-01  1.197957e-01  1.127000e+00
     vertex -1.115492e-01 -1.348398e-01  1.127000e+00
     vertex -9.376969e-02 -1.477574e-01  1.127000e+00
   endloop
 endfacet
 facet normal  0.000000e+00  0.000000e+00  1.000000e+00
   outer loop
     vertex  1.275695e-01  1.197957e-01  1.127000e+00
     vertex -9.376969e-02 -1.477574e-01  1.127000e+00
     vertex -7.451138e-02 -1.583447e-01  1.127000e+00
   endloop
 endfacet
 facet normal  0.000000e+00  0.000000e+00  1.000000e+00
   outer loop
     vertex  1.275695e-01  1.197957e-01  1.127000e+00
     vertex -7.451138e-02 -1.583447e-01  1.127000e+00
     vertex -5.407797e-02 -1.664349e-01  1.127000e+00
   endloop
 endfacet
 facet normal  0.000000e+00  0.000000e+00  1.000000e+00
   outer loop
     vertex  1.275695e-01  1.197957e-01  1.127000e+00
     vertex -5.407797e-02 -1.664349e-01  1.127000e+00
     vertex -3.279173e-02 -1.719003e-01  1.127000e+00
   endloop
 endfacet
 facet normal  0.000000e+00  0.000000e+00  1.000000e+00
   outer loop
     vertex  1.275695e-01  1.197957e-01  1.127000e+00
     vertex -3.279173e-02 -1.719003e-01  1.127000e+00
     vertex -1.098834e-02 -1.746547e-01  1.127000e+00
   endloop
 endfacet
 facet normal  0.000000e+00  0.000000e+00  1.000000e+00
   outer loop
     vertex  1.275695e-01  1.197957e-01  1.127000e+00
     vertex -1.098834e-02 -1.746547e-01  1.127000e+00
     vertex  1.098834e-02 -1.746547e-01  1.127000e+00
   endloop
 endfacet
 facet normal  0.000000e+00  0.000000e+00  1.000000e+00
   outer loop
     vertex  1.275695e-01  1.197957e-01  1.127000e+00
     vertex  1.098834e-02 -1.746547e-01  1.127000e+00
     vertex  3.279173e-02 -1.719003e-01  1.127000e+00
   endloop
 endfacet
 facet normal  0.000000e+00  0.000000e+00  1.000000e+00
   outer loop
     vertex  1.275695e-01  1.197957e-01  1.127000e+00
     vertex  3.279173e-02 -1.719003e-01  1.127000e+00
     vertex  5.407797e-02 -1.664349e-01  1.127000e+00
   endloop
 endfacet
 facet normal  0.000000e+00  0.000000e+00  1.000000e+00
   outer loop
     vertex  1.275695e-01  1.197957e-01  1.127000e+00
     vertex  5.407797e-02 -1.664349e-01  1.127000e+00
     vertex  7.451138e-02 -1.583447e-01  1.127000e+00
   endloop
 endfacet
 facet normal  0.000000e+00  0.000000e+00  1.000000e+00
   outer loop
     vertex  1.275695e-01  1.197957e-01  1.127000e+00
     vertex  7.451138e-02 -1.583447e-01  1.127000e+00
     vertex  9.376969e-02 -1.477574e-01  1.127000e+00
   endloop
 endfacet
 facet normal  0.000000e+00  0.000000e+00  1.000000e+00
   outer loop
     vertex  1.275695e-01  1.197957e-01  1.127000e+00
     vertex  9.376969e-02 -1.477574e-01  1.127000e+00
     vertex  1.115492e-01 -1.348398e-01  1.127000e+00
   endloop
 endfacet
 facet normal  0.000000e+00  0.000000e+00  1.000000e+00
   outer loop
     vertex  1.275695e-01  1.197957e-01  1.127000e+00
     vertex  1.115492e-01 -1.348398e-01  1.127000e+00
     vertex  1.275695e-01 -1.197957e-01  1.127000e+00
   endloop
 endfacet
 facet normal  0.000000e+00  0.000000e+00  1.000000e+00
   outer loop
     vertex  1.275695e-01  1.197957e-01  1.127000e+00
     vertex  1.533537e-01 -8.430689e-02  1.127000e+00
     vertex  1.627109e-01 -6.442180e-02  1.127000e+00
   endloop
 endfacet
 facet normal  0.000000e+00  0.000000e+00  1.000000e+00
   outer loop
     vertex  1.275695e-01  1.197957e-01  1.127000e+00
     vertex  1.627109e-01 -6.442180e-02  1.127000e+00
     vertex  1.695021e-01 -4.352073e-02  1.127000e+00
   endloop
 endfacet
 facet normal  0.000000e+00  0.000000e+00  1.000000e+00
   outer loop
     vertex  1.275695e-01  1.197957e-01  1.127000e+00
     vertex  1.695021e-01 -4.352073e-02  1.127000e+00
     vertex  1.736201e-01 -2.193332e-02  1.127000e+00
   endloop
 endfacet
 facet normal  0.000000e+00  0.000000e+00  1.000000e+00
   outer loop
     vertex  1.275695e-01  1.197957e-01  1.127000e+00
     vertex  1.736201e-01 -2.193332e-02  1.127000e+00
     vertex  1.750000e-01 -4.286264e-17  1.127000e+00
   endloop
 endfacet
 facet normal  0.000000e+00  0.000000e+00 -1.000000e+00
   outer loop
     vertex  1.533537e-01 -8.430689e-02  1.113000e+00
     vertex  1.415780e-01 -1.028624e-01  1.113000e+00
     vertex  1.275695e-01 -1.197957e-01  1.113000e+00
   endloop
 endfacet
 facet normal  0.000000e+00  0.000000e+00 -1.000000e+00
   outer loop
     vertex  1.115492e-01  1.348398e-01  1.113000e+00
     vertex  7.451138e-02  1.583447e-01  1.113000e+00
     vertex  9.376969e-02  1.477574e-01  1.113000e+00
   endloop
 endfacet
 facet normal  0.000000e+00  0.000000e+00 -1.000000e+00
   outer loop
     vertex  1.275695e-01  1.197957e-01  1.113000e+00
     vertex  1.736201e-01  2.193332e-02  1.113000e+00
     vertex  1.750000e-01 -4.286264e-17  1.113000e+00
   endloop
 endfacet
 facet normal  0.000000e+00  0.000000e+00 -1.000000e+00
   outer loop
     vertex  1.275695e-01  1.197957e-01  1.113000e+00
     vertex  1.695021e-01  4.352073e-02  1.113000e+00
     vertex  1.736201e-01  2.193332e-02  1.113000e+00
   endloop
 endfacet
 facet normal  0.000000e+00  0.000000e+00 -1.000000e+00
   outer loop
     vertex  1.275695e-01  1.197957e-01  1.113000e+00
     vertex  1.627109e-01  6.442180e-02  1.113000e+00
     vertex  1.695021e-01  4.352073e-02  1.113000e+00
   endloop
 endfacet
 facet normal  0.000000e+00  0.000000e+00 -1.000000e+00
   outer loop
     vertex  1.275695e-01  1.197957e-01  1.113000e+00
     vertex  1.533537e-01  8.430689e-02  1.113000e+00
     vertex  1.627109e-01  6.442180e-02  1.113000e+00
   endloop
 endfacet
 facet normal  0.000000e+00  0.000000e+00 -1.000000e+00
   outer loop
     vertex  1.275695e-01  1.197957e-01  1.113000e+00
     vertex  1.415780e-01  1.028624e-01  1.113000e+00
     vertex  1.533537e-01  8.430689e-02  1.113000e+00
   endloop
 endfacet
 facet normal  0.000000e+00  0.000000e+00 -1.000000e+00
   outer loop
     vertex  1.275695e-01  1.197957e-01  1.113000e+00
     vertex  5.407797e-02  1.664349e-01  1.113000e+00
     vertex  7.451138e-02  1.583447e-01  1.113000e+00
   endloop
 endfacet
 facet normal  0.000000e+00  0.000000e+00 -1.000000e+00
   outer loop
     vertex  1.275695e-01  1.197957e-01  1.113000e+00
     vertex  3.279173e-02  1.719003e-01  1.113000e+00
     vertex  5.407797e-02  1.664349e-01  1.113000e+00
   endloop
 endfacet
 facet normal  0.000000e+00  0.000000e+00 -1.000000e+00
   outer loop
     vertex  1.275695e-01  1.197957e-01  1.113000e+00
     vertex  1.098834e-02  1.746547e-01  1.113000e+00
     vertex  3.279173e-02  1.719003e-01  1.113000e+00
   endloop
 endfacet
 facet normal  0.000000e+00  0.000000e+00 -1.000000e+00
   outer loop
     vertex  1.275695e-01  1.197957e-01  1.113000e+00
     vertex -1.098834e-02  1.746547e-01  1.113000e+00
     vertex  1.098834e-02  1.746547e-01  1.113000e+00
   endloop
 endfacet
 facet normal  0.000000e+00  0.000000e+00 -1.000000e+00
   outer loop
     vertex  1.275695e-01  1.197957e-01  1.113000e+00
     vertex  1.533537e-01 -8.430689e-02  1.113000e+00
     vertex  1.275695e-01 -1.197957e-01  1.113000e+00
   endloop
 endfacet
 facet normal  0.000000e+00  0.000000e+00 -1.000000e+00
   outer loop
     vertex  1.275695e-01  1.197957e-01  1.113000e+00
     vertex -3.279173e-02  1.719003e-01  1.113000e+00
     vertex -1.098834e-02  1.746547e-01  1.113000e+00
   endloop
 endfacet
 facet normal  0.000000e+00  0.000000e+00 -1.000000e+00
   outer loop
     vertex  1.275695e-01  1.197957e-01  1.113000e+00
     vertex -5.407797e-02  1.664349e-01  1.113000e+00
     vertex -3.279173e-02  1.719003e-01  1.113000e+00
   endloop
 endfacet
 facet normal  0.000000e+00  0.000000e+00 -1.000000e+00
   outer loop
     vertex  1.275695e-01  1.197957e-01  1.113000e+00
     vertex -7.451138e-02  1.583447e-01  1.113000e+00
     vertex -5.407797e-02  1.664349e-01  1.113000e+00
   endloop
 endfacet
 facet normal  0.000000e+00  0.000000e+00 -1.000000e+00
   outer loop
     vertex  1.275695e-01  1.197957e-01  1.113000e+00
     vertex -9.376969e-02  1.477574e-01  1.113000e+00
     vertex -7.451138e-02  1.583447e-01  1.113000e+00
   endloop
 endfacet
 facet normal  0.000000e+00  0.000000e+00 -1.000000e+00
   outer loop
     vertex  1.275695e-01  1.197957e-01  1.113000e+00
     vertex -1.115492e-01  1.348398e-01  1.113000e+00
     vertex -9.376969e-02  1.477574e-01  1.113000e+00
   endloop
 endfacet
 facet normal -0.000000e+00  0.000000e+00 -1.000000e+00
   outer loop
     vertex  1.275695e-01  1.197957e-01  1.113000e+00
     vertex -1.275695e-01  1.197957e-01  1.113000e+00
     vertex -1.115492e-01  1.348398e-01  1.113000e+00
   endloop
 endfacet
 facet normal  0.000000e+00  0.000000e+00 -1.000000e+00
   outer loop
     vertex  1.275695e-01  1.197957e-01  1.113000e+00
     vertex -1.415780e-01  1.028624e-01  1.113000e+00
     vertex -1.275695e-01  1.197957e-01  1.113000e+00
   endloop
 endfacet
 facet normal  0.000000e+00  0.000000e+00 -1.000000e+00
   outer loop
     vertex  1.275695e-01  1.197957e-01  1.113000e+00
     vertex -1.533537e-01  8.430689e-02  1.113000e+00
     vertex -1.415780e-01  1.028624e-01  1.113000e+00
   endloop
 endfacet
 facet normal  0.000000e+00  0.000000e+00 -1.000000e+00
   outer loop
     vertex  1.275695e-01  1.197957e-01  1.113000e+00
     vertex -1.627109e-01  6.442180e-02  1.113000e+00
     vertex -1.533537e-01  8.430689e-02  1.113000e+00
   endloop
 endfacet
 facet normal  0.000000e+00  0.000000e+00 -1.000000e+00
   outer loop
     vertex  1.275695e-01  1.197957e-01  1.113000e+00
     vertex -1.695021e-01  4.352073e-02  1.113000e+00
     vertex -1.627109e-01  6.442180e-02  1.113000e+00
   endloop
 endfacet
 facet normal  0.000000e+00  0.000000e+00 -1.000000e+00
   outer loop
     vertex  1.275695e-01  1.197957e-01  1.113000e+00
     vertex -1.736201e-01  2.193332e-02  1.113000e+00
     vertex -1.695021e-01  4.352073e-02  1.113000e+00
   endloop
 endfacet
 facet normal  0.000000e+00  0.000000e+00 -1.000000e+00
   outer loop
     vertex  1.275695e-01  1.197957e-01  1.113000e+00
     vertex -1.750000e-01 -2.117155e-16  1.113000e+00
     vertex -1.736201e-01  2.193332e-02  1.113000e+00
   endloop
 endfacet
 facet normal  0.000000e+00  0.000000e+00 -1.000000e+00
   outer loop
     vertex  1.275695e-01  1.197957e-01  1.113000e+00
     vertex -1.736201e-01 -2.193332e-02  1.113000e+00
     vertex -1.750000e-01 -2.117155e-16  1.113000e+00
   endloop
 endfacet
 facet normal  0.000000e+00  0.000000e+00 -1.000000e+00
   outer loop
     vertex  1.275695e-01  1.197957e-01  1.113000e+00
     vertex -1.695021e-01 -4.352073e-02  1.113000e+00
     vertex -1.736201e-01 -2.193332e-02  1.113000e+00
   endloop
 endfacet
 facet normal  0.000000e+00  0.000000e+00 -1.000000e+00
   outer loop
     vertex  1.275695e-01  1.197957e-01  1.113000e+00
     vertex -1.627109e-01 -6.442180e-02  1.113000e+00
     vertex -1.695021e-01 -4.352073e-02  1.113000e+00
   endloop
 endfacet
 facet normal  0.000000e+00  0.000000e+00 -1.000000e+00
   outer loop
     vertex  1.275695e-01  1.197957e-01  1.113000e+00
     vertex -1.533537e-01 -8.430689e-02  1.113000e+00
     vertex -1.627109e-01 -6.442180e-02  1.113000e+00
   endloop
 endfacet
 facet normal  0.000000e+00  0.000000e+00 -1.000000e+00
   outer loop
     vertex  1.275695e-01  1.197957e-01  1.113000e+00
     vertex  7.451138e-02  1.583447e-01  1.113000e+00
     vertex  1.115492e-01  1.348398e-01  1.113000e+00
   endloop
 endfacet
 facet normal  0.000000e+00  0.000000e+00 -1.000000e+00
   outer loop
     vertex  1.275695e-01  1.197957e-01  1.113000e+00
     vertex -1.415780e-01 -1.028624e-01  1.113000e+00
     vertex -1.533537e-01 -8.430689e-02  1.113000e+00
   endloop
 endfacet
 facet normal  0.000000e+00  0.000000e+00 -1.000000e+00
   outer loop
     vertex  1.275695e-01  1.197957e-01  1.113000e+00
     vertex -1.275695e-01 -1.197957e-01  1.113000e+00
     vertex -1.415780e-01 -1.028624e-01  1.113000e+00
   endloop
 endfacet
 facet normal  0.000000e+00  0.000000e+00 -1.000000e+00
   outer loop
     vertex  1.275695e-01  1.197957e-01  1.113000e+00
     vertex -1.115492e-01 -1.348398e-01  1.113000e+00
     vertex -1.275695e-01 -1.197957e-01  1.113000e+00
   endloop
 endfacet
 facet normal  0.000000e+00  0.000000e+00 -1.000000e+00
   outer loop
     vertex  1.275695e-01  1.197957e-01  1.113000e+00
     vertex -9.376969e-02 -1.477574e-01  1.113000e+00
     vertex -1.115492e-01 -1.348398e-01  1.113000e+00
   endloop
 endfacet
 facet normal  0.000000e+00  0.000000e+00 -1.000000e+00
   outer loop
     vertex  1.275695e-01  1.197957e-01  1.113000e+00
     vertex -7.451138e-02 -1.583447e-01  1.113000e+00
     vertex -9.376969e-02 -1.477574e-01  1.113000e+00
   endloop
 endfacet
 facet normal  0.000000e+00  0.000000e+00 -1.000000e+00
   outer loop
     vertex  1.275695e-01  1.197957e-01  1.113000e+00
     vertex -5.407797e-02 -1.664349e-01  1.113000e+00
     vertex -7.451138e-02 -1.583447e-01  1.113000e+00
   endloop
 endfacet
 facet normal  0.000000e+00  0.000000e+00 -1.000000e+00
   outer loop
     vertex  1.275695e-01  1.197957e-01  1.113000e+00
     vertex -3.279173e-02 -1.719003e-01  1.113000e+00
     vertex -5.407797e-02 -1.664349e-01  1.113000e+00
   endloop
 endfacet
 facet normal  0.000000e+00  0.000000e+00 -1.000000e+00
   outer loop
     vertex  1.275695e-01  1.197957e-01  1.113000e+00
     vertex -1.098834e-02 -1.746547e-01  1.113000e+00
     vertex -3.279173e-02 -1.719003e-01  1.113000e+00
   endloop
 endfacet
 facet normal  0.000000e+00  0.000000e+00 -1.000000e+00
   outer loop
     vertex  1.275695e-01  1.197957e-01  1.113000e+00
     vertex  1.098834e-02 -1.746547e-01  1.113000e+00
     vertex -1.098834e-02 -1.746547e-01  1.113000e+00
   endloop
 endfacet
 facet normal  0.000000e+00  0.000000e+00 -1.000000e+00
   outer loop
     vertex  1.275695e-01  1.197957e-01  1.113000e+00
     vertex  3.279173e-02 -1.719003e-01  1.113000e+00
     vertex  1.098834e-02 -1.746547e-01  1.113000e+00
   endloop
 endfacet
 facet normal  0.000000e+00  0.000000e+00 -1.000000e+00
   outer loop
     vertex  1.275695e-01  1.197957e-01  1.113000e+00
     vertex  5.407797e-02 -1.664349e-01  1.113000e+00
     vertex  3.279173e-02 -1.719003e-01  1.113000e+00
   endloop
 endfacet
 facet normal  0.000000e+00  0.000000e+00 -1.000000e+00
   outer loop
     vertex  1.275695e-01  1.197957e-01  1.113000e+00
     vertex  7.451138e-02 -1.583447e-01  1.113000e+00
     vertex  5.407797e-02 -1.664349e-01  1.113000e+00
   endloop
 endfacet
 facet normal  0.000000e+00  0.000000e+00 -1.000000e+00
   outer loop
     vertex  1.275695e-01  1.197957e-01  1.113000e+00
     vertex  9.376969e-02 -1.477574e-01  1.113000e+00
     vertex  7.451138e-02 -1.583447e-01  1.113000e+00
   endloop
 endfacet
 facet normal  0.000000e+00  0.000000e+00 -1.000000e+00
   outer loop
     vertex  1.275695e-01  1.197957e-01  1.113000e+00
     vertex  1.115492e-01 -1.348398e-01  1.113000e+00
     vertex  9.376969e-02 -1.477574e-01  1.113000e+00
   endloop
 endfacet
 facet normal  0.000000e+00 -0.000000e+00 -1.000000e+00
   outer loop
     vertex  1.275695e-01  1.197957e-01  1.113000e+00
     vertex  1.275695e-01 -1.197957e-01  1.113000e+00
     vertex  1.115492e-01 -1.348398e-01  1.113000e+00
   endloop
 endfacet
 facet normal  0.000000e+00  0.000000e+00 -1.000000e+00
   outer loop
     vertex  1.275695e-01  1.197957e-01  1.113000e+00
     vertex  1.627109e-01 -6.442180e-02  1.113000e+00
     vertex  1.533537e-01 -8.430689e-02  1.113000e+00
   endloop
 endfacet
 facet normal  0.000000e+00  0.000000e+00 -1.000000e+00
   outer loop
     vertex  1.275695e-01  1.197957e-01  1.113000e+00
     vertex  1.695021e-01 -4.352073e-02  1.113000e+00
     vertex  1.627109e-01 -6.442180e-02  1.113000e+00
   endloop
 endfacet
 facet normal  0.000000e+00  0.000000e+00 -1.000000e+00
   outer loop
     vertex  1.275695e-01  1.197957e-01  1.113000e+00
     vertex  1.736201e-01 -2.193332e-02  1.113000e+00
     vertex  1.695021e-01 -4.352073e-02  1.113000e+00
   endloop
 endfacet
 facet normal  0.000000e+00  0.000000e+00 -1.000000e+00
   outer loop
     vertex  1.275695e-01  1.197957e-01  1.113000e+00
     vertex  1.750000e-01 -4.286264e-17  1.113000e+00
     vertex  1.736201e-01 -2.193332e-02  1.113000e+00
   endloop
 endfacet
endsolid
